<svg width="45" height="44" viewBox="0 0 45 44" fill="none" xmlns="http://www.w3.org/2000/svg">
<circle cx="22.5" cy="22" r="22" fill="#8676EF"/>
<path d="M1.3117 -0.286865H0.957275V0.0675601H1.3117V-0.286865Z" fill="#725FEC"/>
<path d="M4.46209 -0.286865H4.10767V0.0675601H4.46209V-0.286865Z" fill="#725FEC"/>
<path d="M7.61251 -0.286865H7.25809V0.0675601H7.61251V-0.286865Z" fill="#725FEC"/>
<path d="M10.763 -0.286865H10.4086V0.0675601H10.763V-0.286865Z" fill="#725FEC"/>
<path d="M13.9134 -0.286865H13.559V0.0675601H13.9134V-0.286865Z" fill="#725FEC"/>
<path d="M17.0639 -0.286865H16.7095V0.0675601H17.0639V-0.286865Z" stroke="#725FEC" stroke-width="0.0356709"/>
<path d="M20.2143 -0.286865H19.8598V0.0675601H20.2143V-0.286865Z" fill="#725FEC"/>
<path d="M23.3648 -0.286865H23.0103V0.0675601H23.3648V-0.286865Z" stroke="#725FEC" stroke-width="0.0356709"/>
<path d="M26.5153 -0.286865H26.1609V0.0675601H26.5153V-0.286865Z" stroke="#725FEC" stroke-width="0.0356709"/>
<path d="M29.6657 -0.286865H29.3113V0.0675601H29.6657V-0.286865Z" stroke="#725FEC" stroke-width="0.0356709"/>
<path d="M32.8162 -0.286865H32.4618V0.0675601H32.8162V-0.286865Z" fill="#725FEC"/>
<path d="M35.9666 -0.286865H35.6122V0.0675601H35.9666V-0.286865Z" fill="#725FEC"/>
<path d="M39.1171 -0.286865H38.7627V0.0675601H39.1171V-0.286865Z" fill="#725FEC"/>
<path d="M42.2675 -0.286865H41.9131V0.0675601H42.2675V-0.286865Z" fill="#725FEC"/>
<path d="M1.3117 2.86328H0.957275V3.21771H1.3117V2.86328Z" stroke="#725FEC" stroke-width="0.0356709"/>
<path d="M4.46209 2.86328H4.10767V3.21771H4.46209V2.86328Z" fill="#725FEC"/>
<path d="M7.61251 2.86328H7.25809V3.21771H7.61251V2.86328Z" stroke="#725FEC" stroke-width="0.0356709"/>
<path d="M10.763 2.86328H10.4086V3.21771H10.763V2.86328Z" fill="#725FEC"/>
<path d="M13.9134 2.86328H13.559V3.21771H13.9134V2.86328Z" fill="#725FEC"/>
<path d="M17.0639 2.86328H16.7095V3.21771H17.0639V2.86328Z" fill="#725FEC"/>
<path d="M20.2143 2.86328H19.8598V3.21771H20.2143V2.86328Z" stroke="#725FEC" stroke-width="0.0356709"/>
<path d="M23.3648 2.86328H23.0103V3.21771H23.3648V2.86328Z" fill="#725FEC"/>
<path d="M26.5153 2.86328H26.1609V3.21771H26.5153V2.86328Z" fill="#725FEC"/>
<path d="M29.6657 2.86328H29.3113V3.21771H29.6657V2.86328Z" stroke="#725FEC" stroke-width="0.0356709"/>
<path d="M32.8162 2.86328H32.4618V3.21771H32.8162V2.86328Z" fill="#725FEC"/>
<path d="M35.9666 2.86328H35.6122V3.21771H35.9666V2.86328Z" fill="#725FEC"/>
<path d="M39.1171 2.86328H38.7627V3.21771H39.1171V2.86328Z" fill="#725FEC"/>
<path d="M42.2675 2.86328H41.9131V3.21771H42.2675V2.86328Z" fill="#725FEC"/>
<path d="M1.3117 6.01392H0.957275V6.36834H1.3117V6.01392Z" fill="#725FEC"/>
<path d="M4.46209 6.01392H4.10767V6.36834H4.46209V6.01392Z" fill="#725FEC"/>
<path d="M7.61251 6.01392H7.25809V6.36834H7.61251V6.01392Z" stroke="#725FEC" stroke-width="0.0356709"/>
<path d="M10.763 6.01392H10.4086V6.36834H10.763V6.01392Z" fill="#725FEC"/>
<path d="M13.9134 6.01392H13.559V6.36834H13.9134V6.01392Z" fill="#725FEC"/>
<path d="M17.0639 6.01392H16.7095V6.36834H17.0639V6.01392Z" stroke="#725FEC" stroke-width="0.0356709"/>
<path d="M20.2143 6.01392H19.8598V6.36834H20.2143V6.01392Z" fill="#725FEC"/>
<path d="M23.3648 6.01392H23.0103V6.36834H23.3648V6.01392Z" fill="#725FEC"/>
<path d="M26.5153 6.01392H26.1609V6.36834H26.5153V6.01392Z" stroke="#725FEC" stroke-width="0.0356709"/>
<path d="M29.6657 6.01392H29.3113V6.36834H29.6657V6.01392Z" fill="#725FEC"/>
<path d="M32.8162 6.01392H32.4618V6.36834H32.8162V6.01392Z" fill="#725FEC"/>
<path d="M35.9666 6.01392H35.6122V6.36834H35.9666V6.01392Z" fill="#725FEC"/>
<path d="M39.1171 6.01392H38.7627V6.36834H39.1171V6.01392Z" stroke="#725FEC" stroke-width="0.0356709"/>
<path d="M42.2675 6.01392H41.9131V6.36834H42.2675V6.01392Z" fill="#725FEC"/>
<path d="M1.3117 9.16431H0.957275V9.51873H1.3117V9.16431Z" fill="#725FEC"/>
<path d="M4.46209 9.16431H4.10767V9.51873H4.46209V9.16431Z" fill="#725FEC"/>
<path d="M7.61251 9.16431H7.25809V9.51873H7.61251V9.16431Z" fill="#725FEC"/>
<path d="M10.763 9.16431H10.4086V9.51873H10.763V9.16431Z" fill="#725FEC"/>
<path d="M13.9134 9.16431H13.559V9.51873H13.9134V9.16431Z" fill="#725FEC"/>
<path d="M17.0639 9.16431H16.7095V9.51873H17.0639V9.16431Z" fill="#725FEC"/>
<path d="M20.2143 9.16431H19.8598V9.51873H20.2143V9.16431Z" stroke="#725FEC" stroke-width="0.0356709"/>
<path d="M23.3648 9.16431H23.0103V9.51873H23.3648V9.16431Z" fill="#725FEC"/>
<path d="M26.5153 9.16431H26.1609V9.51873H26.5153V9.16431Z" fill="#725FEC"/>
<path d="M29.6657 9.16431H29.3113V9.51873H29.6657V9.16431Z" stroke="#725FEC" stroke-width="0.0356709"/>
<path d="M32.8162 9.16431H32.4618V9.51873H32.8162V9.16431Z" fill="#725FEC"/>
<path d="M35.9666 9.16431H35.6122V9.51873H35.9666V9.16431Z" fill="#725FEC"/>
<path d="M39.1171 9.16431H38.7627V9.51873H39.1171V9.16431Z" fill="#725FEC"/>
<path d="M42.2675 9.16431H41.9131V9.51873H42.2675V9.16431Z" fill="#725FEC"/>
<path d="M1.3117 12.3147H0.957275V12.6691H1.3117V12.3147Z" stroke="#725FEC" stroke-width="0.0356709"/>
<path d="M4.46209 12.3147H4.10767V12.6691H4.46209V12.3147Z" fill="#725FEC"/>
<path d="M7.61251 12.3147H7.25809V12.6691H7.61251V12.3147Z" fill="#725FEC"/>
<path d="M10.763 12.3147H10.4086V12.6691H10.763V12.3147Z" stroke="#725FEC" stroke-width="0.0356709"/>
<path d="M13.9134 12.3147H13.559V12.6691H13.9134V12.3147Z" fill="#725FEC"/>
<path d="M17.0639 12.3147H16.7095V12.6691H17.0639V12.3147Z" fill="#725FEC"/>
<path d="M20.2143 12.3147H19.8598V12.6691H20.2143V12.3147Z" fill="#725FEC"/>
<path d="M23.3648 12.3147H23.0103V12.6691H23.3648V12.3147Z" fill="#725FEC"/>
<path d="M26.5153 12.3147H26.1609V12.6691H26.5153V12.3147Z" fill="#725FEC"/>
<path d="M29.6657 12.3147H29.3113V12.6691H29.6657V12.3147Z" fill="#725FEC"/>
<path d="M32.8162 12.3147H32.4618V12.6691H32.8162V12.3147Z" fill="#725FEC"/>
<path d="M35.9666 12.3147H35.6122V12.6691H35.9666V12.3147Z" fill="#725FEC"/>
<path d="M39.1171 12.3147H38.7627V12.6691H39.1171V12.3147Z" fill="#725FEC"/>
<path d="M42.2675 12.3147H41.9131V12.6691H42.2675V12.3147Z" stroke="#725FEC" stroke-width="0.0356709"/>
<path d="M1.3117 15.4651H0.957275V15.8195H1.3117V15.4651Z" fill="#725FEC"/>
<path d="M4.46209 15.4651H4.10767V15.8195H4.46209V15.4651Z" fill="#725FEC"/>
<path d="M7.61251 15.4651H7.25809V15.8195H7.61251V15.4651Z" stroke="#725FEC" stroke-width="0.0356709"/>
<path d="M10.763 15.4651H10.4086V15.8195H10.763V15.4651Z" stroke="#725FEC" stroke-width="0.0356709"/>
<path d="M13.9134 15.4651H13.559V15.8195H13.9134V15.4651Z" stroke="#725FEC" stroke-width="0.0356709"/>
<path d="M17.0639 15.4651H16.7095V15.8195H17.0639V15.4651Z" fill="#725FEC"/>
<path d="M20.2143 15.4651H19.8598V15.8195H20.2143V15.4651Z" stroke="#725FEC" stroke-width="0.0356709"/>
<path d="M23.3648 15.4651H23.0103V15.8195H23.3648V15.4651Z" stroke="#725FEC" stroke-width="0.0356709"/>
<path d="M26.5153 15.4651H26.1609V15.8195H26.5153V15.4651Z" fill="#725FEC"/>
<path d="M29.6657 15.4651H29.3113V15.8195H29.6657V15.4651Z" fill="#725FEC"/>
<path d="M32.8162 15.4651H32.4618V15.8195H32.8162V15.4651Z" fill="#725FEC"/>
<path d="M35.9666 15.4651H35.6122V15.8195H35.9666V15.4651Z" stroke="#725FEC" stroke-width="0.0356709"/>
<path d="M39.1171 15.4651H38.7627V15.8195H39.1171V15.4651Z" fill="#725FEC"/>
<path d="M42.2675 15.4651H41.9131V15.8195H42.2675V15.4651Z" stroke="#725FEC" stroke-width="0.0356709"/>
<path d="M1.3117 18.6157H0.957275V18.9701H1.3117V18.6157Z" fill="#725FEC"/>
<path d="M4.46209 18.6157H4.10767V18.9701H4.46209V18.6157Z" fill="#725FEC"/>
<path d="M7.61251 18.6157H7.25809V18.9701H7.61251V18.6157Z" fill="#725FEC"/>
<path d="M10.763 18.6157H10.4086V18.9701H10.763V18.6157Z" stroke="#725FEC" stroke-width="0.0356709"/>
<path d="M13.9134 18.6157H13.559V18.9701H13.9134V18.6157Z" fill="#725FEC"/>
<path d="M17.0639 18.6157H16.7095V18.9701H17.0639V18.6157Z" fill="#725FEC"/>
<path d="M20.2143 18.6157H19.8598V18.9701H20.2143V18.6157Z" fill="#725FEC"/>
<path d="M23.3648 18.6157H23.0103V18.9701H23.3648V18.6157Z" fill="#725FEC"/>
<path d="M26.5153 18.6157H26.1609V18.9701H26.5153V18.6157Z" fill="#725FEC"/>
<path d="M29.6657 18.6157H29.3113V18.9701H29.6657V18.6157Z" fill="#725FEC"/>
<path d="M32.8162 18.6157H32.4618V18.9701H32.8162V18.6157Z" fill="#725FEC"/>
<path d="M35.9666 18.6157H35.6122V18.9701H35.9666V18.6157Z" stroke="#725FEC" stroke-width="0.0356709"/>
<path d="M39.1171 18.6157H38.7627V18.9701H39.1171V18.6157Z" fill="#725FEC"/>
<path d="M42.2675 18.6157H41.9131V18.9701H42.2675V18.6157Z" fill="#725FEC"/>
<path d="M1.3117 21.7661H0.957275V22.1205H1.3117V21.7661Z" stroke="#725FEC" stroke-width="0.0356709"/>
<path d="M4.46209 21.7661H4.10767V22.1205H4.46209V21.7661Z" fill="#725FEC"/>
<path d="M7.61251 21.7661H7.25809V22.1205H7.61251V21.7661Z" stroke="#725FEC" stroke-width="0.0356709"/>
<path d="M10.763 21.7661H10.4086V22.1205H10.763V21.7661Z" stroke="#725FEC" stroke-width="0.0356709"/>
<path d="M13.9134 21.7661H13.559V22.1205H13.9134V21.7661Z" fill="#725FEC"/>
<path d="M17.0639 21.7661H16.7095V22.1205H17.0639V21.7661Z" fill="#725FEC"/>
<path d="M20.2143 21.7661H19.8598V22.1205H20.2143V21.7661Z" fill="#725FEC"/>
<path d="M23.3648 21.7661H23.0103V22.1205H23.3648V21.7661Z" fill="#725FEC"/>
<path d="M26.5153 21.7661H26.1609V22.1205H26.5153V21.7661Z" fill="#725FEC"/>
<path d="M29.6657 21.7661H29.3113V22.1205H29.6657V21.7661Z" fill="#725FEC"/>
<path d="M32.8162 21.7661H32.4618V22.1205H32.8162V21.7661Z" fill="#725FEC"/>
<path d="M35.9666 21.7661H35.6122V22.1205H35.9666V21.7661Z" fill="#725FEC"/>
<path d="M39.1171 21.7661H38.7627V22.1205H39.1171V21.7661Z" fill="#725FEC"/>
<path d="M42.2675 21.7661H41.9131V22.1205H42.2675V21.7661Z" fill="#725FEC"/>
<path d="M1.3117 24.9165H0.957275V25.2709H1.3117V24.9165Z" stroke="#725FEC" stroke-width="0.0356709"/>
<path d="M4.46209 24.9165H4.10767V25.2709H4.46209V24.9165Z" fill="#725FEC"/>
<path d="M7.61251 24.9165H7.25809V25.2709H7.61251V24.9165Z" stroke="#725FEC" stroke-width="0.0356709"/>
<path d="M10.763 24.9165H10.4086V25.2709H10.763V24.9165Z" stroke="#725FEC" stroke-width="0.0356709"/>
<path d="M13.9134 24.9165H13.559V25.2709H13.9134V24.9165Z" fill="#725FEC"/>
<path d="M17.0639 24.9165H16.7095V25.2709H17.0639V24.9165Z" fill="#725FEC"/>
<path d="M20.2143 24.9165H19.8598V25.2709H20.2143V24.9165Z" fill="#725FEC"/>
<path d="M23.3648 24.9165H23.0103V25.2709H23.3648V24.9165Z" stroke="#725FEC" stroke-width="0.0356709"/>
<path d="M26.5153 24.9165H26.1609V25.2709H26.5153V24.9165Z" fill="#725FEC"/>
<path d="M29.6657 24.9165H29.3113V25.2709H29.6657V24.9165Z" fill="#725FEC"/>
<path d="M32.8162 24.9165H32.4618V25.2709H32.8162V24.9165Z" stroke="#725FEC" stroke-width="0.0356709"/>
<path d="M35.9666 24.9165H35.6122V25.2709H35.9666V24.9165Z" fill="#725FEC"/>
<path d="M39.1171 24.9165H38.7627V25.2709H39.1171V24.9165Z" fill="#725FEC"/>
<path d="M42.2675 24.9165H41.9131V25.2709H42.2675V24.9165Z" fill="#725FEC"/>
<path d="M1.3117 28.0671H0.957275V28.4216H1.3117V28.0671Z" stroke="#725FEC" stroke-width="0.0356709"/>
<path d="M4.46209 28.0671H4.10767V28.4216H4.46209V28.0671Z" fill="#725FEC"/>
<path d="M7.61251 28.0671H7.25809V28.4216H7.61251V28.0671Z" fill="#725FEC"/>
<path d="M10.763 28.0671H10.4086V28.4216H10.763V28.0671Z" stroke="#725FEC" stroke-width="0.0356709"/>
<path d="M13.9134 28.0671H13.559V28.4216H13.9134V28.0671Z" fill="#725FEC"/>
<path d="M17.0639 28.0671H16.7095V28.4216H17.0639V28.0671Z" fill="#725FEC"/>
<path d="M20.2143 28.0671H19.8598V28.4216H20.2143V28.0671Z" fill="#725FEC"/>
<path d="M23.3648 28.0671H23.0103V28.4216H23.3648V28.0671Z" fill="#725FEC"/>
<path d="M26.5153 28.0671H26.1609V28.4216H26.5153V28.0671Z" fill="#725FEC"/>
<path d="M29.6657 28.0671H29.3113V28.4216H29.6657V28.0671Z" fill="#725FEC"/>
<path d="M32.8162 28.0671H32.4618V28.4216H32.8162V28.0671Z" fill="#725FEC"/>
<path d="M35.9666 28.0671H35.6122V28.4216H35.9666V28.0671Z" fill="#725FEC"/>
<path d="M39.1171 28.0671H38.7627V28.4216H39.1171V28.0671Z" fill="#725FEC"/>
<path d="M42.2675 28.0671H41.9131V28.4216H42.2675V28.0671Z" stroke="#725FEC" stroke-width="0.0356709"/>
<path d="M1.3117 31.2175H0.957275V31.572H1.3117V31.2175Z" fill="#725FEC"/>
<path d="M4.46209 31.2175H4.10767V31.572H4.46209V31.2175Z" fill="#725FEC"/>
<path d="M7.61251 31.2175H7.25809V31.572H7.61251V31.2175Z" fill="#725FEC"/>
<path d="M10.763 31.2175H10.4086V31.572H10.763V31.2175Z" fill="#725FEC"/>
<path d="M13.9134 31.2175H13.559V31.572H13.9134V31.2175Z" fill="#725FEC"/>
<path d="M17.0639 31.2175H16.7095V31.572H17.0639V31.2175Z" fill="#725FEC"/>
<path d="M20.2143 31.2175H19.8598V31.572H20.2143V31.2175Z" fill="#725FEC"/>
<path d="M23.3648 31.2175H23.0103V31.572H23.3648V31.2175Z" fill="#725FEC"/>
<path d="M26.5153 31.2175H26.1609V31.572H26.5153V31.2175Z" fill="#725FEC"/>
<path d="M29.6657 31.2175H29.3113V31.572H29.6657V31.2175Z" fill="#725FEC"/>
<path d="M32.8162 31.2175H32.4618V31.572H32.8162V31.2175Z" fill="#725FEC"/>
<path d="M35.9666 31.2175H35.6122V31.572H35.9666V31.2175Z" fill="#725FEC"/>
<path d="M39.1171 31.2175H38.7627V31.572H39.1171V31.2175Z" fill="#725FEC"/>
<path d="M42.2675 31.2175H41.9131V31.572H42.2675V31.2175Z" fill="#725FEC"/>
<path d="M1.3117 34.3679H0.957275V34.7223H1.3117V34.3679Z" stroke="#725FEC" stroke-width="0.0356709"/>
<path d="M4.46209 34.3679H4.10767V34.7223H4.46209V34.3679Z" fill="#725FEC"/>
<path d="M7.61251 34.3679H7.25809V34.7223H7.61251V34.3679Z" fill="#725FEC"/>
<path d="M10.763 34.3679H10.4086V34.7223H10.763V34.3679Z" stroke="#725FEC" stroke-width="0.0356709"/>
<path d="M13.9134 34.3679H13.559V34.7223H13.9134V34.3679Z" fill="#725FEC"/>
<path d="M17.0639 34.3679H16.7095V34.7223H17.0639V34.3679Z" fill="#725FEC"/>
<path d="M20.2143 34.3679H19.8598V34.7223H20.2143V34.3679Z" stroke="#725FEC" stroke-width="0.0356709"/>
<path d="M23.3648 34.3679H23.0103V34.7223H23.3648V34.3679Z" fill="#725FEC"/>
<path d="M26.5153 34.3679H26.1609V34.7223H26.5153V34.3679Z" fill="#725FEC"/>
<path d="M29.6657 34.3679H29.3113V34.7223H29.6657V34.3679Z" fill="#725FEC"/>
<path d="M32.8162 34.3679H32.4618V34.7223H32.8162V34.3679Z" stroke="#725FEC" stroke-width="0.0356709"/>
<path d="M35.9666 34.3679H35.6122V34.7223H35.9666V34.3679Z" stroke="#725FEC" stroke-width="0.0356709"/>
<path d="M39.1171 34.3679H38.7627V34.7223H39.1171V34.3679Z" fill="#725FEC"/>
<path d="M42.2675 34.3679H41.9131V34.7223H42.2675V34.3679Z" fill="#725FEC"/>
<path d="M1.3117 37.5183H0.957275V37.8727H1.3117V37.5183Z" stroke="#725FEC" stroke-width="0.0356709"/>
<path d="M4.46209 37.5183H4.10767V37.8727H4.46209V37.5183Z" fill="#725FEC"/>
<path d="M7.61251 37.5183H7.25809V37.8727H7.61251V37.5183Z" fill="#725FEC"/>
<path d="M10.763 37.5183H10.4086V37.8727H10.763V37.5183Z" stroke="#725FEC" stroke-width="0.0356709"/>
<path d="M13.9134 37.5183H13.559V37.8727H13.9134V37.5183Z" fill="#725FEC"/>
<path d="M17.0639 37.5183H16.7095V37.8727H17.0639V37.5183Z" fill="#725FEC"/>
<path d="M20.2143 37.5183H19.8598V37.8727H20.2143V37.5183Z" fill="#725FEC"/>
<path d="M23.3648 37.5183H23.0103V37.8727H23.3648V37.5183Z" stroke="#725FEC" stroke-width="0.0356709"/>
<path d="M26.5153 37.5183H26.1609V37.8727H26.5153V37.5183Z" stroke="#725FEC" stroke-width="0.0356709"/>
<path d="M29.6657 37.5183H29.3113V37.8727H29.6657V37.5183Z" fill="#725FEC"/>
<path d="M32.8162 37.5183H32.4618V37.8727H32.8162V37.5183Z" fill="#725FEC"/>
<path d="M35.9666 37.5183H35.6122V37.8727H35.9666V37.5183Z" stroke="#725FEC" stroke-width="0.0356709"/>
<path d="M39.1171 37.5183H38.7627V37.8727H39.1171V37.5183Z" fill="#725FEC"/>
<path d="M42.2675 37.5183H41.9131V37.8727H42.2675V37.5183Z" fill="#725FEC"/>
<path d="M1.3117 40.6689H0.957275V41.0234H1.3117V40.6689Z" fill="#725FEC"/>
<path d="M4.46209 40.6689H4.10767V41.0234H4.46209V40.6689Z" stroke="#725FEC" stroke-width="0.0356709"/>
<path d="M7.61251 40.6689H7.25809V41.0234H7.61251V40.6689Z" stroke="#725FEC" stroke-width="0.0356709"/>
<path d="M10.763 40.6689H10.4086V41.0234H10.763V40.6689Z" stroke="#725FEC" stroke-width="0.0356709"/>
<path d="M13.9134 40.6689H13.559V41.0234H13.9134V40.6689Z" stroke="#725FEC" stroke-width="0.0356709"/>
<path d="M17.0639 40.6689H16.7095V41.0234H17.0639V40.6689Z" fill="#725FEC"/>
<path d="M20.2143 40.6689H19.8598V41.0234H20.2143V40.6689Z" fill="#725FEC"/>
<path d="M23.3648 40.6689H23.0103V41.0234H23.3648V40.6689Z" fill="#725FEC"/>
<path d="M26.5153 40.6689H26.1609V41.0234H26.5153V40.6689Z" stroke="#725FEC" stroke-width="0.0356709"/>
<path d="M29.6657 40.6689H29.3113V41.0234H29.6657V40.6689Z" fill="#725FEC"/>
<path d="M32.8162 40.6689H32.4618V41.0234H32.8162V40.6689Z" stroke="#725FEC" stroke-width="0.0356709"/>
<path d="M35.9666 40.6689H35.6122V41.0234H35.9666V40.6689Z" fill="#725FEC"/>
<path d="M39.1171 40.6689H38.7627V41.0234H39.1171V40.6689Z" fill="#725FEC"/>
<path d="M42.2675 40.6689H41.9131V41.0234H42.2675V40.6689Z" fill="#725FEC"/>
<path d="M1.3117 43.8191H0.957275V44.1735H1.3117V43.8191Z" fill="#725FEC"/>
<path d="M4.46209 43.8191H4.10767V44.1735H4.46209V43.8191Z" fill="#725FEC"/>
<path d="M7.61251 43.8191H7.25809V44.1735H7.61251V43.8191Z" fill="#725FEC"/>
<path d="M10.763 43.8191H10.4086V44.1735H10.763V43.8191Z" fill="#725FEC"/>
<path d="M13.9134 43.8191H13.559V44.1735H13.9134V43.8191Z" fill="#725FEC"/>
<path d="M17.0639 43.8191H16.7095V44.1735H17.0639V43.8191Z" fill="#725FEC"/>
<path d="M20.2143 43.8191H19.8598V44.1735H20.2143V43.8191Z" fill="#725FEC"/>
<path d="M23.3648 43.8191H23.0103V44.1735H23.3648V43.8191Z" fill="#725FEC"/>
<path d="M26.5153 43.8191H26.1609V44.1735H26.5153V43.8191Z" fill="#725FEC"/>
<path d="M29.6657 43.8191H29.3113V44.1735H29.6657V43.8191Z" stroke="#725FEC" stroke-width="0.0356709"/>
<path d="M32.8162 43.8191H32.4618V44.1735H32.8162V43.8191Z" fill="#725FEC"/>
<path d="M35.9666 43.8191H35.6122V44.1735H35.9666V43.8191Z" fill="#725FEC"/>
<path d="M39.1171 43.8191H38.7627V44.1735H39.1171V43.8191Z" fill="#725FEC"/>
<path d="M42.2675 43.8191H41.9131V44.1735H42.2675V43.8191Z" fill="#725FEC"/>
<path d="M33.5 11H11.5L33.5 33V11Z" fill="#2814AB" stroke="#2814AB" stroke-width="2.75" stroke-linejoin="round"/>
<path d="M11.5001 33H25.2501L11.5001 19.25V33Z" fill="#4A32E7" stroke="#4A32E7" stroke-width="2.75" stroke-linejoin="round"/>
</svg>
