<svg width="252" height="228" viewBox="0 0 252 228" fill="none" xmlns="http://www.w3.org/2000/svg">
<path d="M110.14 188.567H4.993C3.66923 188.566 2.40011 188.039 1.46406 187.103C0.528017 186.167 0.00148981 184.898 0 183.574V40.827C0.00148981 39.5031 0.528017 38.234 1.46406 37.2979C2.40011 36.3618 3.66923 35.8352 4.993 35.8337H110.14C111.464 35.8352 112.733 36.3618 113.669 37.2979C114.605 38.234 115.131 39.5031 115.133 40.827V183.574C115.131 184.898 114.605 186.167 113.669 187.103C112.733 188.039 111.464 188.566 110.14 188.567Z" fill="white"/>
<path d="M52.8264 72.9841C52.8264 77.1068 51.5223 81.1238 49.1006 84.4602C46.6789 87.7966 43.2639 90.2814 39.3442 91.5588C39.227 91.5961 39.1099 91.6334 38.9909 91.6689C38.4832 91.8251 37.9683 91.9583 37.4445 92.0719C36.4967 92.2776 35.5347 92.4111 34.5667 92.4714C34.146 92.4998 33.7229 92.514 33.2973 92.514C31.0987 92.5162 28.9155 92.1464 26.8403 91.4203C26.7799 91.399 26.7196 91.3777 26.661 91.3564C23.2986 90.142 20.334 88.028 18.0902 85.2447C15.8465 82.4614 14.4097 79.1156 13.9363 75.5719C13.463 72.0283 13.9714 68.4226 15.406 65.148C16.8406 61.8734 19.1465 59.0553 22.0723 57.0009C24.9981 54.9465 28.4316 53.7346 31.9987 53.4973C35.5658 53.2599 39.1296 54.0062 42.3018 55.6548C45.474 57.3034 48.1329 59.7911 49.9887 62.8468C51.8445 65.9025 52.8261 69.4089 52.8264 72.9841Z" fill="white"/>
<path d="M32.8294 85.9235C38.077 85.9235 42.331 81.6693 42.331 76.4214C42.331 71.1736 38.077 66.9194 32.8294 66.9194C27.5818 66.9194 23.3278 71.1736 23.3278 76.4214C23.3278 81.6693 27.5818 85.9235 32.8294 85.9235Z" fill="#2814FB"/>
<path d="M33.3842 81.5411L33.3941 81.186C32.7335 81.1677 32.1511 81.1262 31.7135 80.8065C31.5895 80.7107 31.4875 80.5893 31.4145 80.4506C31.3416 80.3118 31.2994 80.159 31.2908 80.0025C31.2831 79.9069 31.2975 79.8108 31.333 79.7216C31.3685 79.6325 31.4241 79.5528 31.4954 79.4886C31.6608 79.3884 31.8501 79.3346 32.0434 79.3329C32.2367 79.3312 32.4269 79.3816 32.594 79.4789L32.8878 79.6136L32.3244 75.4963L31.9726 75.5445L32.4519 79.0468C32.2557 78.974 32.0444 78.9515 31.8374 78.9813C31.6303 79.0111 31.4339 79.0923 31.2662 79.2174C31.1534 79.3159 31.0649 79.4392 31.0076 79.5775C30.9503 79.7159 30.9258 79.8656 30.9359 80.015C30.9463 80.2253 31.0025 80.4308 31.1007 80.617C31.1988 80.8033 31.3365 80.9658 31.5041 81.0933C32.0664 81.5042 32.7971 81.5246 33.3842 81.5411Z" fill="#2F2E41"/>
<path d="M30.2329 75.8465H28.3206V76.2016H30.2329V75.8465Z" fill="#2F2E41"/>
<path d="M36.2692 75.8465H34.3568V76.2016H36.2692V75.8465Z" fill="#2F2E41"/>
<path d="M35.529 89.7053C35.5542 89.5886 35.5673 89.4696 35.5681 89.3502C35.5674 88.9031 35.3894 88.4745 35.0733 88.1583C34.7571 87.8422 34.3286 87.6642 33.8815 87.6635H31.3959C30.9487 87.6639 30.52 87.8417 30.2038 88.158C29.8876 88.4742 29.7097 88.903 29.7093 89.3502C29.7092 89.4702 29.7223 89.5899 29.7483 89.7071C28.8101 90.0027 27.9232 90.4417 27.1191 91.0085C26.9628 91.1168 26.8084 91.2339 26.661 91.3564C26.7196 91.3777 26.78 91.399 26.8403 91.4204C28.9156 92.1464 31.0987 92.5162 33.2973 92.514C33.7234 92.514 34.1465 92.4998 34.5667 92.4714C35.5347 92.4111 36.4968 92.2776 37.4446 92.0719C37.9683 91.9583 38.4832 91.8252 38.9909 91.6689C37.9864 90.7802 36.8072 90.1114 35.529 89.7053Z" fill="#2F2E41"/>
<path d="M35.2095 92.246C34.9791 92.263 34.7573 92.3408 34.5668 92.4714C35.5348 92.4112 36.4968 92.2776 37.4446 92.072L35.2095 92.246Z" fill="#2F2E41"/>
<path d="M41.4469 74.1642L24.9405 68.1254C24.7637 68.0607 24.6197 67.9284 24.5404 67.7575C24.4611 67.5867 24.4529 67.3914 24.5176 67.2145L24.5734 66.9505C25.8625 63.4265 30.1353 61.2087 33.6591 62.4979L38.7385 64.3561C42.2623 65.6453 43.7938 69.8181 42.5047 73.3421L42.3577 73.7412C42.293 73.9181 42.1607 74.062 41.9899 74.1413C41.8191 74.2207 41.6237 74.2289 41.4469 74.1642Z" fill="#2F2E41"/>
<path d="M42.336 74.4992C19.3294 75.3482 17.3191 72.4573 24.329 67.9115L25.8162 65.175L42.8598 71.3891L42.336 74.4992Z" fill="#2F2E41"/>
<path d="M37.8248 63.9228C37.9518 63.5002 37.4078 62.9631 36.6096 62.7232C35.8115 62.4833 35.0615 62.6313 34.9345 63.0539C34.8074 63.4765 35.3515 64.0135 36.1497 64.2535C36.9478 64.4934 37.6978 64.3453 37.8248 63.9228Z" fill="#2F2E41"/>
<path d="M33.2974 93.0467C31.0387 93.0491 28.796 92.6692 26.6642 91.9231L26.4789 91.857C22.0135 90.2432 18.2651 87.0978 15.9005 82.9803C13.5359 78.8627 12.7082 74.0399 13.5648 69.3695C14.4213 64.6992 16.9065 60.484 20.5783 57.4736C24.2502 54.4632 28.8707 52.8528 33.6182 52.9287C38.3656 53.0046 42.9323 54.762 46.506 57.8883C50.0797 61.0146 52.4288 65.3071 53.1356 70.0025C53.8423 74.6978 52.8609 79.4917 50.3658 83.5315C47.8707 87.5713 44.0237 90.5952 39.5089 92.0654C39.3828 92.1055 39.264 92.1432 39.1433 92.1793C38.6391 92.3345 38.1041 92.4739 37.5575 92.5924C36.5832 92.8036 35.5944 92.9409 34.5994 93.003C34.172 93.0319 33.7328 93.0467 33.2974 93.0467ZM33.2974 53.9868C28.8272 53.9874 24.5004 55.5643 21.0779 58.4401C17.6555 61.3159 15.3566 65.3064 14.5856 69.7097C13.8146 74.1131 14.6209 78.6474 16.8626 82.515C19.1043 86.3826 22.6379 89.3359 26.8419 90.8555L27.0178 90.9181C29.036 91.6244 31.1592 91.9839 33.2974 91.9814C33.709 91.9814 34.124 91.9674 34.5308 91.94C35.473 91.8812 36.4094 91.7513 37.332 91.5513C37.849 91.4392 38.3545 91.3075 38.8343 91.1599C38.9531 91.1244 39.0659 91.0885 39.1787 91.0526C43.4788 89.652 47.1382 86.7634 49.4992 82.9061C51.8601 79.0488 52.7679 74.4758 52.0591 70.0091C51.3504 65.5424 49.0716 61.4751 45.6326 58.5382C42.1935 55.6013 37.8197 53.9874 33.2974 53.9868Z" fill="#CCCCCC"/>
<path d="M110.14 188.567H4.993C3.66923 188.566 2.40011 188.039 1.46406 187.103C0.528017 186.167 0.00148981 184.898 0 183.574V40.827C0.00148981 39.5031 0.528017 38.234 1.46406 37.2979C2.40011 36.3618 3.66923 35.8352 4.993 35.8337H110.14C111.464 35.8352 112.733 36.3618 113.669 37.2979C114.605 38.234 115.131 39.5031 115.133 40.827V183.574C115.131 184.898 114.605 186.167 113.669 187.103C112.733 188.039 111.464 188.566 110.14 188.567ZM4.993 36.4212C3.82497 36.4225 2.70517 36.8871 1.87925 37.7131C1.05333 38.539 0.588737 39.6589 0.587413 40.827V183.574C0.588736 184.742 1.05331 185.862 1.87924 186.688C2.70516 187.514 3.82497 187.979 4.993 187.98H110.14C111.308 187.979 112.428 187.514 113.254 186.688C114.08 185.862 114.544 184.742 114.545 183.574V40.827C114.544 39.6589 114.08 38.539 113.254 37.7131C112.428 36.8871 111.308 36.4225 110.14 36.4212H4.993Z" fill="#CCCCCC"/>
<path d="M89.7846 72.9081H60.0317C59.4079 72.9073 58.81 72.659 58.3692 72.2176C57.9284 71.7763 57.6808 71.178 57.6808 70.5542C57.6808 69.9304 57.9284 69.3321 58.3692 68.8908C58.81 68.4494 59.4079 68.2011 60.0317 68.2003H89.7846C90.094 68.1999 90.4003 68.2605 90.6863 68.3787C90.9722 68.4968 91.232 68.6701 91.4509 68.8887C91.6698 69.1073 91.8434 69.367 91.9619 69.6527C92.0803 69.9385 92.1413 70.2448 92.1413 70.5542C92.1413 70.8636 92.0803 71.1699 91.9619 71.4557C91.8434 71.7415 91.6698 72.0011 91.4509 72.2197C91.232 72.4383 90.9722 72.6116 90.6863 72.7298C90.4003 72.8479 90.094 72.9085 89.7846 72.9081Z" fill="#E6E6E6"/>
<path d="M99.494 80.8525H60.0317C59.4079 80.8517 58.81 80.6034 58.3692 80.162C57.9284 79.7207 57.6808 79.1224 57.6808 78.4986C57.6808 77.8748 57.9284 77.2765 58.3692 76.8352C58.81 76.3938 59.4079 76.1455 60.0317 76.1447H99.494C100.118 76.1455 100.716 76.3938 101.156 76.8352C101.597 77.2765 101.845 77.8748 101.845 78.4986C101.845 79.1224 101.597 79.7207 101.156 80.162C100.716 80.6034 100.118 80.8517 99.494 80.8525Z" fill="#E6E6E6"/>
<path d="M89.7414 111.323H15.6388C15.3295 111.323 15.0231 111.262 14.7372 111.144C14.4512 111.026 14.1914 110.853 13.9725 110.634C13.7537 110.416 13.58 110.156 13.4616 109.87C13.3431 109.584 13.2821 109.278 13.2821 108.969C13.2821 108.659 13.3431 108.353 13.4616 108.067C13.58 107.781 13.7537 107.522 13.9725 107.303C14.1914 107.085 14.4512 106.911 14.7372 106.793C15.0231 106.675 15.3295 106.614 15.6388 106.615H89.7414C90.3651 106.616 90.9631 106.864 91.4039 107.305C91.8447 107.747 92.0923 108.345 92.0923 108.969C92.0923 109.592 91.8447 110.191 91.4039 110.632C90.9631 111.073 90.3651 111.322 89.7414 111.323Z" fill="#E6E6E6"/>
<path d="M99.4508 119.267H15.6388C15.3295 119.267 15.0231 119.207 14.7372 119.089C14.4512 118.97 14.1914 118.797 13.9725 118.579C13.7537 118.36 13.58 118.1 13.4616 117.815C13.3431 117.529 13.2821 117.222 13.2821 116.913C13.2821 116.604 13.3431 116.297 13.4616 116.012C13.58 115.726 13.7537 115.466 13.9725 115.248C14.1914 115.029 14.4512 114.856 14.7372 114.737C15.0231 114.619 15.3295 114.559 15.6388 114.559H99.4508C99.7601 114.559 100.067 114.619 100.352 114.737C100.638 114.856 100.898 115.029 101.117 115.248C101.336 115.466 101.51 115.726 101.628 116.012C101.747 116.297 101.808 116.604 101.808 116.913C101.808 117.222 101.747 117.529 101.628 117.815C101.51 118.1 101.336 118.36 101.117 118.579C100.898 118.797 100.638 118.97 100.352 119.089C100.067 119.207 99.7601 119.267 99.4508 119.267Z" fill="#E6E6E6"/>
<path d="M89.7414 137.526H15.6388C15.0146 137.526 14.4159 137.278 13.9744 136.837C13.533 136.395 13.285 135.797 13.285 135.172C13.285 134.548 13.533 133.949 13.9744 133.508C14.4159 133.066 15.0146 132.818 15.6388 132.818H89.7414C90.3657 132.818 90.9644 133.066 91.4058 133.508C91.8472 133.949 92.0952 134.548 92.0952 135.172C92.0952 135.797 91.8472 136.395 91.4058 136.837C90.9644 137.278 90.3657 137.526 89.7414 137.526Z" fill="#E6E6E6"/>
<path d="M99.4508 145.471H15.6388C15.0146 145.471 14.4159 145.223 13.9744 144.781C13.533 144.34 13.285 143.741 13.285 143.117C13.285 142.492 13.533 141.894 13.9744 141.452C14.4159 141.011 15.0146 140.763 15.6388 140.763H99.4508C100.075 140.763 100.674 141.011 101.115 141.452C101.557 141.894 101.805 142.492 101.805 143.117C101.805 143.741 101.557 144.34 101.115 144.781C100.674 145.223 100.075 145.471 99.4508 145.471Z" fill="#E6E6E6"/>
<path d="M89.7414 163.73H15.6388C15.0146 163.73 14.4159 163.482 13.9744 163.04C13.533 162.599 13.285 162 13.285 161.376C13.285 160.752 13.533 160.153 13.9744 159.712C14.4159 159.27 15.0146 159.022 15.6388 159.022H89.7414C90.3657 159.022 90.9644 159.27 91.4058 159.712C91.8472 160.153 92.0952 160.752 92.0952 161.376C92.0952 162 91.8472 162.599 91.4058 163.04C90.9644 163.482 90.3657 163.73 89.7414 163.73Z" fill="#E6E6E6"/>
<path d="M99.4508 171.674H15.6388C15.0146 171.674 14.4159 171.426 13.9744 170.985C13.533 170.543 13.285 169.945 13.285 169.32C13.285 168.696 13.533 168.097 13.9744 167.656C14.4159 167.215 15.0146 166.966 15.6388 166.966H99.4508C100.075 166.966 100.674 167.215 101.115 167.656C101.557 168.097 101.805 168.696 101.805 169.32C101.805 169.945 101.557 170.543 101.115 170.985C100.674 171.426 100.075 171.674 99.4508 171.674Z" fill="#E6E6E6"/>
<path d="M247.007 152.734L141.86 152.734C140.536 152.732 139.267 152.206 138.331 151.27C137.395 150.334 136.869 149.064 136.867 147.741L136.867 4.99331C136.869 3.66948 137.395 2.4003 138.331 1.46421C139.267 0.528126 140.536 0.00157347 141.86 8.26415e-05L247.007 0C248.331 0.00148892 249.6 0.528034 250.536 1.46412C251.472 2.40021 251.998 3.66939 252 4.99321L252 147.741C251.999 149.064 251.472 150.334 250.536 151.27C249.6 152.206 248.331 152.732 247.007 152.734Z" fill="white"/>
<path d="M247.007 152.734L141.86 152.734C140.536 152.732 139.267 152.206 138.331 151.27C137.395 150.334 136.869 149.064 136.867 147.741L136.867 4.99331C136.869 3.66948 137.395 2.4003 138.331 1.46421C139.267 0.528126 140.536 0.00157347 141.86 8.26415e-05L247.007 0C248.331 0.00148892 249.6 0.528034 250.536 1.46412C251.472 2.40021 251.998 3.66939 252 4.99321L252 147.741C251.999 149.064 251.472 150.334 250.536 151.27C249.6 152.206 248.331 152.732 247.007 152.734ZM141.86 0.58752C140.692 0.588845 139.572 1.05345 138.746 1.87941C137.92 2.70537 137.456 3.82523 137.454 4.99331L137.455 147.741C137.456 148.909 137.921 150.029 138.746 150.855C139.572 151.68 140.692 152.145 141.86 152.146L247.007 152.146C248.175 152.145 249.295 151.68 250.121 150.854C250.947 150.028 251.411 148.909 251.413 147.741L251.412 4.99322C251.411 3.82514 250.947 2.70528 250.121 1.87932C249.295 1.05336 248.175 0.58876 247.007 0.587438L141.86 0.58752Z" fill="#CCCCCC"/>
<path d="M189.743 36.9558C189.743 40.8185 188.597 44.5944 186.452 47.8061C184.306 51.0178 181.256 53.521 177.687 54.9991C174.119 56.4773 170.192 56.8641 166.404 56.1105C162.615 55.3569 159.136 53.4969 156.405 50.7656C153.673 48.0343 151.813 44.5544 151.06 40.7659C150.306 36.9775 150.693 33.0507 152.171 29.4821C153.649 25.9134 156.152 22.8633 159.364 20.7173C162.575 18.5713 166.351 17.4259 170.214 17.4259C175.393 17.4275 180.359 19.4857 184.021 23.1479C187.683 26.8101 189.741 31.7767 189.743 36.9558Z" fill="white"/>
<path d="M179.24 40.2976C179.026 52.788 160.448 52.7861 160.236 40.2972C160.45 27.8072 179.028 27.8091 179.24 40.2976Z" fill="#2814FB"/>
<path d="M169.361 44.1745L169.351 43.8194C171.798 44.1462 172.325 41.113 169.857 42.247L170.421 38.1296L170.772 38.1778L170.293 41.6802C172.892 41.2934 171.931 44.5294 169.361 44.1745Z" fill="#2F2E41"/>
<path d="M174.425 38.4799H172.512V38.8349H174.425V38.4799Z" fill="#2F2E41"/>
<path d="M168.388 38.4799H166.476V38.8349H168.388V38.4799Z" fill="#2F2E41"/>
<path d="M172.818 53.5829C173.191 51.0671 170.246 51.5642 168.687 51.5393C168.436 51.5401 168.188 51.597 167.961 51.7057C167.734 51.8145 167.535 51.9724 167.377 52.168C167.219 52.3636 167.107 52.5919 167.049 52.8364C166.99 53.0809 166.987 53.3353 167.039 53.5811C165.833 53.9541 164.716 54.5704 163.757 55.3921C167.798 56.8013 172.189 56.8499 176.261 55.5305C175.268 54.6392 174.093 53.9746 172.818 53.5829Z" fill="#2F2E41"/>
<path d="M165.271 35.8034C167.032 34.7856 169.167 35.5664 170.986 35.9933C174.437 37.0542 179.277 35.7257 179.696 31.6146C180.133 27.7912 174.903 25.6603 173.231 29.4657L173.718 29.402C168.297 21.3447 158.866 21.6503 158.928 32.7277C158.908 33.0699 159.441 33.0688 159.461 32.7275C159.261 26.1997 163.581 21.7375 169.688 25.9326C171.052 27.0003 172.254 28.2594 173.258 29.6709C173.894 30.3836 174.032 27.3141 177.076 28.1181C180.426 29.4159 179.333 34.2129 176.339 35.266C172.639 37.1562 168.633 33.4913 165.002 35.3432C164.944 35.3801 164.902 35.4383 164.886 35.5055C164.869 35.5726 164.879 35.6435 164.914 35.7032C164.949 35.7629 165.006 35.8067 165.072 35.8254C165.139 35.844 165.21 35.8362 165.271 35.8034Z" fill="#2F2E41"/>
<path d="M170.214 57.0184C165.171 57.0142 160.314 55.1089 156.613 51.6827C152.913 48.2565 150.639 43.5611 150.247 38.533C149.854 33.5049 151.371 28.5135 154.496 24.5545C157.62 20.5954 162.122 17.9595 167.103 17.1726C172.084 16.3856 177.179 17.5055 181.372 20.3087C185.564 23.1119 188.546 27.3926 189.722 32.2969C190.899 37.2012 190.183 42.3687 187.719 46.7689C185.254 51.1691 181.222 54.4785 176.425 56.0371C174.419 56.6895 172.323 57.0207 170.214 57.0184ZM170.214 17.9585C166.456 17.958 162.782 19.0719 159.657 21.1595C156.533 23.247 154.097 26.2144 152.659 29.6863C151.22 33.1582 150.844 36.9787 151.577 40.6646C152.31 44.3505 154.119 47.7362 156.777 50.3936C159.434 53.0509 162.819 54.8605 166.505 55.5936C170.191 56.3266 174.011 55.9501 177.483 54.5117C180.955 53.0733 183.922 50.6376 186.009 47.5127C188.097 44.3877 189.211 40.7139 189.21 36.9558C189.205 31.9192 187.201 27.0904 183.64 23.529C180.079 19.9675 175.25 17.9642 170.214 17.9585Z" fill="#CCCCCC"/>
<path d="M226.652 37.0744L196.899 37.0744C196.275 37.0744 195.676 36.8264 195.234 36.385C194.793 35.9435 194.545 35.3448 194.545 34.7205C194.545 34.0962 194.793 33.4975 195.234 33.056C195.676 32.6146 196.275 32.3666 196.899 32.3666L226.652 32.3666C227.276 32.3666 227.875 32.6146 228.316 33.056C228.758 33.4975 229.006 34.0962 229.006 34.7205C229.006 35.3448 228.758 35.9435 228.316 36.3849C227.875 36.8264 227.276 37.0744 226.652 37.0744Z" fill="#E6E6E6"/>
<path d="M236.361 45.0188L196.899 45.0188C196.589 45.0192 196.283 44.9586 195.997 44.8405C195.711 44.7223 195.451 44.549 195.233 44.3304C195.014 44.1118 194.84 43.8522 194.722 43.5664C194.603 43.2806 194.542 42.9743 194.542 42.6649C194.542 42.3555 194.603 42.0492 194.722 41.7634C194.84 41.4777 195.014 41.218 195.233 40.9994C195.451 40.7808 195.711 40.6075 195.997 40.4893C196.283 40.3712 196.589 40.3106 196.899 40.311L236.361 40.311C236.985 40.311 237.584 40.559 238.026 41.0004C238.467 41.4419 238.715 42.0406 238.715 42.6649C238.715 43.2892 238.467 43.8879 238.026 44.3293C237.584 44.7708 236.985 45.0188 236.361 45.0188Z" fill="#E6E6E6"/>
<path d="M226.608 75.4888L152.506 75.4889C151.882 75.4881 151.284 75.2398 150.843 74.7984C150.403 74.357 150.155 73.7588 150.155 73.135C150.155 72.5112 150.403 71.9129 150.843 71.4715C151.284 71.0302 151.882 70.7818 152.506 70.7811L226.608 70.781C227.233 70.781 227.831 71.029 228.273 71.4704C228.714 71.9119 228.962 72.5106 228.962 73.1349C228.962 73.7592 228.714 74.3579 228.273 74.7994C227.831 75.2408 227.233 75.4888 226.608 75.4888Z" fill="#E6E6E6"/>
<path d="M236.318 83.4332L152.506 83.4333C152.197 83.4337 151.89 83.373 151.604 83.2549C151.318 83.1368 151.058 82.9635 150.84 82.7449C150.621 82.5262 150.447 82.2666 150.329 81.9808C150.21 81.6951 150.149 81.3887 150.149 81.0794C150.149 80.77 150.21 80.4637 150.329 80.1779C150.447 79.8921 150.621 79.6325 150.84 79.4139C151.058 79.1953 151.318 79.0219 151.604 78.9038C151.89 78.7857 152.197 78.7251 152.506 78.7255L236.318 78.7254C236.942 78.7254 237.541 78.9734 237.982 79.4148C238.424 79.8563 238.672 80.455 238.672 81.0793C238.672 81.7036 238.424 82.3023 237.982 82.7438C237.541 83.1852 236.942 83.4332 236.318 83.4332Z" fill="#E6E6E6"/>
<path d="M226.608 101.693L152.506 101.693C151.882 101.692 151.284 101.443 150.843 101.002C150.403 100.561 150.155 99.9625 150.155 99.3387C150.155 98.7149 150.403 98.1166 150.843 97.6753C151.284 97.2339 151.882 96.9856 152.506 96.9848L226.608 96.9847C227.233 96.9847 227.831 97.2327 228.273 97.6742C228.714 98.1156 228.962 98.7143 228.962 99.3386C228.962 99.9629 228.714 100.562 228.273 101.003C227.831 101.445 227.233 101.693 226.608 101.693Z" fill="#E6E6E6"/>
<path d="M236.318 109.637L152.506 109.637C152.197 109.637 151.89 109.577 151.604 109.459C151.318 109.34 151.058 109.167 150.84 108.949C150.621 108.73 150.447 108.47 150.329 108.185C150.21 107.899 150.149 107.592 150.149 107.283C150.149 106.974 150.21 106.667 150.329 106.382C150.447 106.096 150.621 105.836 150.84 105.618C151.058 105.399 151.318 105.226 151.604 105.107C151.89 104.989 152.197 104.929 152.506 104.929L236.318 104.929C236.942 104.929 237.541 105.177 237.982 105.619C238.424 106.06 238.672 106.659 238.672 107.283C238.672 107.907 238.424 108.506 237.982 108.947C237.541 109.389 236.942 109.637 236.318 109.637Z" fill="#E6E6E6"/>
<path d="M226.608 127.896L152.506 127.896C151.882 127.896 151.283 127.648 150.841 127.207C150.4 126.765 150.152 126.167 150.152 125.542C150.152 124.918 150.4 124.319 150.841 123.878C151.283 123.436 151.882 123.188 152.506 123.188L226.608 123.188C227.233 123.188 227.831 123.436 228.273 123.878C228.714 124.319 228.962 124.918 228.962 125.542C228.962 126.167 228.714 126.765 228.273 127.207C227.831 127.648 227.233 127.896 226.608 127.896Z" fill="#E6E6E6"/>
<path d="M236.318 135.841L152.506 135.841C151.882 135.841 151.283 135.593 150.842 135.151C150.4 134.71 150.152 134.111 150.152 133.487C150.152 132.862 150.4 132.264 150.842 131.822C151.283 131.381 151.882 131.133 152.506 131.133L236.318 131.133C236.942 131.133 237.541 131.381 237.982 131.822C238.424 132.264 238.672 132.862 238.672 133.487C238.672 134.111 238.424 134.71 237.982 135.151C237.541 135.593 236.942 135.841 236.318 135.841Z" fill="#E6E6E6"/>
<path d="M183.566 214.121H78.4195C77.0957 214.12 75.8266 213.593 74.8906 212.657C73.9545 211.721 73.428 210.452 73.4265 209.128V66.3805C73.428 65.0567 73.9545 63.7875 74.8906 62.8514C75.8266 61.9153 77.0957 61.3888 78.4195 61.3873H183.566C184.89 61.3888 186.159 61.9153 187.095 62.8514C188.031 63.7875 188.558 65.0567 188.559 66.3805V209.128C188.558 210.452 188.031 211.721 187.095 212.657C186.159 213.593 184.89 214.12 183.566 214.121Z" fill="white"/>
<path d="M87.1891 98.1361C87.1857 100.707 87.6913 103.252 88.6767 105.627C89.6622 108.001 91.1079 110.156 92.9306 111.969C93.0834 112.12 93.2396 112.27 93.3975 112.418C94.3493 113.307 95.3878 114.099 96.4974 114.781C96.7104 114.912 96.9235 115.038 97.1419 115.161C98.264 115.793 99.4463 116.313 100.671 116.711C100.883 116.78 101.097 116.846 101.312 116.906C105.206 118.023 109.35 117.906 113.175 116.572C113.25 116.546 113.324 116.519 113.397 116.493C116.755 115.271 119.713 113.152 121.95 110.365C124.187 107.579 125.616 104.232 126.083 100.69C126.55 97.1472 126.036 93.5444 124.598 90.2737C123.159 87.003 120.851 84.1896 117.924 82.1397C114.998 80.0899 111.565 78.8822 107.999 78.6482C104.434 78.4141 100.873 79.1626 97.7033 80.8122C94.5338 82.4617 91.8776 84.9492 90.0237 88.0038C88.1699 91.0583 87.1894 94.563 87.1891 98.1361Z" fill="white"/>
<path d="M102.594 107.709C102.603 109.222 102.046 110.683 101.031 111.806C100.027 112.908 98.5319 113.639 97.0233 113.336C95.6343 113.058 94.5055 111.844 94.6463 110.375C94.6697 110.057 94.7621 109.747 94.9172 109.469C95.0723 109.19 95.2864 108.948 95.5444 108.761C95.8025 108.573 96.0983 108.444 96.4113 108.383C96.7243 108.321 97.0469 108.329 97.3567 108.405C98.6763 108.747 99.2021 110.649 98.1025 111.542C97.8386 111.756 97.4595 111.381 97.7258 111.165C97.8901 111.015 98.014 110.826 98.0863 110.616C98.1585 110.405 98.1768 110.18 98.1395 109.961C98.1022 109.741 98.0104 109.535 97.8727 109.36C97.7349 109.185 97.5554 109.048 97.3508 108.96C97.1093 108.883 96.8534 108.862 96.6025 108.898C96.3515 108.934 96.1121 109.027 95.9023 109.169C95.6926 109.312 95.5179 109.5 95.3917 109.72C95.2654 109.94 95.1908 110.186 95.1736 110.439C95.0865 111.677 96.035 112.609 97.1982 112.829C98.4566 113.066 99.7042 112.422 100.557 111.533C101.534 110.501 102.073 109.13 102.061 107.709C102.064 107.639 102.093 107.574 102.142 107.526C102.192 107.478 102.259 107.451 102.328 107.451C102.397 107.451 102.463 107.478 102.513 107.526C102.563 107.574 102.592 107.64 102.594 107.709Z" fill="#2F2E41"/>
<path d="M107.795 111.095C113.042 111.095 117.296 106.84 117.296 101.593C117.296 96.3447 113.042 92.0905 107.795 92.0905C102.547 92.0905 98.2931 96.3447 98.2931 101.593C98.2931 106.84 102.547 111.095 107.795 111.095Z" fill="#2814FB"/>
<path d="M107.309 105.647L107.299 105.292C107.959 105.273 108.542 105.232 108.979 104.912C109.103 104.817 109.205 104.695 109.278 104.556C109.351 104.418 109.393 104.265 109.402 104.108C109.41 104.013 109.395 103.917 109.36 103.827C109.324 103.738 109.269 103.659 109.197 103.594C109.032 103.494 108.843 103.44 108.649 103.439C108.456 103.437 108.266 103.487 108.099 103.585L107.805 103.719L108.368 99.6021L108.72 99.6503L108.241 103.153C108.437 103.08 108.648 103.057 108.855 103.087C109.063 103.117 109.259 103.198 109.427 103.323C109.539 103.422 109.628 103.545 109.685 103.683C109.742 103.822 109.767 103.971 109.757 104.121C109.746 104.331 109.69 104.537 109.592 104.723C109.494 104.909 109.356 105.072 109.189 105.199C108.626 105.61 107.896 105.63 107.309 105.647Z" fill="#2F2E41"/>
<path d="M112.372 99.9523H110.46V100.307H112.372V99.9523Z" fill="#2F2E41"/>
<path d="M106.336 99.9523H104.424V100.307H106.336V99.9523Z" fill="#2F2E41"/>
<path d="M101.312 116.906C105.206 118.023 109.35 117.906 113.175 116.572C113.25 116.546 113.324 116.519 113.397 116.493C112.496 115.797 111.476 115.27 110.388 114.937C110.465 114.664 110.464 114.375 110.384 114.103C110.277 113.758 110.06 113.456 109.768 113.244C109.475 113.031 109.121 112.919 108.76 112.924H106.445C106.084 112.919 105.731 113.031 105.439 113.243C105.147 113.455 104.931 113.756 104.824 114.101C104.745 114.374 104.743 114.664 104.82 114.937C103.862 115.231 102.955 115.675 102.136 116.253C101.971 116.368 101.811 116.489 101.657 116.615C101.539 116.709 101.424 116.807 101.312 116.906Z" fill="#2F2E41"/>
<path d="M115.238 100.584C115.238 102.186 116.026 103.514 117.051 103.745C117.155 103.768 117.262 103.78 117.369 103.78C118.542 103.78 119.499 102.347 119.499 100.584C119.526 99.6756 119.236 98.7857 118.679 98.0669C118.506 97.8573 118.293 97.6841 118.052 97.5573C117.841 97.4472 117.607 97.3893 117.369 97.3887C117.042 97.3927 116.724 97.4995 116.461 97.694C115.739 98.2054 115.238 99.3079 115.238 100.584Z" fill="#3F3D56"/>
<path d="M96.2417 100.584C96.2417 101.962 96.824 103.138 97.6407 103.587C97.8642 103.712 98.1159 103.779 98.3722 103.78C98.4291 103.78 98.4861 103.777 98.5426 103.77C99.6362 103.64 100.503 102.262 100.503 100.584C100.503 99.2405 99.9469 98.0882 99.1622 97.6177C98.9248 97.4703 98.6515 97.3911 98.3722 97.3887C98.1341 97.3893 97.8997 97.4472 97.6886 97.5573C97.4475 97.6847 97.2339 97.8584 97.0601 98.0687C96.5049 98.7876 96.2158 99.6765 96.2417 100.584Z" fill="#3F3D56"/>
<path d="M97.7736 103.28C97.8159 103.28 97.8575 103.27 97.8951 103.251C97.9327 103.232 97.9652 103.204 97.9899 103.169C98.0145 103.135 98.0306 103.095 98.0369 103.053C98.0432 103.012 98.0394 102.969 98.026 102.929C97.517 101.415 97.3639 99.8047 97.5785 98.2223C97.7932 96.6399 98.3698 95.1284 99.2636 93.8051C100.157 92.4817 101.344 91.3824 102.732 90.5924C104.12 89.8024 105.671 89.343 107.265 89.25C108.859 89.157 110.453 89.4328 111.923 90.0561C113.394 90.6793 114.7 91.6332 115.742 92.8436C116.783 94.054 117.532 95.4882 117.929 97.0349C118.326 98.5816 118.362 100.199 118.032 101.762C118.018 101.831 118.031 101.903 118.07 101.962C118.108 102.021 118.169 102.062 118.238 102.077C118.307 102.091 118.379 102.078 118.438 102.039C118.497 102.001 118.539 101.941 118.553 101.872C118.9 100.229 118.863 98.5281 118.446 96.9019C118.028 95.2756 117.241 93.7675 116.146 92.4949C115.051 91.2222 113.677 90.2193 112.132 89.5639C110.586 88.9086 108.91 88.6186 107.234 88.7164C105.558 88.8143 103.927 89.2973 102.468 90.128C101.009 90.9587 99.7608 92.1147 98.8212 93.5061C97.8816 94.8976 97.2755 96.4869 97.0501 98.1507C96.8246 99.8145 96.9858 101.508 97.5212 103.099C97.5391 103.152 97.573 103.198 97.6183 103.23C97.6635 103.263 97.7179 103.28 97.7736 103.28Z" fill="#3F3D56"/>
<path d="M112.568 95.436C112.725 95.6934 112.791 95.9968 112.754 96.2963C112.716 96.5958 112.578 96.8738 112.362 97.0846C111.846 97.6608 111.024 97.6971 110.31 97.5902C109.508 97.4702 108.658 97.0947 107.847 97.3477C107.155 97.5634 106.662 98.1907 105.943 98.3483C105.306 98.488 104.544 98.303 104.321 97.6239C104.213 97.2975 104.727 97.1576 104.834 97.4823C104.979 97.9216 105.603 97.9129 105.96 97.7912C106.533 97.5961 106.975 97.1217 107.538 96.895C108.209 96.6872 108.928 96.6892 109.598 96.9007C110.235 97.0441 110.968 97.2569 111.602 96.9889C112.072 96.7906 112.446 96.166 112.108 95.7048C111.905 95.428 112.367 95.162 112.568 95.436Z" fill="#2F2E41"/>
<path d="M106.718 118.199C104.839 118.2 102.97 117.937 101.164 117.418C100.952 117.358 100.729 117.29 100.506 117.217C99.2475 116.808 98.0333 116.274 96.8806 115.625C96.6644 115.504 96.4473 115.376 96.2178 115.234C95.0783 114.533 94.0116 113.72 93.0338 112.807C92.8725 112.657 92.7127 112.502 92.5564 112.348C89.4813 109.282 87.4841 105.301 86.8649 101.002C86.2456 96.7042 87.0377 92.3212 89.1221 88.5117C91.2066 84.7022 94.4709 81.6719 98.4245 79.8762C102.378 78.0804 106.808 77.6161 111.048 78.5531C115.288 79.49 119.11 81.7775 121.939 85.072C124.768 88.3665 126.451 92.4901 126.737 96.8233C127.022 101.156 125.894 105.465 123.521 109.102C121.148 112.739 117.66 115.508 113.579 116.993C113.506 117.02 113.43 117.047 113.354 117.074C111.222 117.821 108.978 118.201 106.718 118.199ZM106.718 79.1389C102.958 79.139 99.2833 80.2549 96.158 82.3451C93.0328 84.4353 90.598 87.4059 89.162 90.8807C87.726 94.3556 87.3533 98.1784 88.0911 101.865C88.8289 105.552 90.644 108.937 93.3066 111.592C93.454 111.737 93.6066 111.884 93.7608 112.028C94.6869 112.893 95.6971 113.663 96.7764 114.327C96.9938 114.461 97.1984 114.582 97.4024 114.696C98.4941 115.311 99.6442 115.817 100.836 116.204C101.047 116.273 101.255 116.337 101.456 116.393C105.245 117.481 109.277 117.368 112.999 116.07L113.214 115.992C117.411 114.464 120.936 111.507 123.169 107.639C125.402 103.77 126.202 99.239 125.426 94.8402C124.651 90.4414 122.351 86.4564 118.929 83.585C115.508 80.7136 111.185 79.1394 106.718 79.1389Z" fill="#CCCCCC"/>
<path d="M183.566 214.121H78.4195C77.0957 214.12 75.8266 213.593 74.8906 212.657C73.9545 211.721 73.428 210.452 73.4265 209.128V66.3805C73.428 65.0567 73.9545 63.7875 74.8906 62.8514C75.8266 61.9153 77.0957 61.3888 78.4195 61.3873H183.566C184.89 61.3888 186.159 61.9153 187.095 62.8514C188.031 63.7875 188.558 65.0567 188.559 66.3805V209.128C188.558 210.452 188.031 211.721 187.095 212.657C186.159 213.593 184.89 214.12 183.566 214.121ZM78.4195 61.9747C77.2515 61.976 76.1317 62.4406 75.3058 63.2666C74.4798 64.0925 74.0152 65.2124 74.0139 66.3805V209.128C74.0152 210.296 74.4798 211.416 75.3058 212.242C76.1317 213.068 77.2515 213.532 78.4195 213.534H183.566C184.734 213.532 185.854 213.068 186.68 212.242C187.506 211.416 187.971 210.296 187.972 209.128V66.3805C187.971 65.2124 187.506 64.0925 186.68 63.2666C185.854 62.4406 184.734 61.976 183.566 61.9747H78.4195Z" fill="#3F3D56"/>
<path d="M163.211 98.4616H133.458C132.834 98.4616 132.235 98.2136 131.794 97.7722C131.352 97.3308 131.104 96.732 131.104 96.1077C131.104 95.4835 131.352 94.8847 131.794 94.4433C132.235 94.0018 132.834 93.7538 133.458 93.7538H163.211C163.835 93.7538 164.434 94.0018 164.876 94.4433C165.317 94.8847 165.565 95.4835 165.565 96.1077C165.565 96.732 165.317 97.3308 164.876 97.7722C164.434 98.2136 163.835 98.4616 163.211 98.4616Z" fill="#2814FB"/>
<path d="M172.921 106.406H133.458C132.834 106.406 132.235 106.158 131.794 105.717C131.352 105.275 131.104 104.676 131.104 104.052C131.104 103.428 131.352 102.829 131.794 102.388C132.235 101.946 132.834 101.698 133.458 101.698H172.921C173.545 101.698 174.144 101.946 174.585 102.388C175.026 102.829 175.274 103.428 175.274 104.052C175.274 104.676 175.026 105.275 174.585 105.717C174.144 106.158 173.545 106.406 172.921 106.406Z" fill="#2814FB"/>
<path d="M163.168 136.876H89.0653C88.4411 136.876 87.8424 136.628 87.401 136.187C86.9595 135.745 86.7115 135.146 86.7115 134.522C86.7115 133.898 86.9595 133.299 87.401 132.858C87.8424 132.416 88.4411 132.168 89.0653 132.168H163.168C163.792 132.168 164.391 132.416 164.832 132.858C165.274 133.299 165.522 133.898 165.522 134.522C165.522 135.146 165.274 135.745 164.832 136.187C164.391 136.628 163.792 136.876 163.168 136.876Z" fill="#CCCCCC"/>
<path d="M172.877 144.82H89.0653C88.4411 144.82 87.8424 144.572 87.401 144.131C86.9595 143.69 86.7115 143.091 86.7115 142.467C86.7115 141.842 86.9595 141.244 87.401 140.802C87.8424 140.361 88.4411 140.113 89.0653 140.113H172.877C173.502 140.113 174.1 140.361 174.542 140.802C174.983 141.244 175.231 141.842 175.231 142.467C175.231 143.091 174.983 143.69 174.542 144.131C174.1 144.572 173.502 144.82 172.877 144.82Z" fill="#CCCCCC"/>
<path d="M163.168 163.08H89.0654C88.4416 163.079 87.8436 162.831 87.4029 162.389C86.9621 161.948 86.7145 161.35 86.7145 160.726C86.7145 160.102 86.9621 159.504 87.4029 159.062C87.8436 158.621 88.4416 158.373 89.0654 158.372H163.168C163.792 158.372 164.391 158.62 164.832 159.061C165.274 159.503 165.522 160.102 165.522 160.726C165.522 161.35 165.274 161.949 164.832 162.39C164.391 162.832 163.792 163.08 163.168 163.08Z" fill="#CCCCCC"/>
<path d="M172.877 171.024H89.0654C88.4416 171.023 87.8436 170.775 87.4029 170.334C86.9621 169.892 86.7145 169.294 86.7145 168.67C86.7145 168.046 86.9621 167.448 87.4029 167.007C87.8436 166.565 88.4416 166.317 89.0654 166.316H172.877C173.502 166.316 174.1 166.564 174.542 167.006C174.983 167.447 175.231 168.046 175.231 168.67C175.231 169.295 174.983 169.893 174.542 170.335C174.1 170.776 173.502 171.024 172.877 171.024Z" fill="#CCCCCC"/>
<path d="M163.168 189.283H89.0653C88.4411 189.283 87.8424 189.035 87.401 188.594C86.9595 188.153 86.7115 187.554 86.7115 186.93C86.7115 186.305 86.9595 185.707 87.401 185.265C87.8424 184.824 88.4411 184.576 89.0653 184.576H163.168C163.792 184.576 164.391 184.824 164.832 185.265C165.274 185.707 165.522 186.305 165.522 186.93C165.522 187.554 165.274 188.153 164.832 188.594C164.391 189.035 163.792 189.283 163.168 189.283Z" fill="#CCCCCC"/>
<path d="M172.877 197.228H89.0653C88.4411 197.228 87.8424 196.98 87.401 196.538C86.9595 196.097 86.7115 195.498 86.7115 194.874C86.7115 194.25 86.9595 193.651 87.401 193.209C87.8424 192.768 88.4411 192.52 89.0653 192.52H172.877C173.502 192.52 174.1 192.768 174.542 193.209C174.983 193.651 175.231 194.25 175.231 194.874C175.231 195.498 174.983 196.097 174.542 196.538C174.1 196.98 173.502 197.228 172.877 197.228Z" fill="#CCCCCC"/>
<path d="M182.346 181.616C179.299 181.613 176.28 182.21 173.464 183.374C170.647 184.538 168.087 186.246 165.931 188.4C163.775 190.554 162.064 193.111 160.897 195.927C159.73 198.742 159.13 201.76 159.13 204.808C159.13 207.856 159.73 210.874 160.897 213.689C162.064 216.505 163.775 219.062 165.931 221.216C168.087 223.37 170.647 225.078 173.463 226.242C176.28 227.406 179.299 228.003 182.346 228C188.49 227.989 194.378 225.541 198.718 221.193C203.059 216.845 205.496 210.952 205.496 204.808C205.496 198.664 203.059 192.772 198.718 188.423C194.378 184.075 188.49 181.627 182.346 181.616Z" fill="#2814FB"/>
<path d="M180.146 214.44C179.535 214.441 178.941 214.243 178.453 213.877L178.422 213.854L172.045 208.976C171.449 208.518 171.059 207.843 170.961 207.098C170.863 206.353 171.065 205.6 171.522 205.003C171.979 204.407 172.654 204.017 173.399 203.918C174.143 203.819 174.897 204.02 175.494 204.477L179.624 207.645L189.386 194.909C189.612 194.614 189.894 194.366 190.216 194.18C190.539 193.994 190.894 193.873 191.263 193.825C191.632 193.776 192.007 193.8 192.366 193.896C192.725 193.992 193.062 194.158 193.358 194.385L193.358 194.385L193.298 194.47L193.36 194.385C193.956 194.843 194.345 195.519 194.444 196.263C194.542 197.008 194.341 197.762 193.884 198.358L182.403 213.331C182.137 213.676 181.795 213.955 181.404 214.147C181.014 214.339 180.584 214.438 180.148 214.436L180.146 214.44Z" fill="white"/>
</svg>
