<svg width="252" height="206" viewBox="0 0 252 206" fill="none" xmlns="http://www.w3.org/2000/svg">
<g id="undraw_forms_re_pkrt 1" clip-path="url(#clip0_43_5951)">
<path id="Vector" d="M187.506 161.455H109.371C108.124 161.454 106.928 160.959 106.046 160.079C105.164 159.199 104.668 158.006 104.666 156.762V100.726C104.668 99.4822 105.164 98.2892 106.046 97.4094C106.928 96.5295 108.124 96.0346 109.371 96.0332H187.506C188.753 96.0346 189.949 96.5296 190.831 97.4094C191.713 98.2893 192.21 99.4822 192.211 100.726V156.762C192.21 158.006 191.713 159.199 190.831 160.079C189.949 160.959 188.753 161.454 187.506 161.455Z" fill="#E6E6E6"/>
<path id="Vector_2" d="M110.816 157.714H186.062C186.667 157.714 187.247 157.474 187.675 157.047C188.102 156.62 188.343 156.042 188.343 155.438V102.05C188.343 101.447 188.102 100.868 187.675 100.441C187.247 100.014 186.667 99.7745 186.062 99.7745H110.816C110.211 99.7745 109.63 100.014 109.203 100.441C108.775 100.868 108.534 101.447 108.534 102.05V155.438C108.534 156.042 108.775 156.62 109.203 157.047C109.63 157.474 110.211 157.714 110.816 157.714Z" fill="white"/>
<path id="Vector_3" d="M82.8396 86.227H4.70517C3.45772 86.2256 2.26176 85.7307 1.37967 84.8509C0.497584 83.971 0.00140913 82.7781 0 81.5337V25.4987C0.00140837 24.2544 0.497584 23.0615 1.37967 22.1816C2.26176 21.3017 3.45772 20.8068 4.70517 20.8054H82.8396C84.087 20.8068 85.283 21.3017 86.1651 22.1816C87.0472 23.0615 87.5433 24.2544 87.5448 25.4987V81.5337C87.5433 82.7781 87.0472 83.971 86.1651 84.8509C85.283 85.7307 84.087 86.2256 82.8396 86.227Z" fill="#E6E6E6"/>
<path id="Vector_4" d="M6.14943 82.4858H81.3953C82.0004 82.4858 82.5806 82.2461 83.0084 81.8193C83.4363 81.3926 83.6766 80.8138 83.6766 80.2103V26.8222C83.6766 26.2187 83.4363 25.6399 83.0084 25.2131C82.5806 24.7864 82.0004 24.5466 81.3953 24.5466H6.14943C5.54439 24.5466 4.96413 24.7864 4.53631 25.2131C4.10848 25.6399 3.86813 26.2187 3.86813 26.8222V80.2103C3.86813 80.8138 4.10848 81.3926 4.53631 81.8193C4.96413 82.2461 5.54439 82.4858 6.14943 82.4858Z" fill="white"/>
<path id="Vector_5" d="M177.092 116.363H129.028C128.803 116.363 128.579 116.408 128.371 116.494C128.163 116.58 127.974 116.706 127.814 116.865C127.655 117.024 127.528 117.213 127.442 117.42C127.356 117.628 127.311 117.851 127.311 118.076C127.311 118.3 127.356 118.523 127.442 118.731C127.528 118.939 127.655 119.127 127.814 119.286C127.974 119.445 128.163 119.571 128.371 119.657C128.579 119.743 128.803 119.788 129.028 119.788H177.092C177.548 119.788 177.984 119.607 178.306 119.286C178.628 118.965 178.809 118.53 178.809 118.076C178.809 117.621 178.628 117.186 178.306 116.865C177.984 116.544 177.548 116.363 177.092 116.363Z" fill="#E6E6E6"/>
<path id="Vector_6" d="M129.028 126.9C128.803 126.9 128.579 126.944 128.371 127.03C128.163 127.117 127.974 127.243 127.814 127.402C127.655 127.561 127.528 127.749 127.442 127.957C127.356 128.165 127.311 128.388 127.311 128.612C127.311 128.837 127.356 129.06 127.442 129.268C127.528 129.475 127.655 129.664 127.814 129.823C127.974 129.982 128.163 130.108 128.371 130.194C128.579 130.28 128.803 130.325 129.028 130.325H177.092C177.548 130.325 177.984 130.144 178.306 129.823C178.628 129.502 178.809 129.067 178.809 128.612C178.809 128.158 178.628 127.723 178.306 127.402C177.984 127.081 177.548 126.9 177.092 126.9H129.028Z" fill="#E6E6E6"/>
<path id="Vector_7" d="M129.028 137.437C128.573 137.437 128.136 137.617 127.814 137.939C127.492 138.26 127.311 138.695 127.311 139.149C127.311 139.603 127.492 140.039 127.814 140.36C128.136 140.681 128.573 140.862 129.028 140.862H177.092C177.548 140.862 177.984 140.681 178.306 140.36C178.628 140.039 178.809 139.603 178.809 139.149C178.809 138.695 178.628 138.26 178.306 137.939C177.984 137.617 177.548 137.437 177.092 137.437H129.028Z" fill="#E6E6E6"/>
<path id="Vector_8" d="M119.917 120.315C121.084 120.315 122.03 119.371 122.03 118.207C122.03 117.043 121.084 116.1 119.917 116.1C118.75 116.1 117.804 117.043 117.804 118.207C117.804 119.371 118.75 120.315 119.917 120.315Z" fill="#2814AB"/>
<path id="Vector_9" d="M119.917 130.851C121.084 130.851 122.03 129.908 122.03 128.744C122.03 127.58 121.084 126.637 119.917 126.637C118.75 126.637 117.804 127.58 117.804 128.744C117.804 129.908 118.75 130.851 119.917 130.851Z" fill="#E6E6E6"/>
<path id="Vector_10" d="M119.917 141.388C121.084 141.388 122.03 140.445 122.03 139.281C122.03 138.117 121.084 137.174 119.917 137.174C118.75 137.174 117.804 138.117 117.804 139.281C117.804 140.445 118.75 141.388 119.917 141.388Z" fill="#E6E6E6"/>
<path id="Vector_11" d="M157.946 118.075C157.946 118.3 157.901 118.523 157.815 118.731C157.729 118.938 157.602 119.127 157.443 119.286C157.284 119.445 157.094 119.571 156.886 119.657C156.678 119.743 156.455 119.788 156.229 119.788H129.09C128.666 119.794 128.254 119.647 127.93 119.374C127.606 119.101 127.391 118.721 127.326 118.303C127.294 118.061 127.314 117.815 127.385 117.582C127.456 117.348 127.576 117.132 127.737 116.949C127.898 116.765 128.097 116.618 128.319 116.517C128.542 116.416 128.783 116.364 129.028 116.363H156.229C156.684 116.363 157.121 116.544 157.443 116.865C157.765 117.186 157.946 117.621 157.946 118.075Z" fill="#2814AB"/>
<path id="Vector_12" d="M148.439 88.8355C152.231 88.8355 155.305 85.7691 155.305 81.9866C155.305 78.204 152.231 75.1376 148.439 75.1376C144.646 75.1376 141.572 78.204 141.572 81.9866C141.572 85.7691 144.646 88.8355 148.439 88.8355Z" fill="#E6E6E6"/>
<path id="Vector_13" d="M151.827 82.5352C152.131 80.6683 150.86 78.9093 148.989 78.6064C147.117 78.3034 145.353 79.5712 145.05 81.4381C144.746 83.305 146.017 85.064 147.889 85.3669C149.76 85.6699 151.524 84.402 151.827 82.5352Z" fill="white"/>
<path id="Vector_14" d="M11.7118 51.8893C11.2606 51.8893 10.8279 52.0681 10.5089 52.3863C10.1899 52.7045 10.0107 53.1361 10.0107 53.5862C10.0107 54.0362 10.1899 54.4678 10.5089 54.786C10.8279 55.1043 11.2606 55.283 11.7118 55.283H75.8329C76.2841 55.283 76.7168 55.1043 77.0358 54.786C77.3549 54.4678 77.5341 54.0362 77.5341 53.5862C77.5341 53.1361 77.3549 52.7045 77.0358 52.3863C76.7168 52.0681 76.2841 51.8893 75.8329 51.8893H11.7118Z" fill="#E6E6E6"/>
<path id="Vector_15" d="M11.7118 62.3317C11.2606 62.3317 10.8279 62.5104 10.5089 62.8287C10.1899 63.1469 10.0107 63.5785 10.0107 64.0285C10.0107 64.4786 10.1899 64.9102 10.5089 65.2284C10.8279 65.5466 11.2606 65.7254 11.7118 65.7254H75.8329C76.2841 65.7254 76.7168 65.5466 77.0358 65.2284C77.3549 64.9102 77.5341 64.4786 77.5341 64.0285C77.5341 63.5785 77.3549 63.1469 77.0358 62.8287C76.7168 62.5104 76.2841 62.3317 75.8329 62.3317H11.7118Z" fill="#E6E6E6"/>
<path id="Vector_16" d="M40.37 73.296C39.9189 73.296 39.4862 73.4748 39.1671 73.793C38.8481 74.1112 38.6689 74.5429 38.6689 74.9929C38.6689 75.4429 38.8481 75.8745 39.1671 76.1928C39.4862 76.511 39.9189 76.6898 40.37 76.6898H47.1747C47.6259 76.6898 48.0586 76.511 48.3776 76.1928C48.6966 75.8745 48.8759 75.4429 48.8759 74.9929C48.8759 74.5429 48.6966 74.1112 48.3776 73.793C48.0586 73.4748 47.6259 73.296 47.1747 73.296H40.37Z" fill="#2814AB"/>
<path id="Vector_17" d="M34.6541 30.3428C34.5154 30.3429 34.3823 30.398 34.2842 30.4959C34.186 30.5937 34.1308 30.7265 34.1307 30.8649V44.1188C34.1308 44.2572 34.186 44.39 34.2842 44.4878C34.3823 44.5857 34.5154 44.6408 34.6541 44.6409H52.8906C53.0294 44.6408 53.1625 44.5857 53.2606 44.4878C53.3587 44.39 53.4139 44.2572 53.4141 44.1188V30.8649C53.4139 30.7265 53.3587 30.5937 53.2606 30.4958C53.1625 30.398 53.0294 30.3429 52.8906 30.3428L34.6541 30.3428Z" fill="#2814AB"/>
<path id="Vector_18" d="M43.7724 38.8976C45.3624 38.8976 46.6513 37.6119 46.6513 36.0259C46.6513 34.44 45.3624 33.1543 43.7724 33.1543C42.1824 33.1543 40.8935 34.44 40.8935 36.0259C40.8935 37.6119 42.1824 38.8976 43.7724 38.8976Z" fill="white"/>
<path id="Vector_19" d="M48.4833 43.3356C48.4844 43.7895 48.3767 44.237 48.1693 44.6409H39.3755C39.1514 44.2031 39.0438 43.7152 39.0629 43.224C39.082 42.7328 39.2271 42.2548 39.4845 41.8356C39.7419 41.4164 40.1029 41.0701 40.5329 40.83C40.9629 40.5898 41.4475 40.4638 41.9404 40.464H45.6044C46.3675 40.4636 47.0995 40.7655 47.6394 41.3034C48.1793 41.8414 48.4829 42.5712 48.4833 43.3324V43.3356Z" fill="white"/>
<path id="Vector_20" d="M43.7724 38.8976C45.3624 38.8976 46.6513 37.6119 46.6513 36.0259C46.6513 34.44 45.3624 33.1543 43.7724 33.1543C42.1824 33.1543 40.8935 34.44 40.8935 36.0259C40.8935 37.6119 42.1824 38.8976 43.7724 38.8976Z" fill="white"/>
<path id="Vector_21" d="M48.4833 43.3356C48.4844 43.7895 48.3767 44.237 48.1693 44.6409H39.3755C39.1514 44.2031 39.0438 43.7152 39.0629 43.224C39.082 42.7328 39.2271 42.2548 39.4845 41.8356C39.7419 41.4164 40.1029 41.0701 40.5329 40.83C40.9629 40.5898 41.4475 40.4638 41.9404 40.464H45.6044C46.3675 40.4636 47.0995 40.7655 47.6394 41.3034C48.1793 41.8414 48.4829 42.5712 48.4833 43.3324V43.3356Z" fill="white"/>
<path id="Vector_22" d="M43.7724 13.575C47.5305 13.575 50.5771 10.5361 50.5771 6.7875C50.5771 3.03887 47.5305 0 43.7724 0C40.0143 0 36.9677 3.03887 36.9677 6.7875C36.9677 10.5361 40.0143 13.575 43.7724 13.575Z" fill="#E6E6E6"/>
<path id="Vector_23" d="M43.7724 10.1813C45.6515 10.1813 47.1747 8.66186 47.1747 6.78755C47.1747 4.91323 45.6515 3.3938 43.7724 3.3938C41.8933 3.3938 40.3701 4.91323 40.3701 6.78755C40.3701 8.66186 41.8933 10.1813 43.7724 10.1813Z" fill="#2814AB"/>
<path id="Vector_24" d="M213.335 202.306L210.075 202.306L208.525 189.763L213.336 189.764L213.335 202.306Z" fill="#FFB8B8"/>
<path id="Vector_25" d="M207.747 201.377H214.034V205.326H203.788C203.788 204.807 203.89 204.294 204.089 203.815C204.288 203.336 204.58 202.9 204.947 202.534C205.315 202.167 205.751 201.876 206.232 201.678C206.712 201.479 207.227 201.377 207.747 201.377Z" fill="#2F2E41"/>
<path id="Vector_26" d="M230.907 202.306L227.647 202.306L226.097 189.763L230.909 189.764L230.907 202.306Z" fill="#FFB8B8"/>
<path id="Vector_27" d="M225.319 201.377H231.606V205.326H221.36C221.36 204.807 221.462 204.294 221.661 203.815C221.86 203.336 222.152 202.9 222.519 202.534C222.887 202.167 223.323 201.876 223.804 201.678C224.284 201.479 224.799 201.377 225.319 201.377Z" fill="#2F2E41"/>
<path id="Vector_28" d="M221.36 113.141C225.228 113.141 228.364 110.013 228.364 106.155C228.364 102.297 225.228 99.1687 221.36 99.1687C217.492 99.1687 214.356 102.297 214.356 106.155C214.356 110.013 217.492 113.141 221.36 113.141Z" fill="#FFB8B8"/>
<path id="Vector_29" d="M197.411 151.716C197.46 151.329 197.593 150.958 197.802 150.628C198.01 150.298 198.289 150.018 198.617 149.807C198.946 149.596 199.317 149.459 199.705 149.407C200.092 149.355 200.486 149.387 200.859 149.503L204.774 144.823L208.205 146.502L202.585 153.034C202.348 153.647 201.894 154.151 201.309 154.452C200.724 154.753 200.049 154.83 199.411 154.667C198.773 154.505 198.218 154.115 197.849 153.571C197.48 153.027 197.325 152.367 197.411 151.716Z" fill="#FFB8B8"/>
<path id="Vector_30" d="M231.098 156.45C230.932 156.097 230.844 155.712 230.843 155.322C230.841 154.932 230.925 154.547 231.089 154.193C231.253 153.839 231.493 153.525 231.792 153.274C232.091 153.022 232.441 152.839 232.818 152.737L233.604 146.693L237.403 146.273L236.173 154.794C236.303 155.437 236.191 156.106 235.859 156.673C235.527 157.24 234.999 157.666 234.373 157.87C233.748 158.074 233.069 158.042 232.465 157.781C231.862 157.519 231.375 157.045 231.098 156.45Z" fill="#FFB8B8"/>
<path id="Vector_31" d="M227.213 119.35C227.586 118.873 228.078 118.503 228.639 118.276C229.201 118.049 229.813 117.974 230.413 118.059C231.014 118.143 231.581 118.384 232.058 118.758C232.535 119.131 232.905 119.623 233.13 120.184L238.871 134.474C239.458 135.935 239.645 137.524 239.413 139.08L237.543 151.641C237.519 151.803 237.46 151.958 237.37 152.095C237.281 152.232 237.162 152.349 237.023 152.436C236.884 152.524 236.728 152.58 236.565 152.602C236.403 152.623 236.237 152.61 236.08 152.561L233.616 151.807C233.361 151.729 233.142 151.564 232.996 151.341C232.85 151.118 232.787 150.851 232.818 150.587C233.688 143.192 232.539 135.7 229.492 128.903L226.786 122.865C226.531 122.296 226.436 121.668 226.511 121.049C226.586 120.429 226.829 119.842 227.213 119.35Z" fill="#2814AB"/>
<path id="Vector_32" d="M223.065 113.141C224.119 113.164 225.166 112.964 226.137 112.554C227.108 112.144 227.982 111.534 228.699 110.764C229.417 109.994 229.964 109.081 230.303 108.085C230.642 107.089 230.765 106.033 230.666 104.986C230.566 103.939 230.246 102.925 229.726 102.01C229.205 101.095 228.497 100.301 227.647 99.6787C226.796 99.0566 225.824 98.6211 224.793 98.4006C223.762 98.1801 222.696 98.1798 221.665 98.3996C220.125 97.4667 218.334 96.839 216.539 96.9987C214.744 97.1583 212.969 98.2212 212.298 99.8892C211.627 101.557 212.348 103.756 214.017 104.434C215.087 104.868 216.295 104.658 217.437 104.482C218.579 104.307 219.824 104.193 220.818 104.78C221.811 105.368 222.258 106.944 221.368 107.678C220.896 108.083 220.56 108.622 220.402 109.223C220.245 109.823 220.275 110.457 220.489 111.041C220.936 112.194 222.157 113.121 223.065 113.141Z" fill="#2F2E41"/>
<path id="Vector_33" d="M231.755 151.44L232.997 198.47C233.001 198.626 232.973 198.782 232.914 198.928C232.855 199.073 232.766 199.204 232.654 199.314C232.541 199.423 232.407 199.509 232.26 199.564C232.113 199.619 231.956 199.644 231.799 199.636L227.706 199.428C227.445 199.414 227.196 199.312 227.002 199.138C226.807 198.963 226.679 198.727 226.638 198.47L221.77 167.924C221.749 167.793 221.683 167.674 221.583 167.586C221.484 167.499 221.357 167.449 221.224 167.445C221.092 167.441 220.962 167.483 220.857 167.564C220.752 167.645 220.679 167.76 220.65 167.889L214.06 197.299C214.025 197.457 213.957 197.605 213.86 197.734C213.763 197.862 213.64 197.969 213.499 198.047C213.357 198.125 213.201 198.172 213.04 198.185C212.879 198.198 212.717 198.177 212.565 198.123L208.503 197.876C208.268 197.793 208.067 197.635 207.931 197.426C207.794 197.218 207.73 196.971 207.748 196.723L211.293 150.995L231.755 151.44Z" fill="#2F2E41"/>
<path id="Vector_34" d="M233.749 129.103C234.434 121.976 229.181 115.53 222.021 115.023C218.936 114.804 214.147 114.726 212.568 118.759C207.813 130.909 216.138 130.613 213.269 141.14C210.401 151.666 207.868 152.269 211.803 153.03C215.739 153.79 233.438 158.277 232.711 150.868C232.264 146.314 233.065 136.212 233.749 129.103Z" fill="#2814AB"/>
<path id="Vector_35" d="M213.41 117.523C213.976 117.305 214.589 117.239 215.188 117.333C215.786 117.426 216.35 117.676 216.821 118.056C217.293 118.436 217.655 118.934 217.872 119.498C218.089 120.063 218.153 120.675 218.057 121.272L215.821 135.207C215.439 137.59 214.429 139.828 212.894 141.694L205.634 150.519C205.53 150.645 205.4 150.748 205.252 150.82C205.104 150.891 204.943 150.93 204.779 150.934C204.614 150.938 204.451 150.906 204.3 150.841C204.15 150.776 204.015 150.68 203.905 150.558L202.18 148.648C202.002 148.45 201.898 148.196 201.888 147.93C201.878 147.664 201.962 147.403 202.124 147.192L202.632 146.535C206.856 141.067 209.52 134.564 210.344 127.71L211.233 120.319C211.308 119.7 211.55 119.113 211.933 118.62C212.317 118.128 212.827 117.748 213.41 117.523Z" fill="#2814AB"/>
<path id="Vector_36" d="M251.715 206H178.143C178.067 206 177.995 205.97 177.941 205.917C177.888 205.863 177.858 205.791 177.858 205.716C177.858 205.64 177.888 205.568 177.941 205.514C177.995 205.461 178.067 205.431 178.143 205.431H251.715C251.79 205.431 251.863 205.461 251.916 205.514C251.97 205.568 252 205.64 252 205.716C252 205.791 251.97 205.863 251.916 205.917C251.863 205.97 251.79 206 251.715 206Z" fill="#CCCCCC"/>
</g>
<defs>
<clipPath id="clip0_43_5951">
<rect width="252" height="206" fill="white"/>
</clipPath>
</defs>
</svg>
