<svg width="224" height="210" viewBox="0 0 224 210" fill="none" xmlns="http://www.w3.org/2000/svg">
<g id="undraw_resume_re_hkth 1" clip-path="url(#clip0_58_10083)">
<path id="Vector" d="M105.604 1.75198L98.7499 5.50743L14.3027 51.7754L7.44834 55.5309C4.12239 57.358 1.65401 60.4354 0.584748 64.0877C-0.484514 67.7401 -0.0673408 71.6692 1.74475 75.0131L64.6306 190.748C66.4502 194.088 69.5148 196.567 73.152 197.64C76.7892 198.714 80.7021 198.295 84.0321 196.476L84.0498 196.466L182.17 142.706L182.188 142.697C185.514 140.87 187.982 137.792 189.052 134.14C190.121 130.487 189.704 126.558 187.892 123.214L125.006 7.47935C123.186 4.13955 120.122 1.6609 116.484 0.587177C112.847 -0.486544 108.934 -0.0676439 105.604 1.75198Z" fill="#F2F2F2"/>
<path id="Vector_2" d="M107.576 5.38056L99.4575 9.82864L17.5383 54.7115L9.41993 59.1595C7.05143 60.4607 5.29363 62.6521 4.53218 65.2531C3.77073 67.854 4.06781 70.652 5.35824 73.0333L68.2441 188.768C69.5399 191.147 71.7222 192.912 74.3124 193.676C76.9025 194.441 79.689 194.143 82.0604 192.847L82.0781 192.837L180.199 139.078L180.216 139.068C182.585 137.767 184.343 135.575 185.104 132.974C185.866 130.374 185.568 127.576 184.278 125.194L121.392 9.45921C120.096 7.08087 117.914 5.31576 115.324 4.55113C112.734 3.7865 109.947 4.08479 107.576 5.38056Z" fill="white"/>
<path id="Vector_3" d="M108.93 41.3048L72.3344 61.355C71.78 61.6588 71.1282 61.7289 70.5223 61.5501C69.9164 61.3712 69.406 60.958 69.1035 60.4013C68.801 59.8446 68.7312 59.19 68.9093 58.5816C69.0874 57.9731 69.4989 57.4607 70.0533 57.1569L106.649 37.1067C107.203 36.803 107.855 36.7328 108.461 36.9117C109.067 37.0905 109.577 37.5038 109.879 38.0605C110.182 38.6172 110.252 39.2717 110.074 39.8801C109.896 40.4886 109.484 41.001 108.93 41.3048Z" fill="#F2F2F2"/>
<path id="Vector_4" d="M121.401 43.6648L76.1837 68.4393C75.6293 68.743 74.9774 68.8132 74.3715 68.6343C73.7656 68.4555 73.2553 68.0422 72.9528 67.4855C72.6503 66.9288 72.5804 66.2743 72.7585 65.6658C72.9367 65.0574 73.3482 64.5449 73.9026 64.2412L119.12 39.4667C119.395 39.3163 119.696 39.2216 120.007 39.1882C120.318 39.1547 120.633 39.1831 120.933 39.2716C121.233 39.3602 121.512 39.5072 121.756 39.7043C121.999 39.9015 122.202 40.1448 122.351 40.4204C122.501 40.6961 122.595 40.9987 122.629 41.3109C122.662 41.6231 122.634 41.9389 122.546 42.2401C122.457 42.5414 122.311 42.8223 122.115 43.0667C121.918 43.3111 121.676 43.5144 121.401 43.6648Z" fill="#F2F2F2"/>
<path id="Vector_5" d="M57.2898 53.0089L23.5512 71.494C23.2856 71.6396 23.0884 71.8852 23.0031 72.1767C22.9178 72.4682 22.9512 72.7818 23.0961 73.0486L37.4629 99.4892C37.6078 99.7559 37.8524 99.9538 38.1427 100.04C38.433 100.125 38.7453 100.092 39.0109 99.9462L72.7496 81.461C73.0152 81.3154 73.2123 81.0699 73.2976 80.7784C73.383 80.4869 73.3495 80.1733 73.2047 79.9065L58.8379 53.4659C58.6929 53.1992 58.4484 53.0013 58.1581 52.9156C57.8678 52.8298 57.5555 52.8634 57.2898 53.0089Z" fill="#F2F2F2"/>
<path id="Vector_6" d="M127.087 74.8536L77.4504 102.049C77.1759 102.2 76.8746 102.294 76.5636 102.328C76.2527 102.361 75.9382 102.333 75.6382 102.244C75.3382 102.156 75.0585 102.009 74.8151 101.812C74.5717 101.614 74.3693 101.371 74.2195 101.095C74.0697 100.82 73.9755 100.517 73.9422 100.205C73.9088 99.8928 73.9371 99.5771 74.0253 99.2758C74.1135 98.9745 74.2599 98.6937 74.4562 98.4492C74.6525 98.2048 74.8948 98.0016 75.1693 97.8512L124.806 70.6555C125.36 70.3518 126.012 70.2816 126.618 70.4605C127.224 70.6393 127.734 71.0526 128.037 71.6093C128.339 72.166 128.409 72.8205 128.231 73.429C128.053 74.0374 127.642 74.5499 127.087 74.8536Z" fill="#F2F2F2"/>
<path id="Vector_7" d="M139.559 77.2136L81.2998 109.134C80.7454 109.437 80.0935 109.507 79.4876 109.329C78.8817 109.15 78.3714 108.736 78.0689 108.18C77.7664 107.623 77.6965 106.968 77.8746 106.36C78.0528 105.752 78.4643 105.239 79.0187 104.935L137.278 73.0155C137.833 72.7118 138.484 72.6416 139.09 72.8205C139.696 72.9993 140.207 73.4126 140.509 73.9693C140.812 74.526 140.881 75.1805 140.703 75.789C140.525 76.3974 140.114 76.9098 139.559 77.2136Z" fill="#F2F2F2"/>
<path id="Vector_8" d="M58.5463 124.322C64.1258 124.322 68.6488 119.78 68.6488 114.177C68.6488 108.574 64.1258 104.033 58.5463 104.033C52.9669 104.033 48.4438 108.574 48.4438 114.177C48.4438 119.78 52.9669 124.322 58.5463 124.322Z" fill="#F2F2F2"/>
<path id="Vector_9" d="M209.701 49.4403H97.8844C94.0933 49.4446 90.4586 50.9588 87.7779 53.6507C85.0971 56.3426 83.5892 59.9924 83.585 63.7993V195.641C83.5892 199.448 85.0971 203.098 87.7779 205.79C90.4586 208.482 94.0933 209.996 97.8844 210H209.701C213.492 209.996 217.126 208.482 219.807 205.79C222.488 203.098 223.996 199.448 224 195.641V63.7993C223.996 59.9924 222.488 56.3426 219.807 53.6507C217.126 50.9588 213.492 49.4446 209.701 49.4403Z" fill="#E6E6E6"/>
<path id="Vector_10" d="M209.701 53.574H97.8844C95.1846 53.577 92.5963 54.6553 90.6873 56.5723C88.7783 58.4892 87.7044 61.0883 87.7014 63.7993V195.641C87.7044 198.352 88.7783 200.951 90.6873 202.868C92.5963 204.785 95.1846 205.863 97.8844 205.866H209.701C212.4 205.863 214.989 204.785 216.898 202.868C218.807 200.951 219.88 198.352 219.883 195.641V63.7993C219.88 61.0883 218.807 58.4893 216.898 56.5723C214.989 54.6553 212.4 53.577 209.701 53.574Z" fill="white"/>
<path id="Vector_11" d="M193.754 85.7605H152.066C151.434 85.7605 150.828 85.5085 150.382 85.0601C149.935 84.6117 149.684 84.0035 149.684 83.3693C149.684 82.7351 149.935 82.1269 150.382 81.6785C150.828 81.2301 151.434 80.9782 152.066 80.9782H193.754C194.067 80.9778 194.377 81.0394 194.666 81.1594C194.955 81.2794 195.218 81.4555 195.439 81.6776C195.661 81.8996 195.836 82.1633 195.956 82.4536C196.076 82.7439 196.138 83.0551 196.138 83.3693C196.138 83.6835 196.076 83.9947 195.956 84.285C195.836 84.5753 195.661 84.839 195.439 85.0611C195.218 85.2831 194.955 85.4592 194.666 85.5792C194.377 85.6992 194.067 85.7608 193.754 85.7605Z" fill="#6C63FF"/>
<path id="Vector_12" d="M203.576 93.8307H152.066C151.434 93.8307 150.828 93.5787 150.382 93.1303C149.935 92.6819 149.684 92.0737 149.684 91.4395C149.684 90.8053 149.935 90.1971 150.382 89.7487C150.828 89.3003 151.434 89.0483 152.066 89.0483H203.576C204.208 89.0483 204.814 89.3003 205.26 89.7487C205.707 90.1971 205.958 90.8053 205.958 91.4395C205.958 92.0737 205.707 92.6819 205.26 93.1303C204.814 93.5787 204.208 93.8307 203.576 93.8307Z" fill="#6C63FF"/>
<path id="Vector_13" d="M142.84 71.1981H104.406C104.103 71.1982 103.813 71.3189 103.599 71.5338C103.385 71.7486 103.265 72.04 103.265 72.3439V102.464C103.265 102.768 103.385 103.059 103.599 103.274C103.813 103.489 104.103 103.61 104.406 103.61H142.84C143.143 103.61 143.433 103.489 143.647 103.274C143.861 103.059 143.981 102.768 143.981 102.464V72.3439C143.981 72.04 143.861 71.7486 143.647 71.5338C143.433 71.3189 143.143 71.1982 142.84 71.1981Z" fill="#E6E6E6"/>
<path id="Vector_14" d="M114.949 89.694C114.965 92.2368 114.031 94.6932 112.333 96.5792C110.652 98.4312 108.15 99.6594 105.626 99.1512C103.301 98.6833 101.412 96.643 101.647 94.1746C101.686 93.64 101.841 93.1203 102.101 92.6519C102.36 92.1835 102.718 91.7775 103.15 91.4624C103.582 91.1472 104.077 90.9304 104.601 90.8271C105.125 90.7238 105.665 90.7364 106.183 90.8642C108.392 91.4397 109.272 94.6358 107.432 96.136C106.99 96.496 106.356 95.8664 106.801 95.5031C108.018 94.5114 107.642 92.3418 106.174 91.7977C104.464 91.1642 102.653 92.5267 102.53 94.2817C102.384 96.3627 103.971 97.9297 105.918 98.2987C108.024 98.6978 110.112 97.6154 111.539 96.1214C113.175 94.3866 114.077 92.0829 114.057 89.694C114.061 89.578 114.11 89.4681 114.193 89.3874C114.276 89.3068 114.387 89.2617 114.503 89.2617C114.619 89.2617 114.73 89.3068 114.813 89.3874C114.896 89.4681 114.945 89.578 114.949 89.694Z" fill="#2F2E41"/>
<path id="Vector_15" d="M123.653 95.3843C132.435 95.3843 139.555 88.235 139.555 79.4159C139.555 70.5968 132.435 63.4475 123.653 63.4475C114.87 63.4475 107.751 70.5968 107.751 79.4159C107.751 88.235 114.87 95.3843 123.653 95.3843Z" fill="#6C63FF"/>
<path id="Vector_16" d="M122.839 86.2294L122.823 85.6327C123.928 85.6018 124.903 85.5322 125.635 84.9949C125.843 84.8339 126.014 84.6299 126.136 84.3967C126.258 84.1636 126.329 83.9068 126.343 83.6438C126.356 83.4831 126.332 83.3215 126.272 83.1717C126.213 83.022 126.12 82.8879 126 82.7801C125.514 82.3678 124.732 82.5013 124.162 82.7638L123.67 82.9902L124.613 76.0709L125.202 76.1519L124.4 82.0377C125.174 81.809 125.892 81.9075 126.384 82.3244C126.573 82.4899 126.721 82.697 126.817 82.9295C126.913 83.162 126.954 83.4137 126.937 83.6647C126.919 84.0181 126.825 84.3634 126.661 84.6765C126.497 84.9895 126.266 85.2627 125.986 85.4768C125.045 86.1674 123.822 86.2018 122.839 86.2294Z" fill="#2F2E41"/>
<path id="Vector_17" d="M131.314 76.6594H128.113V77.2562H131.314V76.6594Z" fill="#2F2E41"/>
<path id="Vector_18" d="M121.211 76.6594H118.011V77.2562H121.211V76.6594Z" fill="#2F2E41"/>
<path id="Vector_19" d="M114.844 103.61C116.036 102.85 117.324 102.255 118.674 101.841C118.546 101.381 118.548 100.894 118.68 100.435C118.859 99.8558 119.22 99.35 119.709 98.9935C120.198 98.637 120.789 98.4488 121.393 98.457H125.268C125.873 98.4493 126.464 98.6379 126.954 98.9949C127.444 99.3518 127.806 99.8581 127.986 100.438C128.119 100.896 128.121 101.382 127.992 101.841C129.342 102.256 130.63 102.851 131.822 103.61H114.844Z" fill="#2F2E41"/>
<path id="Vector_20" d="M141.868 73.4895C141.579 73.1372 141.222 72.8461 140.82 72.6332C140.466 72.448 140.074 72.3508 139.676 72.3497C139.128 72.3565 138.597 72.536 138.157 72.8629C136.948 73.7222 136.11 75.5751 136.11 77.7204C136.11 80.4116 137.429 82.6434 139.144 83.0313C139.318 83.0706 139.497 83.0907 139.676 83.091C141.64 83.091 143.241 80.6832 143.241 77.7204C143.241 76.0018 142.703 74.4711 141.868 73.4895Z" fill="#3F3D56"/>
<path id="Vector_21" d="M109.208 72.7347H109.205C108.808 72.4871 108.35 72.3539 107.882 72.3499C107.484 72.3509 107.092 72.4481 106.738 72.6333C106.336 72.8462 105.979 73.1373 105.69 73.4896L105.687 73.4926C104.855 74.4742 104.317 76.0049 104.317 77.7205C104.317 80.0358 105.291 82.011 106.658 82.7659C107.032 82.9764 107.454 83.0883 107.882 83.0911C107.978 83.0911 108.073 83.0851 108.168 83.0732H108.171C110.001 82.8524 111.448 80.5371 111.448 77.7205C111.448 75.4648 110.518 73.5284 109.208 72.7347Z" fill="#3F3D56"/>
<path id="Vector_22" d="M106.881 82.2525C106.952 82.2524 107.022 82.2354 107.085 82.203C107.148 82.1705 107.202 82.1235 107.243 82.0658C107.284 82.008 107.311 81.9413 107.322 81.871C107.332 81.8008 107.326 81.729 107.304 81.6617C106.452 79.118 106.195 76.4114 106.555 73.7522C106.914 71.0929 107.879 68.5526 109.375 66.3288C110.871 64.105 112.857 62.2574 115.18 60.9298C117.502 59.6022 120.098 58.8302 122.766 58.6739C125.434 58.5176 128.102 58.9812 130.563 60.0286C133.023 61.076 135.21 62.679 136.953 64.713C138.697 66.7471 139.949 69.1574 140.614 71.7567C141.279 74.356 141.338 77.0741 140.786 79.7C140.762 79.8161 140.785 79.9373 140.849 80.0367C140.914 80.1362 141.015 80.2058 141.131 80.2303C141.246 80.2548 141.367 80.2322 141.466 80.1673C141.565 80.1025 141.634 80.0009 141.659 79.8847C142.239 77.124 142.177 74.266 141.479 71.5331C140.78 68.8001 139.463 66.2658 137.63 64.127C135.797 61.9883 133.498 60.3028 130.911 59.2015C128.324 58.1002 125.519 57.6129 122.714 57.7773C119.909 57.9417 117.179 58.7535 114.737 60.1495C112.295 61.5455 110.207 63.4882 108.635 65.8265C107.062 68.1648 106.048 70.8358 105.67 73.6318C105.293 76.4278 105.563 79.2736 106.459 81.9478C106.489 82.0366 106.545 82.1137 106.621 82.1683C106.697 82.223 106.788 82.2524 106.881 82.2525Z" fill="#3F3D56"/>
<path id="Vector_23" d="M131.641 69.0698C132.271 69.9329 131.961 71.096 131.297 71.8402C130.434 72.8085 129.057 72.8696 127.862 72.6899C126.52 72.4882 125.098 71.8572 123.74 72.2824C122.582 72.6449 121.757 73.6991 120.554 73.9638C119.488 74.1987 118.212 73.8878 117.839 72.7465C117.659 72.198 118.519 71.9629 118.698 72.5085C118.94 73.2469 119.984 73.2322 120.582 73.0277C121.541 72.6999 122.28 71.9025 123.223 71.5217C124.334 71.0727 125.539 71.2754 126.67 71.5312C127.736 71.7723 128.963 72.1297 130.026 71.6794C130.812 71.3461 131.437 70.2964 130.872 69.5215C130.532 69.0563 131.305 68.6093 131.641 69.0698Z" fill="#2F2E41"/>
<path id="Vector_24" d="M193.691 123.944H137.146C136.834 123.944 136.524 123.882 136.235 123.762C135.946 123.642 135.684 123.465 135.463 123.243C135.241 123.021 135.066 122.758 134.946 122.468C134.827 122.178 134.765 121.867 134.765 121.553C134.765 121.239 134.827 120.928 134.946 120.638C135.066 120.347 135.241 120.084 135.463 119.862C135.684 119.64 135.946 119.464 136.235 119.344C136.524 119.223 136.834 119.161 137.146 119.161H193.691C194.322 119.162 194.927 119.414 195.373 119.863C195.819 120.311 196.07 120.919 196.07 121.553C196.07 122.186 195.819 122.794 195.373 123.243C194.927 123.691 194.322 123.943 193.691 123.944Z" fill="#E6E6E6"/>
<path id="Vector_25" d="M203.514 132.014H137.146C136.833 132.014 136.524 131.953 136.234 131.833C135.945 131.713 135.682 131.537 135.461 131.315C135.239 131.093 135.064 130.829 134.944 130.539C134.824 130.248 134.762 129.937 134.762 129.623C134.762 129.309 134.824 128.997 134.944 128.707C135.064 128.417 135.239 128.153 135.461 127.931C135.682 127.709 135.945 127.533 136.234 127.413C136.524 127.293 136.833 127.231 137.146 127.232H203.514C203.827 127.231 204.137 127.293 204.426 127.413C204.715 127.533 204.978 127.709 205.199 127.931C205.421 128.153 205.596 128.417 205.716 128.707C205.836 128.997 205.898 129.309 205.898 129.623C205.898 129.937 205.836 130.248 205.716 130.539C205.596 130.829 205.421 131.093 205.199 131.315C204.978 131.537 204.715 131.713 204.426 131.833C204.137 131.953 203.827 132.014 203.514 132.014Z" fill="#E6E6E6"/>
<path id="Vector_26" d="M193.691 152.949H137.146C136.515 152.949 135.909 152.697 135.463 152.249C135.016 151.801 134.765 151.192 134.765 150.558C134.765 149.924 135.016 149.316 135.463 148.867C135.909 148.419 136.515 148.167 137.146 148.167H193.691C194.323 148.167 194.928 148.419 195.375 148.867C195.821 149.316 196.072 149.924 196.072 150.558C196.072 151.192 195.821 151.801 195.375 152.249C194.928 152.697 194.323 152.949 193.691 152.949Z" fill="#E6E6E6"/>
<path id="Vector_27" d="M203.514 161.019H137.146C136.515 161.019 135.909 160.767 135.463 160.319C135.016 159.871 134.765 159.262 134.765 158.628C134.765 157.994 135.016 157.386 135.463 156.937C135.909 156.489 136.515 156.237 137.146 156.237H203.514C204.145 156.237 204.751 156.489 205.197 156.937C205.644 157.386 205.895 157.994 205.895 158.628C205.895 159.262 205.644 159.871 205.197 160.319C204.751 160.767 204.145 161.019 203.514 161.019Z" fill="#E6E6E6"/>
<path id="Vector_28" d="M114.767 135.643C120.346 135.643 124.869 131.101 124.869 125.498C124.869 119.895 120.346 115.354 114.767 115.354C109.188 115.354 104.665 119.895 104.665 125.498C104.665 131.101 109.188 135.643 114.767 135.643Z" fill="#E6E6E6"/>
<path id="Vector_29" d="M114.767 164.883C120.346 164.883 124.869 160.341 124.869 154.738C124.869 149.135 120.346 144.594 114.767 144.594C109.188 144.594 104.665 149.135 104.665 154.738C104.665 160.341 109.188 164.883 114.767 164.883Z" fill="#E6E6E6"/>
<path id="Vector_30" d="M193.691 182.189H137.146C136.515 182.189 135.909 181.937 135.463 181.489C135.016 181.041 134.765 180.432 134.765 179.798C134.765 179.164 135.016 178.556 135.463 178.107C135.909 177.659 136.515 177.407 137.146 177.407H193.691C194.323 177.407 194.928 177.659 195.375 178.107C195.821 178.556 196.072 179.164 196.072 179.798C196.072 180.432 195.821 181.041 195.375 181.489C194.928 181.937 194.323 182.189 193.691 182.189Z" fill="#E6E6E6"/>
<path id="Vector_31" d="M203.514 190.259H137.146C136.515 190.259 135.909 190.008 135.463 189.559C135.016 189.111 134.765 188.503 134.765 187.868C134.765 187.234 135.016 186.626 135.463 186.178C135.909 185.729 136.515 185.477 137.146 185.477H203.514C204.145 185.477 204.751 185.729 205.197 186.178C205.644 186.626 205.895 187.234 205.895 187.868C205.895 188.503 205.644 189.111 205.197 189.559C204.751 190.008 204.145 190.259 203.514 190.259Z" fill="#E6E6E6"/>
<path id="Vector_32" d="M114.767 194.123C120.346 194.123 124.869 189.581 124.869 183.978C124.869 178.375 120.346 173.834 114.767 173.834C109.188 173.834 104.665 178.375 104.665 183.978C104.665 189.581 109.188 194.123 114.767 194.123Z" fill="#E6E6E6"/>
<path id="Vector_33" d="M59.6997 121.383L54.7792 123.069L54.7019 115.935L59.1797 115.884L59.6997 121.383Z" fill="#F3A3A6"/>
<path id="Vector_34" d="M55.2784 117.904C57.9959 117.904 60.1989 115.692 60.1989 112.963C60.1989 110.234 57.9959 108.022 55.2784 108.022C52.5609 108.022 50.3579 110.234 50.3579 112.963C50.3579 115.692 52.5609 117.904 55.2784 117.904Z" fill="#F3A3A6"/>
<path id="Vector_35" d="M56.6244 112.459C55.8014 112.444 55.2517 111.614 54.9219 110.853C54.592 110.096 54.2533 109.221 53.4897 108.914C52.8627 108.663 51.7812 110.415 51.282 109.958C50.762 109.481 51.2374 106.993 51.7782 106.542C52.319 106.091 53.0648 105.996 53.766 105.954C55.4805 105.856 57.2038 105.975 58.8886 106.309C59.9285 106.515 61.0041 106.831 61.7618 107.577C62.7216 108.523 62.9801 109.964 63.0633 111.313C63.1494 112.691 63.0841 114.138 62.4304 115.356C61.7737 116.57 60.3861 117.477 59.0401 117.185C58.8975 116.454 59.0252 115.702 59.0698 114.956C59.1144 114.213 59.049 113.41 58.5914 112.823C58.1339 112.235 57.1652 112.011 56.6452 112.542" fill="#2F2E43"/>
<path id="Vector_36" d="M62.6948 114.103C63.1821 113.736 63.7674 113.425 64.3736 113.494C65.0302 113.566 65.5888 114.103 65.7641 114.741C65.9395 115.38 65.7582 116.087 65.36 116.615C64.9619 117.143 64.3647 117.495 63.7288 117.674C63.3603 117.779 62.9592 117.823 62.6056 117.674C62.0857 117.456 61.8004 116.797 61.9965 116.266" fill="#2F2E43"/>
<path id="uuid-aacd27ab-43c3-4d3d-aa57-4e8c94c3c81e-490" d="M44.3855 160.782C44.0765 162.408 44.6915 163.885 45.7642 164.079C46.8339 164.273 47.954 163.11 48.2631 161.483C48.3968 160.836 48.3671 160.165 48.1769 159.529L51.9624 134.046L46.8636 133.141L45.1848 158.989C44.7747 159.517 44.4984 160.132 44.3855 160.785V160.782Z" fill="#F3A3A6"/>
<path id="Vector_37" d="M54.6901 119.795L51.2166 119.834C48.7653 120.234 48.1116 121.559 47.5827 123.993C46.7715 127.708 45.7375 132.658 45.9544 132.727C46.3021 132.84 52.2447 135.567 55.2517 134.893L54.6901 119.795Z" fill="#6C63FF"/>
<path id="Vector_38" d="M58.9555 200.788L54.3324 200.84L54.4056 207.424L59.0287 207.372L58.9555 200.788Z" fill="#F3A3A6"/>
<path id="Vector_39" d="M49.9359 211.463C49.4486 211.469 49.0178 211.463 48.6909 211.436C47.4608 211.338 46.2812 210.44 45.6839 209.915C45.4165 209.679 45.3274 209.297 45.4611 208.969C45.5562 208.733 45.7523 208.554 45.9959 208.479L49.2317 207.513L54.4463 203.894L54.5058 203.998C54.5295 204.037 55.0555 204.965 55.2337 205.594C55.3021 205.833 55.2872 206.033 55.1892 206.188C55.1208 206.295 55.0258 206.358 54.9485 206.397C55.0436 206.495 55.3437 206.695 56.2648 206.832C57.6049 207.032 57.8752 205.633 57.8842 205.573L57.8931 205.526L57.9317 205.499C58.5646 205.078 58.9538 204.887 59.0905 204.926C59.1767 204.95 59.3163 204.992 59.7383 208.787C59.7769 208.906 60.0532 209.777 59.8809 210.616C59.6937 211.529 55.7329 211.257 54.9426 211.195C54.9188 211.198 51.9594 211.442 49.9299 211.463H49.9359Z" fill="#2F2E43"/>
<path id="Vector_40" d="M72.0619 195.456L68.1665 197.957L71.6986 203.505L75.594 201.004L72.0619 195.456Z" fill="#F3A3A6"/>
<path id="Vector_41" d="M67.0062 210.368C66.4624 210.374 65.9632 210.314 65.6067 210.255C65.2561 210.195 64.9797 209.921 64.9203 209.569C64.8757 209.315 64.95 209.061 65.1164 208.87L67.3508 206.331L69.8675 200.489L69.9745 200.546C70.0131 200.567 70.9491 201.074 71.4334 201.513C71.6177 201.68 71.7098 201.856 71.7098 202.041C71.7098 202.169 71.6622 202.273 71.6147 202.345C71.7484 202.378 72.1079 202.387 72.9607 202.014C74.2027 201.471 73.6946 200.14 73.6708 200.086L73.653 200.042L73.6738 200C73.9888 199.308 74.2205 198.938 74.3542 198.896C74.4404 198.872 74.5801 198.83 76.9393 201.826C77.0344 201.906 77.7297 202.497 78.0238 203.3C78.3447 204.174 74.8445 206.048 74.1373 206.415C74.1165 206.433 70.4588 209.163 68.9554 209.944C68.3581 210.255 67.648 210.356 67.0002 210.362L67.0062 210.368Z" fill="#2F2E43"/>
<path id="Vector_42" d="M61.7409 145.67L48.7979 145.813L47.7579 157.915L53.3915 202.533L59.9998 202.458L57.073 176.685L68.0491 199.863L73.8758 195.667L65.2649 174.012C65.2649 174.012 68.0461 155.033 65.6453 150.339C63.2444 145.646 61.7439 145.664 61.7439 145.664V145.67H61.7409Z" fill="#2F2E43"/>
<path id="Vector_43" d="M68.1858 146.335L47.6302 146.565L53.5016 119.81L62.4601 119.709L68.1858 146.335Z" fill="#6C63FF"/>
<path id="uuid-36382701-bf34-46f2-bbf2-9fa794ab079f-491" d="M70.1944 160.496C70.5391 162.116 69.9567 163.605 68.89 163.823C67.8233 164.04 66.6793 162.904 66.3347 161.284C66.1861 160.639 66.2009 159.968 66.3763 159.326L62.0262 133.932L67.1042 132.915L69.3535 158.721C69.7754 159.24 70.0637 159.848 70.1944 160.499V160.496Z" fill="#F3A3A6"/>
<path id="Vector_44" d="M58.9866 119.748L62.46 119.709C64.9203 120.055 65.6007 121.365 66.1861 123.788C67.0775 127.484 68.2214 132.407 68.0075 132.482C67.6598 132.601 61.7826 135.46 58.7607 134.854L58.9895 119.748H58.9866Z" fill="#6C63FF"/>
</g>
<defs>
<clipPath id="clip0_58_10083">
<rect width="224" height="210" fill="white"/>
</clipPath>
</defs>
</svg>
