<svg width="600" height="536" viewBox="0 0 600 536" fill="none" xmlns="http://www.w3.org/2000/svg">
<path d="M562.566 254.556H387.322C385.115 254.554 383 253.676 381.44 252.116C379.88 250.556 379.002 248.441 379 246.234V8.32203C379.002 6.11566 379.88 4.00035 381.44 2.4402C383 0.880055 385.115 0.00248313 387.322 0H562.566C564.773 0.00248313 566.888 0.880055 568.448 2.4402C570.008 4.00035 570.886 6.11566 570.888 8.32203V246.234C570.886 248.441 570.008 250.556 568.448 252.116C566.888 253.676 564.773 254.554 562.566 254.556Z" fill="white"/>
<path d="M420.487 85.313C418.608 85.3146 416.739 85.0517 414.933 84.5322C414.721 84.4726 414.498 84.4048 414.274 84.3314C413.016 83.9219 411.802 83.3886 410.649 82.7394C410.433 82.6181 410.216 82.4902 409.987 82.3487C408.847 81.6477 407.781 80.8345 406.803 79.9213C406.641 79.7708 406.482 79.6163 406.325 79.462C403.25 76.396 401.253 72.4148 400.634 68.1167C400.015 63.8185 400.807 59.4355 402.891 55.626C404.976 51.8165 408.24 48.7862 412.193 46.9905C416.147 45.1947 420.577 44.7304 424.817 45.6674C429.057 46.6043 432.879 48.8918 435.708 52.1863C438.537 55.4808 440.22 59.6044 440.506 63.9376C440.791 68.2707 439.662 72.5795 437.29 76.2165C434.917 79.8536 431.429 82.6225 427.348 84.1074C427.275 84.1342 427.199 84.1613 427.123 84.1883C424.991 84.9352 422.747 85.3154 420.487 85.313ZM420.487 46.2532C416.727 46.2533 413.052 47.3692 409.927 49.4594C406.802 51.5496 404.367 54.5202 402.931 57.995C401.495 61.4699 401.122 65.2927 401.86 68.9795C402.598 72.6663 404.413 76.0513 407.076 78.7058C407.223 78.8514 407.376 78.9988 407.53 79.1427C408.456 80.0076 409.466 80.7777 410.545 81.4417C410.763 81.5757 410.967 81.6963 411.171 81.8107C412.263 82.4257 413.413 82.9308 414.605 83.3186C414.816 83.3877 415.024 83.4512 415.225 83.5077C419.014 84.595 423.046 84.4819 426.768 83.1841L426.983 83.1066C431.18 81.5788 434.705 78.6211 436.938 74.7529C439.171 70.8847 439.971 66.3533 439.195 61.9545C438.42 57.5557 436.119 53.5707 432.698 50.6993C429.277 47.828 424.954 46.2537 420.487 46.2532Z" fill="#CCCCCC"/>
<path d="M528.641 61.7905H479.053C478.012 61.7905 477.014 61.3772 476.279 60.6415C475.543 59.9057 475.13 58.9079 475.13 57.8674C475.13 56.8269 475.543 55.829 476.279 55.0933C477.014 54.3575 478.012 53.9442 479.053 53.9442H528.641C529.681 53.9442 530.679 54.3575 531.415 55.0933C532.151 55.829 532.564 56.8269 532.564 57.8674C532.564 58.9079 532.151 59.9057 531.415 60.6415C530.679 61.3772 529.681 61.7905 528.641 61.7905Z" fill="#2814FB"/>
<path d="M544.823 75.0312H479.053C478.012 75.0312 477.014 74.6179 476.279 73.8822C475.543 73.1464 475.13 72.1486 475.13 71.1081C475.13 70.0676 475.543 69.0697 476.279 68.334C477.014 67.5983 478.012 67.1849 479.053 67.1849H544.823C545.864 67.1849 546.861 67.5983 547.597 68.334C548.333 69.0697 548.746 70.0676 548.746 71.1081C548.746 72.1486 548.333 73.1464 547.597 73.8822C546.861 74.6179 545.864 75.0312 544.823 75.0312Z" fill="#2814FB"/>
<path d="M528.569 125.815H405.065C404.024 125.815 403.026 125.401 402.291 124.666C401.555 123.93 401.142 122.932 401.142 121.891C401.142 120.851 401.555 119.853 402.291 119.117C403.026 118.382 404.024 117.968 405.065 117.968H528.569C529.609 117.968 530.607 118.382 531.343 119.117C532.079 119.853 532.492 120.851 532.492 121.891C532.492 122.932 532.079 123.93 531.343 124.666C530.607 125.401 529.609 125.815 528.569 125.815Z" fill="#CCCCCC"/>
<path d="M544.751 139.055H405.065C404.024 139.055 403.026 138.642 402.291 137.906C401.555 137.171 401.142 136.173 401.142 135.132C401.142 134.092 401.555 133.094 402.291 132.358C403.026 131.622 404.024 131.209 405.065 131.209H544.751C545.792 131.209 546.789 131.622 547.525 132.358C548.261 133.094 548.674 134.092 548.674 135.132C548.674 136.173 548.261 137.171 547.525 137.906C546.789 138.642 545.792 139.055 544.751 139.055Z" fill="#CCCCCC"/>
<path d="M528.569 169.487H405.065C404.025 169.486 403.028 169.072 402.294 168.337C401.559 167.601 401.146 166.604 401.146 165.564C401.146 164.525 401.559 163.528 402.294 162.792C403.028 162.056 404.025 161.642 405.065 161.641H528.569C529.609 161.641 530.607 162.054 531.343 162.79C532.079 163.526 532.492 164.524 532.492 165.564C532.492 166.605 532.079 167.603 531.343 168.338C530.607 169.074 529.609 169.487 528.569 169.487Z" fill="#CCCCCC"/>
<path d="M544.751 182.728H405.065C404.025 182.727 403.028 182.313 402.294 181.577C401.559 180.842 401.146 179.845 401.146 178.805C401.146 177.765 401.559 176.768 402.294 176.033C403.028 175.297 404.025 174.883 405.065 174.882H544.751C545.792 174.882 546.79 175.295 547.525 176.031C548.261 176.767 548.674 177.764 548.674 178.805C548.674 179.845 548.261 180.843 547.525 181.579C546.79 182.315 545.792 182.728 544.751 182.728Z" fill="#CCCCCC"/>
<path d="M528.569 213.16H405.065C404.024 213.16 403.026 212.747 402.291 212.011C401.555 211.275 401.142 210.278 401.142 209.237C401.142 208.197 401.555 207.199 402.291 206.463C403.026 205.727 404.024 205.314 405.065 205.314H528.569C529.609 205.314 530.607 205.727 531.343 206.463C532.079 207.199 532.492 208.197 532.492 209.237C532.492 210.278 532.079 211.275 531.343 212.011C530.607 212.747 529.609 213.16 528.569 213.16Z" fill="#CCCCCC"/>
<path d="M544.751 226.401H405.065C404.024 226.401 403.026 225.988 402.291 225.252C401.555 224.516 401.142 223.518 401.142 222.478C401.142 221.437 401.555 220.439 402.291 219.704C403.026 218.968 404.024 218.555 405.065 218.555H544.751C545.792 218.555 546.789 218.968 547.525 219.704C548.261 220.439 548.674 221.437 548.674 222.478C548.674 223.518 548.261 224.516 547.525 225.252C546.789 225.988 545.792 226.401 544.751 226.401Z" fill="#CCCCCC"/>
<path d="M560.533 200.382C555.453 200.376 550.423 201.372 545.728 203.311C541.034 205.251 536.768 208.098 533.174 211.687C529.581 215.277 526.73 219.54 524.784 224.233C522.839 228.925 521.838 233.955 521.838 239.035C521.838 244.114 522.839 249.144 524.784 253.836C526.729 258.529 529.58 262.792 533.174 266.382C536.768 269.972 541.034 272.818 545.728 274.758C550.422 276.698 555.453 277.693 560.533 277.688C570.772 277.67 580.586 273.589 587.819 266.342C595.053 259.096 599.116 249.274 599.116 239.035C599.116 228.795 595.053 218.974 587.819 211.727C580.586 204.48 570.772 200.4 560.533 200.382Z" fill="#5E4FFC"/>
<path d="M556.865 255.088C555.848 255.089 554.857 254.76 554.043 254.15L553.993 254.112L543.364 245.981C542.371 245.218 541.721 244.092 541.558 242.851C541.394 241.609 541.73 240.354 542.492 239.36C543.254 238.367 544.379 237.716 545.62 237.551C546.861 237.387 548.117 237.722 549.111 238.483L555.996 243.763L572.265 222.537C572.642 222.045 573.113 221.632 573.65 221.322C574.187 221.011 574.779 220.81 575.394 220.729C576.009 220.647 576.633 220.688 577.232 220.848C577.831 221.009 578.393 221.285 578.885 221.662L578.886 221.664L578.785 221.804L578.889 221.664C579.882 222.427 580.531 223.552 580.695 224.794C580.859 226.035 580.523 227.291 579.762 228.285L560.627 253.24C560.184 253.815 559.615 254.28 558.963 254.599C558.312 254.919 557.595 255.084 556.87 255.082L556.865 255.088Z" fill="white"/>
<path d="M2.43359 321.867C3.77763 321.867 4.86718 320.778 4.86718 319.434C4.86718 318.09 3.77763 317 2.43359 317C1.08955 317 0 318.09 0 319.434C0 320.778 1.08955 321.867 2.43359 321.867Z" fill="#725FEC"/>
<path d="M24.3218 321.867C25.6658 321.867 26.7554 320.778 26.7554 319.434C26.7554 318.09 25.6658 317 24.3218 317C22.9777 317 21.8882 318.09 21.8882 319.434C21.8882 320.778 22.9777 321.867 24.3218 321.867Z" fill="#725FEC"/>
<path d="M46.2095 321.867C47.5535 321.867 48.6431 320.778 48.6431 319.434C48.6431 318.09 47.5535 317 46.2095 317C44.8654 317 43.7759 318.09 43.7759 319.434C43.7759 320.778 44.8654 321.867 46.2095 321.867Z" fill="#725FEC"/>
<path d="M70.531 319.434C70.531 320.773 69.4366 321.867 68.0974 321.867C66.7582 321.867 65.6638 320.773 65.6638 319.434C65.6638 318.094 66.7582 317 68.0974 317C69.4366 317 70.531 318.094 70.531 319.434Z" fill="#725FEC"/>
<path d="M92.4189 319.434C92.4189 320.773 91.3245 321.867 89.9854 321.867C88.6462 321.867 87.5518 320.773 87.5518 319.434C87.5518 318.094 88.6462 317 89.9854 317C91.3245 317 92.4189 318.094 92.4189 319.434Z" fill="#725FEC"/>
<path d="M111.873 321.867C113.217 321.867 114.307 320.778 114.307 319.434C114.307 318.09 113.217 317 111.873 317C110.529 317 109.44 318.09 109.44 319.434C109.44 320.778 110.529 321.867 111.873 321.867Z" fill="#725FEC"/>
<path d="M133.761 321.867C135.105 321.867 136.195 320.778 136.195 319.434C136.195 318.09 135.105 317 133.761 317C132.417 317 131.328 318.09 131.328 319.434C131.328 320.778 132.417 321.867 133.761 321.867Z" fill="#725FEC"/>
<path d="M155.649 321.867C156.993 321.867 158.083 320.778 158.083 319.434C158.083 318.09 156.993 317 155.649 317C154.305 317 153.216 318.09 153.216 319.434C153.216 320.778 154.305 321.867 155.649 321.867Z" fill="#725FEC"/>
<path d="M177.537 321.867C178.881 321.867 179.971 320.778 179.971 319.434C179.971 318.09 178.881 317 177.537 317C176.193 317 175.104 318.09 175.104 319.434C175.104 320.778 176.193 321.867 177.537 321.867Z" fill="#725FEC"/>
<path d="M199.425 321.867C200.769 321.867 201.859 320.778 201.859 319.434C201.859 318.09 200.769 317 199.425 317C198.081 317 196.991 318.09 196.991 319.434C196.991 320.778 198.081 321.867 199.425 321.867Z" fill="#725FEC"/>
<path d="M221.313 321.867C222.657 321.867 223.747 320.778 223.747 319.434C223.747 318.09 222.657 317 221.313 317C219.969 317 218.879 318.09 218.879 319.434C218.879 320.778 219.969 321.867 221.313 321.867Z" fill="#725FEC"/>
<path d="M2.43383 341.322C3.77787 341.322 4.86743 340.232 4.86743 338.888C4.86743 337.544 3.77787 336.454 2.43383 336.454C1.0898 336.454 0.000244141 337.544 0.000244141 338.888C0.000244141 340.232 1.0898 341.322 2.43383 341.322Z" fill="#725FEC"/>
<path d="M24.3218 341.322C25.6658 341.322 26.7554 340.232 26.7554 338.888C26.7554 337.544 25.6658 336.454 24.3218 336.454C22.9777 336.454 21.8882 337.544 21.8882 338.888C21.8882 340.232 22.9777 341.322 24.3218 341.322Z" fill="#725FEC"/>
<path d="M46.2097 341.322C47.5538 341.322 48.6433 340.232 48.6433 338.888C48.6433 337.544 47.5538 336.454 46.2097 336.454C44.8657 336.454 43.7761 337.544 43.7761 338.888C43.7761 340.232 44.8657 341.322 46.2097 341.322Z" fill="#725FEC"/>
<path d="M70.5312 338.888C70.5312 340.227 69.4368 341.322 68.0976 341.322C66.7585 341.322 65.6641 340.227 65.6641 338.888C65.6641 337.549 66.7585 336.454 68.0976 336.454C69.4368 336.454 70.5312 337.549 70.5312 338.888Z" fill="#725FEC"/>
<path d="M92.4192 338.888C92.4192 340.227 91.3248 341.322 89.9856 341.322C88.6464 341.322 87.552 340.227 87.552 338.888C87.552 337.549 88.6464 336.454 89.9856 336.454C91.3248 336.454 92.4192 337.549 92.4192 338.888Z" fill="#725FEC"/>
<path d="M111.874 341.322C113.218 341.322 114.307 340.232 114.307 338.888C114.307 337.544 113.218 336.454 111.874 336.454C110.53 336.454 109.44 337.544 109.44 338.888C109.44 340.232 110.53 341.322 111.874 341.322Z" fill="#725FEC"/>
<path d="M133.761 341.322C135.106 341.322 136.195 340.232 136.195 338.888C136.195 337.544 135.106 336.454 133.761 336.454C132.417 336.454 131.328 337.544 131.328 338.888C131.328 340.232 132.417 341.322 133.761 341.322Z" fill="#725FEC"/>
<path d="M155.649 341.322C156.993 341.322 158.083 340.232 158.083 338.888C158.083 337.544 156.993 336.454 155.649 336.454C154.305 336.454 153.216 337.544 153.216 338.888C153.216 340.232 154.305 341.322 155.649 341.322Z" fill="#725FEC"/>
<path d="M177.537 341.322C178.881 341.322 179.971 340.232 179.971 338.888C179.971 337.544 178.881 336.454 177.537 336.454C176.193 336.454 175.104 337.544 175.104 338.888C175.104 340.232 176.193 341.322 177.537 341.322Z" fill="#725FEC"/>
<path d="M199.425 341.322C200.769 341.322 201.859 340.232 201.859 338.888C201.859 337.544 200.769 336.454 199.425 336.454C198.081 336.454 196.992 337.544 196.992 338.888C196.992 340.232 198.081 341.322 199.425 341.322Z" fill="#725FEC"/>
<path d="M221.313 341.322C222.658 341.322 223.747 340.232 223.747 338.888C223.747 337.544 222.658 336.454 221.313 336.454C219.969 336.454 218.88 337.544 218.88 338.888C218.88 340.232 219.969 341.322 221.313 341.322Z" fill="#725FEC"/>
<path d="M2.43383 360.776C3.77787 360.776 4.86743 359.686 4.86743 358.342C4.86743 356.998 3.77787 355.909 2.43383 355.909C1.0898 355.909 0.000244141 356.998 0.000244141 358.342C0.000244141 359.686 1.0898 360.776 2.43383 360.776Z" fill="#725FEC"/>
<path d="M24.3218 360.776C25.6658 360.776 26.7554 359.686 26.7554 358.342C26.7554 356.998 25.6658 355.909 24.3218 355.909C22.9777 355.909 21.8882 356.998 21.8882 358.342C21.8882 359.686 22.9777 360.776 24.3218 360.776Z" fill="#725FEC"/>
<path d="M46.2097 360.776C47.5538 360.776 48.6433 359.686 48.6433 358.342C48.6433 356.998 47.5538 355.909 46.2097 355.909C44.8657 355.909 43.7761 356.998 43.7761 358.342C43.7761 359.686 44.8657 360.776 46.2097 360.776Z" fill="#725FEC"/>
<path d="M70.5312 358.342C70.5312 359.682 69.4368 360.776 68.0976 360.776C66.7585 360.776 65.6641 359.682 65.6641 358.342C65.6641 357.003 66.7585 355.909 68.0976 355.909C69.4368 355.909 70.5312 357.003 70.5312 358.342Z" fill="#725FEC"/>
<path d="M92.4192 358.342C92.4192 359.682 91.3248 360.776 89.9856 360.776C88.6464 360.776 87.552 359.682 87.552 358.342C87.552 357.003 88.6464 355.909 89.9856 355.909C91.3248 355.909 92.4192 357.003 92.4192 358.342Z" fill="#725FEC"/>
<path d="M111.874 360.776C113.218 360.776 114.307 359.686 114.307 358.342C114.307 356.998 113.218 355.909 111.874 355.909C110.53 355.909 109.44 356.998 109.44 358.342C109.44 359.686 110.53 360.776 111.874 360.776Z" fill="#725FEC"/>
<path d="M133.761 360.776C135.106 360.776 136.195 359.686 136.195 358.342C136.195 356.998 135.106 355.909 133.761 355.909C132.417 355.909 131.328 356.998 131.328 358.342C131.328 359.686 132.417 360.776 133.761 360.776Z" fill="#725FEC"/>
<path d="M155.649 360.776C156.993 360.776 158.083 359.686 158.083 358.342C158.083 356.998 156.993 355.909 155.649 355.909C154.305 355.909 153.216 356.998 153.216 358.342C153.216 359.686 154.305 360.776 155.649 360.776Z" fill="#725FEC"/>
<path d="M177.537 360.776C178.881 360.776 179.971 359.686 179.971 358.342C179.971 356.998 178.881 355.909 177.537 355.909C176.193 355.909 175.104 356.998 175.104 358.342C175.104 359.686 176.193 360.776 177.537 360.776Z" fill="#725FEC"/>
<path d="M199.425 360.776C200.769 360.776 201.859 359.686 201.859 358.342C201.859 356.998 200.769 355.909 199.425 355.909C198.081 355.909 196.992 356.998 196.992 358.342C196.992 359.686 198.081 360.776 199.425 360.776Z" fill="#725FEC"/>
<path d="M221.313 360.776C222.658 360.776 223.747 359.686 223.747 358.342C223.747 356.998 222.658 355.909 221.313 355.909C219.969 355.909 218.88 356.998 218.88 358.342C218.88 359.686 219.969 360.776 221.313 360.776Z" fill="#725FEC"/>
<path d="M4.86743 377.797C4.86743 379.136 3.77303 380.23 2.43383 380.23C1.09464 380.23 0.000244141 379.136 0.000244141 377.797C0.000244141 376.458 1.09464 375.363 2.43383 375.363C3.77303 375.363 4.86743 376.458 4.86743 377.797Z" fill="#725FEC"/>
<path d="M26.7554 377.797C26.7554 379.136 25.661 380.23 24.3218 380.23C22.9826 380.23 21.8882 379.136 21.8882 377.797C21.8882 376.458 22.9826 375.363 24.3218 375.363C25.661 375.363 26.7554 376.458 26.7554 377.797Z" fill="#725FEC"/>
<path d="M48.6433 377.797C48.6433 379.136 47.5489 380.23 46.2097 380.23C44.8705 380.23 43.7761 379.136 43.7761 377.797C43.7761 376.458 44.8705 375.363 46.2097 375.363C47.5489 375.363 48.6433 376.458 48.6433 377.797Z" fill="#725FEC"/>
<path d="M70.5312 377.797C70.5312 379.136 69.4368 380.23 68.0976 380.23C66.7585 380.23 65.6641 379.136 65.6641 377.797C65.6641 376.458 66.7585 375.363 68.0976 375.363C69.4368 375.363 70.5312 376.458 70.5312 377.797Z" fill="#725FEC"/>
<path d="M92.4192 377.797C92.4192 379.136 91.3248 380.23 89.9856 380.23C88.6464 380.23 87.552 379.136 87.552 377.797C87.552 376.458 88.6464 375.363 89.9856 375.363C91.3248 375.363 92.4192 376.458 92.4192 377.797Z" fill="#725FEC"/>
<path d="M114.307 377.797C114.307 379.136 113.213 380.23 111.874 380.23C110.534 380.23 109.44 379.136 109.44 377.797C109.44 376.458 110.534 375.363 111.874 375.363C113.213 375.363 114.307 376.458 114.307 377.797Z" fill="#725FEC"/>
<path d="M136.195 377.797C136.195 379.136 135.101 380.23 133.761 380.23C132.422 380.23 131.328 379.136 131.328 377.797C131.328 376.458 132.422 375.363 133.761 375.363C135.101 375.363 136.195 376.458 136.195 377.797Z" fill="#725FEC"/>
<path d="M158.083 377.797C158.083 379.136 156.989 380.23 155.649 380.23C154.31 380.23 153.216 379.136 153.216 377.797C153.216 376.458 154.31 375.363 155.649 375.363C156.989 375.363 158.083 376.458 158.083 377.797Z" fill="#725FEC"/>
<path d="M179.971 377.797C179.971 379.136 178.877 380.23 177.537 380.23C176.198 380.23 175.104 379.136 175.104 377.797C175.104 376.458 176.198 375.363 177.537 375.363C178.877 375.363 179.971 376.458 179.971 377.797Z" fill="#725FEC"/>
<path d="M201.859 377.797C201.859 379.136 200.764 380.23 199.425 380.23C198.086 380.23 196.992 379.136 196.992 377.797C196.992 376.458 198.086 375.363 199.425 375.363C200.764 375.363 201.859 376.458 201.859 377.797Z" fill="#725FEC"/>
<path d="M223.747 377.797C223.747 379.136 222.653 380.23 221.313 380.23C219.974 380.23 218.88 379.136 218.88 377.797C218.88 376.458 219.974 375.363 221.313 375.363C222.653 375.363 223.747 376.458 223.747 377.797Z" fill="#725FEC"/>
<path d="M4.86743 397.251C4.86743 398.59 3.77303 399.685 2.43383 399.685C1.09464 399.685 0.000244141 398.59 0.000244141 397.251C0.000244141 395.912 1.09464 394.818 2.43383 394.818C3.77303 394.818 4.86743 395.912 4.86743 397.251Z" fill="#725FEC"/>
<path d="M26.7554 397.251C26.7554 398.59 25.661 399.685 24.3218 399.685C22.9826 399.685 21.8882 398.59 21.8882 397.251C21.8882 395.912 22.9826 394.818 24.3218 394.818C25.661 394.818 26.7554 395.912 26.7554 397.251Z" fill="#725FEC"/>
<path d="M48.6433 397.251C48.6433 398.59 47.5489 399.685 46.2097 399.685C44.8705 399.685 43.7761 398.59 43.7761 397.251C43.7761 395.912 44.8705 394.818 46.2097 394.818C47.5489 394.818 48.6433 395.912 48.6433 397.251Z" fill="#725FEC"/>
<path d="M70.5312 397.251C70.5312 398.59 69.4368 399.685 68.0976 399.685C66.7585 399.685 65.6641 398.59 65.6641 397.251C65.6641 395.912 66.7585 394.818 68.0976 394.818C69.4368 394.818 70.5312 395.912 70.5312 397.251Z" fill="#725FEC"/>
<path d="M92.4192 397.251C92.4192 398.59 91.3248 399.685 89.9856 399.685C88.6464 399.685 87.552 398.59 87.552 397.251C87.552 395.912 88.6464 394.818 89.9856 394.818C91.3248 394.818 92.4192 395.912 92.4192 397.251Z" fill="#725FEC"/>
<path d="M114.307 397.251C114.307 398.59 113.213 399.685 111.874 399.685C110.534 399.685 109.44 398.59 109.44 397.251C109.44 395.912 110.534 394.818 111.874 394.818C113.213 394.818 114.307 395.912 114.307 397.251Z" fill="#725FEC"/>
<path d="M136.195 397.251C136.195 398.59 135.101 399.685 133.761 399.685C132.422 399.685 131.328 398.59 131.328 397.251C131.328 395.912 132.422 394.818 133.761 394.818C135.101 394.818 136.195 395.912 136.195 397.251Z" fill="#725FEC"/>
<path d="M158.083 397.251C158.083 398.59 156.989 399.685 155.649 399.685C154.31 399.685 153.216 398.59 153.216 397.251C153.216 395.912 154.31 394.818 155.649 394.818C156.989 394.818 158.083 395.912 158.083 397.251Z" fill="#725FEC"/>
<path d="M179.971 397.251C179.971 398.59 178.877 399.685 177.537 399.685C176.198 399.685 175.104 398.59 175.104 397.251C175.104 395.912 176.198 394.818 177.537 394.818C178.877 394.818 179.971 395.912 179.971 397.251Z" fill="#725FEC"/>
<path d="M201.859 397.251C201.859 398.59 200.764 399.685 199.425 399.685C198.086 399.685 196.992 398.59 196.992 397.251C196.992 395.912 198.086 394.818 199.425 394.818C200.764 394.818 201.859 395.912 201.859 397.251Z" fill="#725FEC"/>
<path d="M223.747 397.251C223.747 398.59 222.653 399.685 221.313 399.685C219.974 399.685 218.88 398.59 218.88 397.251C218.88 395.912 219.974 394.818 221.313 394.818C222.653 394.818 223.747 395.912 223.747 397.251Z" fill="#725FEC"/>
<path d="M4.86743 416.706C4.86743 418.045 3.77303 419.139 2.43383 419.139C1.09464 419.139 0.000244141 418.045 0.000244141 416.706C0.000244141 415.366 1.09464 414.272 2.43383 414.272C3.77303 414.272 4.86743 415.366 4.86743 416.706Z" fill="#725FEC"/>
<path d="M26.7554 416.706C26.7554 418.045 25.661 419.139 24.3218 419.139C22.9826 419.139 21.8882 418.045 21.8882 416.706C21.8882 415.366 22.9826 414.272 24.3218 414.272C25.661 414.272 26.7554 415.366 26.7554 416.706Z" fill="#725FEC"/>
<path d="M48.6433 416.706C48.6433 418.045 47.5489 419.139 46.2097 419.139C44.8705 419.139 43.7761 418.045 43.7761 416.706C43.7761 415.366 44.8705 414.272 46.2097 414.272C47.5489 414.272 48.6433 415.366 48.6433 416.706Z" fill="#725FEC"/>
<path d="M70.5312 416.706C70.5312 418.045 69.4368 419.139 68.0976 419.139C66.7585 419.139 65.6641 418.045 65.6641 416.706C65.6641 415.366 66.7585 414.272 68.0976 414.272C69.4368 414.272 70.5312 415.366 70.5312 416.706Z" fill="#725FEC"/>
<path d="M92.4192 416.706C92.4192 418.045 91.3248 419.139 89.9856 419.139C88.6464 419.139 87.552 418.045 87.552 416.706C87.552 415.366 88.6464 414.272 89.9856 414.272C91.3248 414.272 92.4192 415.366 92.4192 416.706Z" fill="#725FEC"/>
<path d="M114.307 416.706C114.307 418.045 113.213 419.139 111.874 419.139C110.534 419.139 109.44 418.045 109.44 416.706C109.44 415.366 110.534 414.272 111.874 414.272C113.213 414.272 114.307 415.366 114.307 416.706Z" fill="#725FEC"/>
<path d="M136.195 416.706C136.195 418.045 135.101 419.139 133.761 419.139C132.422 419.139 131.328 418.045 131.328 416.706C131.328 415.366 132.422 414.272 133.761 414.272C135.101 414.272 136.195 415.366 136.195 416.706Z" fill="#725FEC"/>
<path d="M158.083 416.706C158.083 418.045 156.989 419.139 155.649 419.139C154.31 419.139 153.216 418.045 153.216 416.706C153.216 415.366 154.31 414.272 155.649 414.272C156.989 414.272 158.083 415.366 158.083 416.706Z" fill="#725FEC"/>
<path d="M179.971 416.706C179.971 418.045 178.877 419.139 177.537 419.139C176.198 419.139 175.104 418.045 175.104 416.706C175.104 415.366 176.198 414.272 177.537 414.272C178.877 414.272 179.971 415.366 179.971 416.706Z" fill="#725FEC"/>
<path d="M201.859 416.706C201.859 418.045 200.764 419.139 199.425 419.139C198.086 419.139 196.992 418.045 196.992 416.706C196.992 415.366 198.086 414.272 199.425 414.272C200.764 414.272 201.859 415.366 201.859 416.706Z" fill="#725FEC"/>
<path d="M223.747 416.706C223.747 418.045 222.653 419.139 221.313 419.139C219.974 419.139 218.88 418.045 218.88 416.706C218.88 415.366 219.974 414.272 221.313 414.272C222.653 414.272 223.747 415.366 223.747 416.706Z" fill="#725FEC"/>
<path d="M2.43383 438.594C3.77787 438.594 4.86743 437.504 4.86743 436.16C4.86743 434.816 3.77787 433.726 2.43383 433.726C1.0898 433.726 0.000244141 434.816 0.000244141 436.16C0.000244141 437.504 1.0898 438.594 2.43383 438.594Z" fill="#725FEC"/>
<path d="M24.3218 438.594C25.6658 438.594 26.7554 437.504 26.7554 436.16C26.7554 434.816 25.6658 433.726 24.3218 433.726C22.9777 433.726 21.8882 434.816 21.8882 436.16C21.8882 437.504 22.9777 438.594 24.3218 438.594Z" fill="#725FEC"/>
<path d="M46.2097 438.594C47.5538 438.594 48.6433 437.504 48.6433 436.16C48.6433 434.816 47.5538 433.726 46.2097 433.726C44.8657 433.726 43.7761 434.816 43.7761 436.16C43.7761 437.504 44.8657 438.594 46.2097 438.594Z" fill="#725FEC"/>
<path d="M70.5312 436.16C70.5312 437.499 69.4368 438.594 68.0976 438.594C66.7585 438.594 65.6641 437.499 65.6641 436.16C65.6641 434.821 66.7585 433.726 68.0976 433.726C69.4368 433.741 70.5312 434.821 70.5312 436.16Z" fill="#725FEC"/>
<path d="M92.4192 436.16C92.4192 437.499 91.3248 438.594 89.9856 438.594C88.6464 438.594 87.552 437.499 87.552 436.16C87.552 434.821 88.6464 433.726 89.9856 433.726C91.3248 433.741 92.4192 434.821 92.4192 436.16Z" fill="#725FEC"/>
<path d="M111.874 438.594C113.218 438.594 114.307 437.504 114.307 436.16C114.307 434.816 113.218 433.726 111.874 433.726C110.53 433.726 109.44 434.816 109.44 436.16C109.44 437.504 110.53 438.594 111.874 438.594Z" fill="#725FEC"/>
<path d="M133.761 438.594C135.106 438.594 136.195 437.504 136.195 436.16C136.195 434.816 135.106 433.726 133.761 433.726C132.417 433.726 131.328 434.816 131.328 436.16C131.328 437.504 132.417 438.594 133.761 438.594Z" fill="#725FEC"/>
<path d="M155.649 438.594C156.993 438.594 158.083 437.504 158.083 436.16C158.083 434.816 156.993 433.726 155.649 433.726C154.305 433.726 153.216 434.816 153.216 436.16C153.216 437.504 154.305 438.594 155.649 438.594Z" fill="#725FEC"/>
<path d="M177.537 438.594C178.881 438.594 179.971 437.504 179.971 436.16C179.971 434.816 178.881 433.726 177.537 433.726C176.193 433.726 175.104 434.816 175.104 436.16C175.104 437.504 176.193 438.594 177.537 438.594Z" fill="#725FEC"/>
<path d="M199.425 438.594C200.769 438.594 201.859 437.504 201.859 436.16C201.859 434.816 200.769 433.726 199.425 433.726C198.081 433.726 196.992 434.816 196.992 436.16C196.992 437.504 198.081 438.594 199.425 438.594Z" fill="#725FEC"/>
<path d="M221.313 438.594C222.658 438.594 223.747 437.504 223.747 436.16C223.747 434.816 222.658 433.726 221.313 433.726C219.969 433.726 218.88 434.816 218.88 436.16C218.88 437.504 219.969 438.594 221.313 438.594Z" fill="#725FEC"/>
<path d="M4.86743 455.629C4.86743 456.968 3.77303 458.062 2.43383 458.062C1.09464 458.062 0.000244141 456.968 0.000244141 455.629C0.000244141 454.29 1.09464 453.195 2.43383 453.195C3.77303 453.195 4.86743 454.275 4.86743 455.629Z" fill="#725FEC"/>
<path d="M26.7554 455.629C26.7554 456.968 25.661 458.062 24.3218 458.062C22.9826 458.062 21.8882 456.968 21.8882 455.629C21.8882 454.29 22.9826 453.195 24.3218 453.195C25.661 453.195 26.7554 454.275 26.7554 455.629Z" fill="#725FEC"/>
<path d="M48.6433 455.629C48.6433 456.968 47.5489 458.062 46.2097 458.062C44.8705 458.062 43.7761 456.968 43.7761 455.629C43.7761 454.29 44.8705 453.195 46.2097 453.195C47.5489 453.195 48.6433 454.275 48.6433 455.629Z" fill="#725FEC"/>
<path d="M70.5312 455.629C70.5312 456.968 69.4368 458.062 68.0976 458.062C66.7585 458.062 65.6641 456.968 65.6641 455.629C65.6641 454.29 66.7585 453.195 68.0976 453.195C69.4368 453.195 70.5312 454.275 70.5312 455.629Z" fill="#725FEC"/>
<path d="M92.4192 455.629C92.4192 456.968 91.3248 458.062 89.9856 458.062C88.6464 458.062 87.552 456.968 87.552 455.629C87.552 454.29 88.6464 453.195 89.9856 453.195C91.3248 453.195 92.4192 454.275 92.4192 455.629Z" fill="#725FEC"/>
<path d="M114.307 455.629C114.307 456.968 113.213 458.062 111.874 458.062C110.534 458.062 109.44 456.968 109.44 455.629C109.44 454.29 110.534 453.195 111.874 453.195C113.213 453.195 114.307 454.275 114.307 455.629Z" fill="#725FEC"/>
<path d="M136.195 455.629C136.195 456.968 135.101 458.062 133.761 458.062C132.422 458.062 131.328 456.968 131.328 455.629C131.328 454.29 132.422 453.195 133.761 453.195C135.101 453.195 136.195 454.275 136.195 455.629Z" fill="#725FEC"/>
<path d="M158.083 455.629C158.083 456.968 156.989 458.062 155.649 458.062C154.31 458.062 153.216 456.968 153.216 455.629C153.216 454.29 154.31 453.195 155.649 453.195C156.989 453.195 158.083 454.275 158.083 455.629Z" fill="#725FEC"/>
<path d="M179.971 455.629C179.971 456.968 178.877 458.062 177.537 458.062C176.198 458.062 175.104 456.968 175.104 455.629C175.104 454.29 176.198 453.195 177.537 453.195C178.877 453.195 179.971 454.275 179.971 455.629Z" fill="#725FEC"/>
<path d="M201.859 455.629C201.859 456.968 200.764 458.062 199.425 458.062C198.086 458.062 196.992 456.968 196.992 455.629C196.992 454.29 198.086 453.195 199.425 453.195C200.764 453.195 201.859 454.275 201.859 455.629Z" fill="#725FEC"/>
<path d="M223.747 455.629C223.747 456.968 222.653 458.062 221.313 458.062C219.974 458.062 218.88 456.968 218.88 455.629C218.88 454.29 219.974 453.195 221.313 453.195C222.653 453.195 223.747 454.275 223.747 455.629Z" fill="#725FEC"/>
<path d="M4.86743 475.083C4.86743 476.422 3.77303 477.517 2.43383 477.517C1.09464 477.517 0.000244141 476.422 0.000244141 475.083C0.000244141 473.744 1.09464 472.65 2.43383 472.65C3.77303 472.65 4.86743 473.73 4.86743 475.083Z" fill="#725FEC"/>
<path d="M26.7554 475.083C26.7554 476.422 25.661 477.517 24.3218 477.517C22.9826 477.517 21.8882 476.422 21.8882 475.083C21.8882 473.744 22.9826 472.65 24.3218 472.65C25.661 472.65 26.7554 473.73 26.7554 475.083Z" fill="#725FEC"/>
<path d="M48.6433 475.083C48.6433 476.422 47.5489 477.517 46.2097 477.517C44.8705 477.517 43.7761 476.422 43.7761 475.083C43.7761 473.744 44.8705 472.65 46.2097 472.65C47.5489 472.65 48.6433 473.73 48.6433 475.083Z" fill="#725FEC"/>
<path d="M70.5312 475.083C70.5312 476.422 69.4368 477.517 68.0976 477.517C66.7585 477.517 65.6641 476.422 65.6641 475.083C65.6641 473.744 66.7585 472.65 68.0976 472.65C69.4368 472.65 70.5312 473.73 70.5312 475.083Z" fill="#725FEC"/>
<path d="M92.4192 475.083C92.4192 476.422 91.3248 477.517 89.9856 477.517C88.6464 477.517 87.552 476.422 87.552 475.083C87.552 473.744 88.6464 472.65 89.9856 472.65C91.3248 472.65 92.4192 473.73 92.4192 475.083Z" fill="#725FEC"/>
<path d="M114.307 475.083C114.307 476.422 113.213 477.517 111.874 477.517C110.534 477.517 109.44 476.422 109.44 475.083C109.44 473.744 110.534 472.65 111.874 472.65C113.213 472.65 114.307 473.73 114.307 475.083Z" fill="#725FEC"/>
<path d="M136.195 475.083C136.195 476.422 135.101 477.517 133.761 477.517C132.422 477.517 131.328 476.422 131.328 475.083C131.328 473.744 132.422 472.65 133.761 472.65C135.101 472.65 136.195 473.73 136.195 475.083Z" fill="#725FEC"/>
<path d="M158.083 475.083C158.083 476.422 156.989 477.517 155.649 477.517C154.31 477.517 153.216 476.422 153.216 475.083C153.216 473.744 154.31 472.65 155.649 472.65C156.989 472.65 158.083 473.73 158.083 475.083Z" fill="#725FEC"/>
<path d="M179.971 475.083C179.971 476.422 178.877 477.517 177.537 477.517C176.198 477.517 175.104 476.422 175.104 475.083C175.104 473.744 176.198 472.65 177.537 472.65C178.877 472.65 179.971 473.73 179.971 475.083Z" fill="#725FEC"/>
<path d="M201.859 475.083C201.859 476.422 200.764 477.517 199.425 477.517C198.086 477.517 196.992 476.422 196.992 475.083C196.992 473.744 198.086 472.65 199.425 472.65C200.764 472.65 201.859 473.73 201.859 475.083Z" fill="#725FEC"/>
<path d="M223.747 475.083C223.747 476.422 222.653 477.517 221.313 477.517C219.974 477.517 218.88 476.422 218.88 475.083C218.88 473.744 219.974 472.65 221.313 472.65C222.653 472.65 223.747 473.73 223.747 475.083Z" fill="#725FEC"/>
<path d="M4.86743 494.538C4.86743 495.877 3.77303 496.971 2.43383 496.971C1.09464 496.971 0.000244141 495.877 0.000244141 494.538C0.000244141 493.198 1.09464 492.104 2.43383 492.104C3.77303 492.104 4.86743 493.198 4.86743 494.538Z" fill="#725FEC"/>
<path d="M26.7554 494.538C26.7554 495.877 25.661 496.971 24.3218 496.971C22.9826 496.971 21.8882 495.877 21.8882 494.538C21.8882 493.198 22.9826 492.104 24.3218 492.104C25.661 492.104 26.7554 493.198 26.7554 494.538Z" fill="#725FEC"/>
<path d="M48.6433 494.538C48.6433 495.877 47.5489 496.971 46.2097 496.971C44.8705 496.971 43.7761 495.877 43.7761 494.538C43.7761 493.198 44.8705 492.104 46.2097 492.104C47.5489 492.104 48.6433 493.198 48.6433 494.538Z" fill="#725FEC"/>
<path d="M70.5312 494.538C70.5312 495.877 69.4368 496.971 68.0976 496.971C66.7585 496.971 65.6641 495.877 65.6641 494.538C65.6641 493.198 66.7585 492.104 68.0976 492.104C69.4368 492.104 70.5312 493.198 70.5312 494.538Z" fill="#725FEC"/>
<path d="M92.4192 494.538C92.4192 495.877 91.3248 496.971 89.9856 496.971C88.6464 496.971 87.552 495.877 87.552 494.538C87.552 493.198 88.6464 492.104 89.9856 492.104C91.3248 492.104 92.4192 493.198 92.4192 494.538Z" fill="#725FEC"/>
<path d="M114.307 494.538C114.307 495.877 113.213 496.971 111.874 496.971C110.534 496.971 109.44 495.877 109.44 494.538C109.44 493.198 110.534 492.104 111.874 492.104C113.213 492.104 114.307 493.198 114.307 494.538Z" fill="#725FEC"/>
<path d="M136.195 494.538C136.195 495.877 135.101 496.971 133.761 496.971C132.422 496.971 131.328 495.877 131.328 494.538C131.328 493.198 132.422 492.104 133.761 492.104C135.101 492.104 136.195 493.198 136.195 494.538Z" fill="#725FEC"/>
<path d="M158.083 494.538C158.083 495.877 156.989 496.971 155.649 496.971C154.31 496.971 153.216 495.877 153.216 494.538C153.216 493.198 154.31 492.104 155.649 492.104C156.989 492.104 158.083 493.198 158.083 494.538Z" fill="#725FEC"/>
<path d="M179.971 494.538C179.971 495.877 178.877 496.971 177.537 496.971C176.198 496.971 175.104 495.877 175.104 494.538C175.104 493.198 176.198 492.104 177.537 492.104C178.877 492.104 179.971 493.198 179.971 494.538Z" fill="#725FEC"/>
<path d="M201.859 494.538C201.859 495.877 200.764 496.971 199.425 496.971C198.086 496.971 196.992 495.877 196.992 494.538C196.992 493.198 198.086 492.104 199.425 492.104C200.764 492.104 201.859 493.198 201.859 494.538Z" fill="#725FEC"/>
<path d="M223.747 494.538C223.747 495.877 222.653 496.971 221.313 496.971C219.974 496.971 218.88 495.877 218.88 494.538C218.88 493.198 219.974 492.104 221.313 492.104C222.653 492.104 223.747 493.198 223.747 494.538Z" fill="#725FEC"/>
<path d="M2.43383 516.426C3.77787 516.426 4.86743 515.336 4.86743 513.992C4.86743 512.648 3.77787 511.558 2.43383 511.558C1.0898 511.558 0.000244141 512.648 0.000244141 513.992C0.000244141 515.336 1.0898 516.426 2.43383 516.426Z" fill="#725FEC"/>
<path d="M24.3218 516.426C25.6658 516.426 26.7554 515.336 26.7554 513.992C26.7554 512.648 25.6658 511.558 24.3218 511.558C22.9777 511.558 21.8882 512.648 21.8882 513.992C21.8882 515.336 22.9777 516.426 24.3218 516.426Z" fill="#725FEC"/>
<path d="M46.2097 516.426C47.5538 516.426 48.6433 515.336 48.6433 513.992C48.6433 512.648 47.5538 511.558 46.2097 511.558C44.8657 511.558 43.7761 512.648 43.7761 513.992C43.7761 515.336 44.8657 516.426 46.2097 516.426Z" fill="#725FEC"/>
<path d="M70.5312 513.992C70.5312 515.331 69.4368 516.426 68.0976 516.426C66.7585 516.426 65.6641 515.331 65.6641 513.992C65.6641 512.653 66.7585 511.558 68.0976 511.558C69.4368 511.558 70.5312 512.653 70.5312 513.992Z" fill="#725FEC"/>
<path d="M92.4192 513.992C92.4192 515.331 91.3248 516.426 89.9856 516.426C88.6464 516.426 87.552 515.331 87.552 513.992C87.552 512.653 88.6464 511.558 89.9856 511.558C91.3248 511.558 92.4192 512.653 92.4192 513.992Z" fill="#725FEC"/>
<path d="M111.874 516.426C113.218 516.426 114.307 515.336 114.307 513.992C114.307 512.648 113.218 511.558 111.874 511.558C110.53 511.558 109.44 512.648 109.44 513.992C109.44 515.336 110.53 516.426 111.874 516.426Z" fill="#725FEC"/>
<path d="M133.761 516.426C135.106 516.426 136.195 515.336 136.195 513.992C136.195 512.648 135.106 511.558 133.761 511.558C132.417 511.558 131.328 512.648 131.328 513.992C131.328 515.336 132.417 516.426 133.761 516.426Z" fill="#725FEC"/>
<path d="M155.649 516.426C156.993 516.426 158.083 515.336 158.083 513.992C158.083 512.648 156.993 511.558 155.649 511.558C154.305 511.558 153.216 512.648 153.216 513.992C153.216 515.336 154.305 516.426 155.649 516.426Z" fill="#725FEC"/>
<path d="M177.537 516.426C178.881 516.426 179.971 515.336 179.971 513.992C179.971 512.648 178.881 511.558 177.537 511.558C176.193 511.558 175.104 512.648 175.104 513.992C175.104 515.336 176.193 516.426 177.537 516.426Z" fill="#725FEC"/>
<path d="M199.425 516.426C200.769 516.426 201.859 515.336 201.859 513.992C201.859 512.648 200.769 511.558 199.425 511.558C198.081 511.558 196.992 512.648 196.992 513.992C196.992 515.336 198.081 516.426 199.425 516.426Z" fill="#725FEC"/>
<path d="M221.313 516.426C222.658 516.426 223.747 515.336 223.747 513.992C223.747 512.648 222.658 511.558 221.313 511.558C219.969 511.558 218.88 512.648 218.88 513.992C218.88 515.336 219.969 516.426 221.313 516.426Z" fill="#725FEC"/>
<path d="M4.86743 533.446C4.86743 534.786 3.77303 535.88 2.43383 535.88C1.09464 535.88 0.000244141 534.786 0.000244141 533.446C0.000244141 532.107 1.09464 531.013 2.43383 531.013C3.77303 531.013 4.86743 532.107 4.86743 533.446Z" fill="#725FEC"/>
<path d="M26.7554 533.446C26.7554 534.786 25.661 535.88 24.3218 535.88C22.9826 535.88 21.8882 534.786 21.8882 533.446C21.8882 532.107 22.9826 531.013 24.3218 531.013C25.661 531.013 26.7554 532.107 26.7554 533.446Z" fill="#725FEC"/>
<path d="M48.6433 533.446C48.6433 534.786 47.5489 535.88 46.2097 535.88C44.8705 535.88 43.7761 534.786 43.7761 533.446C43.7761 532.107 44.8705 531.013 46.2097 531.013C47.5489 531.013 48.6433 532.107 48.6433 533.446Z" fill="#725FEC"/>
<path d="M70.5312 533.446C70.5312 534.786 69.4368 535.88 68.0976 535.88C66.7585 535.88 65.6641 534.786 65.6641 533.446C65.6641 532.107 66.7585 531.013 68.0976 531.013C69.4368 531.013 70.5312 532.107 70.5312 533.446Z" fill="#725FEC"/>
<path d="M92.4192 533.446C92.4192 534.786 91.3248 535.88 89.9856 535.88C88.6464 535.88 87.552 534.786 87.552 533.446C87.552 532.107 88.6464 531.013 89.9856 531.013C91.3248 531.013 92.4192 532.107 92.4192 533.446Z" fill="#725FEC"/>
<path d="M114.307 533.446C114.307 534.786 113.213 535.88 111.874 535.88C110.534 535.88 109.44 534.786 109.44 533.446C109.44 532.107 110.534 531.013 111.874 531.013C113.213 531.013 114.307 532.107 114.307 533.446Z" fill="#725FEC"/>
<path d="M136.195 533.446C136.195 534.786 135.101 535.88 133.761 535.88C132.422 535.88 131.328 534.786 131.328 533.446C131.328 532.107 132.422 531.013 133.761 531.013C135.101 531.013 136.195 532.107 136.195 533.446Z" fill="#725FEC"/>
<path d="M158.083 533.446C158.083 534.786 156.989 535.88 155.649 535.88C154.31 535.88 153.216 534.786 153.216 533.446C153.216 532.107 154.31 531.013 155.649 531.013C156.989 531.013 158.083 532.107 158.083 533.446Z" fill="#725FEC"/>
<path d="M179.971 533.446C179.971 534.786 178.877 535.88 177.537 535.88C176.198 535.88 175.104 534.786 175.104 533.446C175.104 532.107 176.198 531.013 177.537 531.013C178.877 531.013 179.971 532.107 179.971 533.446Z" fill="#725FEC"/>
<path d="M201.859 533.446C201.859 534.786 200.764 535.88 199.425 535.88C198.086 535.88 196.992 534.786 196.992 533.446C196.992 532.107 198.086 531.013 199.425 531.013C200.764 531.013 201.859 532.107 201.859 533.446Z" fill="#725FEC"/>
<path d="M223.747 533.446C223.747 534.786 222.653 535.88 221.313 535.88C219.974 535.88 218.88 534.786 218.88 533.446C218.88 532.107 219.974 531.013 221.313 531.013C222.653 531.013 223.747 532.107 223.747 533.446Z" fill="#725FEC"/>
<g clip-path="url(#clip0_15_2185)">
<path d="M479.209 416.062C465.448 426.541 448.683 437.157 432.2 442.162C427.448 443.648 422.545 444.597 417.582 444.99C412.942 445.363 408.272 445.001 403.745 443.916C391.849 440.958 380.815 435.776 370.139 429.722C366.651 427.741 363.203 425.669 359.775 423.552C354.18 420.094 348.64 416.515 343.086 413.022C342.254 412.493 341.427 411.974 340.596 411.46H340.59C339.25 410.618 337.905 409.788 336.558 408.97C336.321 408.823 336.084 408.682 335.842 408.536C333.297 406.994 330.707 405.486 328.075 404.015C327.752 403.838 327.429 403.657 327.107 403.48C322.013 400.655 316.777 398.092 311.42 395.803C307.902 394.321 304.338 392.986 300.739 391.846H300.734C299.358 391.413 297.977 391.005 296.59 390.632C292.434 389.491 288.198 388.662 283.918 388.152C278.021 387.438 272.056 387.485 266.17 388.293C265.772 388.348 265.379 388.404 264.98 388.469C249.052 391.02 234.515 399.619 218.515 401.645C217.996 401.711 217.482 401.771 216.963 401.817C216.741 401.837 216.519 401.862 216.298 401.877C211.648 402.275 206.969 402.16 202.345 401.535C189.426 399.831 176.844 394.543 165.518 387.879C139.039 372.299 117.566 348.35 104.511 320.617C102.269 315.864 100.278 310.996 98.5475 306.034C93.7084 292.274 91.0435 277.844 90.6487 263.264C89.4239 212.676 118.171 161.921 163.305 139.041C208.444 116.162 267.823 123.728 304.227 158.877C326.31 180.199 339.088 209.092 355.707 234.905C372.327 260.713 395.947 285.367 426.413 289.128C441.933 291.043 458.174 287.338 473.049 292.157C481.286 294.829 488.312 299.94 493.973 306.452C497.779 310.872 500.964 315.79 503.44 321.07C505.254 324.888 506.727 328.859 507.84 332.936C508.047 333.687 508.238 334.438 508.425 335.189C515.835 365.453 503.994 397.179 479.209 416.062Z" fill="#D1CDFE"/>
<path d="M231.329 361.275H183.946C176.848 361.275 171.093 367.029 171.093 374.128V374.128C171.093 381.227 176.848 386.982 183.946 386.982H231.329C238.428 386.982 244.183 381.227 244.183 374.128C244.183 367.029 238.428 361.275 231.329 361.275Z" fill="#3F3D56"/>
<path d="M216.963 380.429V401.817C212.096 402.288 207.19 402.193 202.345 401.534V380.429H216.963Z" fill="#3F3D56"/>
<path d="M266.17 388.293C265.772 388.348 265.379 388.404 264.98 388.469C249.052 391.02 234.515 399.619 218.515 401.645C217.996 401.711 217.482 401.771 216.963 401.817C216.741 401.837 216.519 401.862 216.298 401.877C212.391 398.051 208.484 393.978 204.815 389.759C202.824 387.476 200.898 385.147 199.089 382.788C194.391 376.699 190.409 370.439 187.777 364.289C188.045 361.34 186.21 354.52 185.333 349.298L185.328 349.293C184.955 347.1 184.753 345.195 184.939 343.97C186.008 336.903 191.78 337.714 193.554 330.789C195.155 329.46 196.859 328.262 198.65 327.205C198.948 327.028 199.25 326.852 199.562 326.675L218.818 313.368L226.177 320.586L237.378 331.575L249.516 343.476L239.212 353.885C239.212 353.885 247.822 363.81 257.888 377.042C260.59 380.595 263.398 384.391 266.17 388.293Z" fill="#2F2E41"/>
<path d="M432.2 380.429V442.162C427.448 443.648 422.545 444.597 417.582 444.99V380.429H432.2Z" fill="#3F3D56"/>
<path d="M451.102 375.388H403.72C396.621 375.388 390.866 381.143 390.866 388.242V388.242C390.866 395.341 396.621 401.096 403.72 401.096H451.102C458.201 401.096 463.956 395.341 463.956 388.242C463.956 381.143 458.201 375.388 451.102 375.388Z" fill="#3F3D56"/>
<path d="M335.842 408.536C333.297 406.993 330.707 405.486 328.074 404.014C327.752 403.838 327.429 403.657 327.107 403.48L328.841 402.739L333.518 400.728L333.564 400.708L333.614 400.879L335.842 408.536Z" fill="#FFB6B6"/>
<path d="M343.086 413.022C342.254 412.493 341.427 411.974 340.596 411.46H340.591C339.25 410.618 337.906 409.788 336.558 408.969C336.321 408.823 336.084 408.682 335.842 408.536C333.297 406.993 330.707 405.486 328.075 404.014C327.752 403.838 327.429 403.657 327.107 403.48C322.013 400.654 316.777 398.092 311.42 395.803C307.902 394.321 304.338 392.985 300.739 391.846H300.734L297.906 387.113L285.178 365.796L282.381 361.113C282.381 361.113 272.839 363.936 259.335 366.643C254.42 367.631 248.986 368.599 243.285 369.415C237.191 370.282 230.8 370.973 224.448 371.306C221.419 371.467 218.4 371.547 215.426 371.522C207.739 371.472 200.354 370.751 193.887 369.037C191.729 367.011 185.227 364.254 180.569 361.728H180.564C178.609 360.67 176.985 359.657 176.134 358.754C171.224 353.562 175.418 349.515 171.053 343.849C170.994 341.77 171.1 339.691 171.37 337.629C171.416 337.286 171.461 336.938 171.516 336.585L172.892 313.217L183.115 311.866L198.67 309.809L215.521 307.581L217.376 322.109C217.376 322.109 230.497 321.443 247.121 321.665C273.822 322.028 309.55 324.689 314.389 336.112C314.843 337.185 315.296 338.269 315.75 339.353C316.829 341.944 317.897 344.548 318.956 347.166C322.792 356.642 326.451 366.209 329.793 375.252C331.87 380.878 333.826 386.302 335.625 391.377C337.072 395.46 338.413 399.322 339.638 402.875C340.757 406.121 341.77 409.111 342.672 411.792C342.813 412.211 342.95 412.624 343.086 413.022Z" fill="#2F2E41"/>
<path d="M249.049 271.436L216.761 244.014L237.768 222.754L252.424 246.759L306.749 257.53C308.383 256.3 310.339 255.573 312.378 255.436C314.418 255.299 316.454 255.758 318.237 256.758C320.02 257.758 321.474 259.255 322.421 261.067C323.368 262.879 323.767 264.927 323.57 266.962C323.373 268.997 322.588 270.931 321.311 272.527C320.035 274.124 318.321 275.315 316.379 275.954C314.437 276.593 312.351 276.654 310.375 276.128C308.4 275.602 306.62 274.513 305.252 272.994L249.049 271.436Z" fill="#A0616A"/>
<path d="M188.225 207.975C184.494 220.114 220.032 249.066 220.032 249.066C220.427 246.152 240.576 271.282 241.946 269.007C245.842 262.538 250.129 246.549 254.627 244.506C257.199 243.337 242.443 227.094 242.443 227.094C242.443 227.094 234.916 217.135 224.978 204.514C222.235 200.894 218.62 198.027 214.47 196.179C210.32 194.332 205.771 193.565 201.245 193.948C201.245 193.948 191.957 195.836 188.225 207.975Z" fill="#3F3D56"/>
<path d="M203.938 181.101C215.999 181.101 225.776 171.324 225.776 159.263C225.776 147.202 215.999 137.425 203.938 137.425C191.877 137.425 182.1 147.202 182.1 159.263C182.1 171.324 191.877 181.101 203.938 181.101Z" fill="#A0616A"/>
<path d="M214.857 195.535C219.562 198.332 222.376 203.471 223.992 208.7C226.983 218.382 228.783 228.392 229.353 238.509L231.06 268.799L252.194 333.293C233.878 348.791 165.031 336.815 165.031 336.815C165.031 336.815 162.917 336.11 165.031 333.997C167.144 331.884 169.202 333.756 167.088 331.643C164.975 329.529 166.432 331.884 167.136 329.77C167.841 327.657 167.136 329.066 166.432 328.361C165.727 327.657 171.885 321.317 171.885 321.317L166.25 284.297L159.205 209.624C167.659 199.057 184.66 192.828 184.66 192.828L189.053 184.921L211.017 186.678L214.857 195.535Z" fill="#3F3D56"/>
<path d="M221.94 147.661C223.638 148.927 224.895 150.693 225.536 152.711C225.782 149.413 225.797 146.102 225.582 142.802C225.325 140.482 223.692 139.961 221.802 139.356C220.094 138.81 218.163 138.193 217.644 135.942C210.779 129.264 198.829 129.601 190.651 131.93C186.151 133.212 183.561 134.859 183.33 135.824L183.282 136.022L183.099 136.114C179.63 137.848 178.955 143.325 179 147.614C179.084 155.695 181.874 164.873 183.446 165.618C183.529 165.658 183.55 165.642 183.586 165.612C185.953 163.721 188.841 165.756 190.11 166.862C190.858 161.84 193.268 157.213 196.954 153.721C200.641 150.229 205.391 148.073 210.447 147.597C212.098 147.438 213.736 147.163 215.348 146.775C216.166 146.564 217.007 146.453 217.852 146.447C219.307 146.425 220.734 146.848 221.94 147.661Z" fill="#2F2E41"/>
<path d="M194.423 304.338L187.743 300.916C187.385 300.661 187.131 300.286 187.026 299.859C186.922 299.432 186.975 298.982 187.176 298.591C187.376 298.2 187.71 297.894 188.118 297.728C188.525 297.563 188.978 297.55 189.394 297.692L196.075 301.113C196.432 301.368 196.687 301.743 196.791 302.17C196.895 302.597 196.842 303.048 196.642 303.439C196.441 303.83 196.107 304.136 195.7 304.301C195.292 304.466 194.839 304.479 194.423 304.338Z" fill="#2814AB"/>
<path d="M171.94 295.172L160.951 254.26L190.317 248.701L188.738 276.783L227.323 316.512C229.366 316.429 231.389 316.941 233.145 317.988C234.901 319.034 236.315 320.569 237.215 322.405C238.114 324.241 238.46 326.299 238.209 328.328C237.959 330.357 237.124 332.269 235.806 333.832C234.487 335.394 232.743 336.54 230.785 337.128C228.827 337.716 226.74 337.722 224.779 337.145C222.818 336.568 221.067 335.432 219.74 333.877C218.413 332.322 217.567 330.415 217.305 328.387L171.94 295.172Z" fill="#A0616A"/>
<path d="M157.946 208.39C147.978 216.26 160.772 260.277 160.772 260.277C162.753 258.103 165.055 290.231 167.476 289.137C174.357 286.028 186.969 275.306 191.832 276.18C194.612 276.68 191.699 254.929 191.699 254.929C191.699 254.929 191.163 242.458 190.156 226.425C189.956 221.887 188.61 217.474 186.245 213.596C183.88 209.718 180.572 206.501 176.629 204.245C176.629 204.245 167.914 200.521 157.946 208.39Z" fill="#3F3D56"/>
<path d="M503.44 321.07L104.511 320.617C102.269 315.863 100.278 310.996 98.5476 306.034L493.973 306.452C497.779 310.872 500.964 315.79 503.44 321.07Z" fill="#3F3D56"/>
<path d="M376.379 426.834C374.318 427.832 372.238 428.794 370.139 429.722C366.651 427.741 363.203 425.669 359.775 423.552L372.488 417.967L376.379 426.834Z" fill="#FFB6B6"/>
<path d="M469.067 357.373C467.001 360.145 464.868 362.862 462.671 365.524C460.644 367.979 458.564 370.386 456.43 372.747C455.548 373.725 454.656 374.698 453.744 375.661C452.065 377.46 450.35 379.229 448.597 380.969C445.442 381.962 439.05 383.711 432.2 385.344C427.215 386.528 421.987 387.652 417.582 388.368C415.116 388.811 412.621 389.077 410.117 389.165C407.143 389.19 404.123 389.109 401.094 388.948C397.676 388.766 394.254 388.484 390.871 388.121C382.075 387.199 373.557 385.762 366.207 384.285C363.516 383.751 360.985 383.207 358.656 382.677C354.246 381.684 350.556 380.757 347.884 380.051C344.875 379.265 343.161 378.756 343.161 378.756L335.626 391.378L331.714 397.925L328.841 402.739L328.075 404.014C327.752 403.838 327.429 403.657 327.107 403.48C322.013 400.655 316.777 398.092 311.42 395.803C307.902 394.321 304.338 392.985 300.739 391.846H300.734C299.358 391.413 297.977 391.004 296.591 390.631C297.024 389.467 297.463 388.294 297.906 387.113C298.733 384.91 299.576 382.687 300.437 380.444C302.297 375.585 304.222 370.655 306.203 365.751C307.826 361.723 309.48 357.711 311.153 353.754C311.924 351.929 313.492 350.326 315.685 348.92C316.733 348.259 317.826 347.673 318.956 347.166C325.232 344.308 334.476 342.448 344.664 341.253C345.505 341.157 346.352 341.062 347.204 340.971C355.637 340.084 364.584 339.625 372.952 339.413C377.141 339.307 381.183 339.267 384.944 339.262C386.158 339.262 387.34 339.265 388.487 339.272H388.492C391.592 339.287 394.445 339.333 396.955 339.383C397.444 339.393 397.918 339.408 398.382 339.418H398.387C398.7 339.423 399.007 339.433 399.309 339.438C404.799 339.58 408.166 339.751 408.166 339.751L409.471 329.508L409.739 327.442L409.991 325.476V325.471L410.021 325.224L410.228 325.219L413.857 325.148L444.363 324.553L461.027 324.226L458.386 335.547L454.026 354.228C454.469 357.182 469.218 354.868 469.067 357.373Z" fill="#2F2E41"/>
<path d="M380.14 424.969C378.895 425.604 377.639 426.229 376.379 426.834C374.318 427.832 372.238 428.794 370.139 429.722C366.651 427.741 363.203 425.669 359.775 423.552C354.18 420.094 348.64 416.515 343.086 413.022C342.254 412.493 341.427 411.974 340.596 411.46H340.59C338.302 408.062 335.968 404.524 333.614 400.879C333.579 400.829 333.549 400.778 333.518 400.728C332.914 399.8 332.312 398.866 331.714 397.925C327.948 392.028 324.163 385.878 320.488 379.597L329.793 375.252L347.093 367.177L350.077 365.786L358.656 382.677L366.308 397.744L368.012 401.096L380.14 424.969Z" fill="#2F2E41"/>
<path d="M382.747 343.873L426.853 301.338L439.078 266.724L421.046 258.883C411.784 267.755 401.772 295.39 401.772 295.39L371.421 334.003C371.184 334.084 370.948 334.17 370.715 334.273C369.348 334.876 368.16 335.821 367.265 337.018C366.37 338.214 365.799 339.621 365.606 341.103C365.414 342.584 365.607 344.09 366.167 345.475C366.727 346.861 367.635 348.078 368.803 349.01C369.971 349.942 371.359 350.556 372.834 350.795C374.309 351.033 375.82 350.887 377.222 350.371C378.624 349.854 379.869 348.985 380.837 347.847C381.805 346.708 382.463 345.34 382.747 343.873Z" fill="#FFB8B8"/>
<path d="M415.972 262.748L438.844 270.009L438.931 269.994C447.444 268.568 454.508 254.664 458.934 243.252C460.391 239.487 460.364 235.31 458.858 231.565C457.353 227.82 454.482 224.786 450.825 223.077C448.119 221.834 445.12 221.373 442.165 221.746C439.211 222.118 436.42 223.31 434.108 225.186L422.363 234.783L415.972 262.748Z" fill="#2814AB"/>
<path d="M468.975 357.884L469.109 357.706C476.245 348.242 466.485 324.804 465.009 321.405L471.645 319.439L470.488 306.805L469.931 301.172L475.09 296.272L475.107 296.147L478.656 270.897L483.298 254.186C485.048 247.868 485.085 241.198 483.405 234.862C481.725 228.525 478.39 222.749 473.74 218.127L464.25 208.705L452.88 190.908L433.817 190.416L426.962 202.594C420.587 203.895 414.87 207.391 410.808 212.473C406.745 217.556 404.595 223.902 404.731 230.407L405.376 262.827L398.536 302.994L398.344 310.291L391.63 317.376L392.871 324.538L387.849 326.539L385.392 336.716C384.453 337.891 378.256 345.724 378.2 347.908C378.191 348.236 378.425 348.559 378.935 348.924C382.947 351.794 405.367 358.013 415.458 354.274C426.206 350.295 468.332 357.768 468.756 357.844L468.975 357.884Z" fill="#2814AB"/>
<path d="M441.684 184.96C455.632 184.96 466.939 173.653 466.939 159.705C466.939 145.756 455.632 134.449 441.684 134.449C427.735 134.449 416.428 145.756 416.428 159.705C416.428 173.653 427.735 184.96 441.684 184.96Z" fill="#FFB8B8"/>
<path d="M438.603 185.298C442.514 185.359 446.423 185.086 450.287 184.482C454.118 183.703 462.687 177.423 465.076 173.644C466.851 170.837 467.986 166.452 468.625 163.269C469.487 159.057 469.454 154.71 468.529 150.511C467.604 146.312 465.807 142.354 463.255 138.893C462.274 137.446 460.921 136.29 459.337 135.549C459.197 135.494 459.052 135.446 458.906 135.404C456.599 134.797 454.525 133.514 452.952 131.72C452.647 131.357 452.316 131.017 451.963 130.701C450.185 129.201 448.077 128.142 445.812 127.613C442.155 126.634 436.863 127.605 430.084 130.503C426.678 131.958 422.953 131.432 420.087 130.81C419.926 130.779 419.76 130.79 419.605 130.843C419.45 130.897 419.312 130.989 419.204 131.112C417.985 132.257 416.378 132.898 414.705 132.906C413.681 132.951 412.606 134.369 411.308 136.218C411.013 136.638 410.669 137.128 410.421 137.426L410.388 136.853L409.808 137.492C408.897 138.496 408.256 139.714 407.942 141.033C407.629 142.351 407.655 143.728 408.017 145.034C408.379 146.34 409.065 147.534 410.012 148.503C410.96 149.473 412.137 150.186 413.435 150.578C414.465 150.852 415.521 151.021 416.585 151.08C417.23 151.138 417.897 151.198 418.536 151.309C420.587 151.729 422.495 152.674 424.072 154.052C425.649 155.429 426.842 157.192 427.535 159.168C427.699 159.625 427.965 160.038 428.314 160.375C428.663 160.712 429.084 160.965 429.546 161.114C430.008 161.262 430.498 161.303 430.978 161.232C431.458 161.161 431.916 160.981 432.315 160.705C432.981 160.187 433.762 159.837 434.592 159.686C435.423 159.535 436.277 159.587 437.083 159.837C437.779 160.224 438.321 160.839 438.618 161.579C438.979 162.402 439.577 163.1 440.336 163.583C442.932 164.921 443.111 170.85 442.178 175.792C441.28 180.556 439.503 184.003 437.859 184.173C436.592 184.304 436.448 184.394 436.356 184.618L436.274 184.818L436.416 185.006C437.116 185.259 437.861 185.359 438.603 185.298Z" fill="#2F2E41"/>
<path d="M422.244 255.112L412.506 235.697C398.371 236.663 370.318 253.006 370.318 253.006L317.24 264.259C315.668 263.655 313.964 263.475 312.3 263.739C310.637 264.002 309.071 264.699 307.763 265.76C306.454 266.82 305.448 268.207 304.845 269.78C304.243 271.353 304.065 273.057 304.33 274.721C304.596 276.384 305.295 277.948 306.357 279.256C307.419 280.564 308.807 281.568 310.381 282.169C311.954 282.769 313.659 282.945 315.322 282.678C316.985 282.41 318.548 281.709 319.855 280.646L387.373 275.806L422.244 255.112Z" fill="#FFB8B8"/>
<path d="M418.316 258.3L443.748 239.4L448.228 223.256C449.096 220.084 449.059 216.732 448.122 213.579C447.185 210.426 445.385 207.598 442.925 205.415C439.57 202.478 435.225 200.924 430.769 201.068C426.313 201.212 422.077 203.042 418.919 206.19C409.348 215.742 398.433 229.069 400.777 238.31L400.801 238.404L418.316 258.3Z" fill="#2814AB"/>
<path d="M386.834 308.852H318.785V317.925H386.834V308.852Z" fill="white"/>
<path d="M212.93 308.852H144.881V317.925H212.93V308.852Z" fill="white"/>
<path d="M220.876 265.219V308.419C220.877 308.97 221.096 309.498 221.485 309.887C221.874 310.276 222.402 310.495 222.953 310.495H286.972C287.522 310.495 288.05 310.276 288.439 309.887C288.829 309.498 289.047 308.97 289.048 308.419V265.219C289.047 264.669 288.827 264.141 288.438 263.753C288.049 263.364 287.522 263.145 286.972 263.145H222.953C222.403 263.145 221.875 263.364 221.486 263.753C221.097 264.141 220.878 264.669 220.876 265.219Z" fill="#3F3D56"/>
<path d="M222.378 265.756V307.886C222.379 308.18 222.496 308.462 222.704 308.67C222.912 308.878 223.194 308.995 223.488 308.996H286.439C286.733 308.995 287.015 308.878 287.223 308.67C287.431 308.462 287.548 308.18 287.548 307.886V265.756C287.548 265.462 287.432 265.179 287.224 264.971C287.015 264.762 286.733 264.645 286.439 264.644H223.488C223.194 264.645 222.911 264.762 222.703 264.971C222.495 265.179 222.378 265.462 222.378 265.756Z" fill="#2814AB"/>
<path d="M219.538 316.844C219.655 316.991 219.804 317.11 219.974 317.191C220.143 317.272 220.329 317.314 220.517 317.313H289.066C289.254 317.313 289.439 317.271 289.608 317.19C289.777 317.109 289.926 316.992 290.044 316.846C290.162 316.701 290.247 316.531 290.291 316.348C290.335 316.166 290.338 315.976 290.299 315.793L289.235 310.739C289.191 310.532 289.096 310.341 288.959 310.181C288.822 310.021 288.647 309.897 288.45 309.822C288.307 309.766 288.155 309.738 288.002 309.738H221.577C221.424 309.738 221.272 309.766 221.129 309.822C220.932 309.897 220.757 310.021 220.62 310.181C220.483 310.341 220.388 310.532 220.344 310.739L219.28 315.793C219.242 315.976 219.246 316.166 219.29 316.348C219.335 316.53 219.419 316.699 219.538 316.844Z" fill="#2F2E41"/>
<path d="M285.65 311.915H287.269C287.405 311.915 287.515 311.805 287.515 311.669V310.894C287.515 310.758 287.405 310.648 287.269 310.648H285.65C285.514 310.648 285.404 310.758 285.404 310.894V311.669C285.404 311.805 285.514 311.915 285.65 311.915Z" fill="#3F3D56"/>
<path d="M281.428 311.915H283.047C283.183 311.915 283.293 311.805 283.293 311.669V310.894C283.293 310.758 283.183 310.648 283.047 310.648H281.428C281.292 310.648 281.182 310.758 281.182 310.894V311.669C281.182 311.805 281.292 311.915 281.428 311.915Z" fill="#3F3D56"/>
<path d="M277.205 311.915H278.824C278.96 311.915 279.07 311.805 279.07 311.669V310.894C279.07 310.758 278.96 310.648 278.824 310.648H277.205C277.069 310.648 276.959 310.758 276.959 310.894V311.669C276.959 311.805 277.069 311.915 277.205 311.915Z" fill="#3F3D56"/>
<path d="M272.982 311.915H274.602C274.737 311.915 274.848 311.805 274.848 311.669V310.894C274.848 310.758 274.737 310.648 274.602 310.648H272.982C272.847 310.648 272.736 310.758 272.736 310.894V311.669C272.736 311.805 272.847 311.915 272.982 311.915Z" fill="#3F3D56"/>
<path d="M268.76 311.915H270.379C270.515 311.915 270.625 311.805 270.625 311.669V310.894C270.625 310.758 270.515 310.648 270.379 310.648H268.76C268.624 310.648 268.514 310.758 268.514 310.894V311.669C268.514 311.805 268.624 311.915 268.76 311.915Z" fill="#3F3D56"/>
<path d="M264.537 311.915H266.156C266.292 311.915 266.403 311.805 266.403 311.669V310.894C266.403 310.758 266.292 310.648 266.156 310.648H264.537C264.401 310.648 264.291 310.758 264.291 310.894V311.669C264.291 311.805 264.401 311.915 264.537 311.915Z" fill="#3F3D56"/>
<path d="M260.315 311.915H261.934C262.07 311.915 262.18 311.805 262.18 311.669V310.894C262.18 310.758 262.07 310.648 261.934 310.648H260.315C260.179 310.648 260.069 310.758 260.069 310.894V311.669C260.069 311.805 260.179 311.915 260.315 311.915Z" fill="#3F3D56"/>
<path d="M256.092 311.915H257.711C257.847 311.915 257.958 311.805 257.958 311.669V310.894C257.958 310.758 257.847 310.648 257.711 310.648H256.092C255.956 310.648 255.846 310.758 255.846 310.894V311.669C255.846 311.805 255.956 311.915 256.092 311.915Z" fill="#3F3D56"/>
<path d="M251.87 311.915H253.489C253.625 311.915 253.735 311.805 253.735 311.669V310.894C253.735 310.758 253.625 310.648 253.489 310.648H251.87C251.734 310.648 251.624 310.758 251.624 310.894V311.669C251.624 311.805 251.734 311.915 251.87 311.915Z" fill="#3F3D56"/>
<path d="M247.647 311.915H249.266C249.402 311.915 249.512 311.805 249.512 311.669V310.894C249.512 310.758 249.402 310.648 249.266 310.648H247.647C247.511 310.648 247.401 310.758 247.401 310.894V311.669C247.401 311.805 247.511 311.915 247.647 311.915Z" fill="#3F3D56"/>
<path d="M243.425 311.915H245.044C245.18 311.915 245.29 311.805 245.29 311.669V310.894C245.29 310.758 245.18 310.648 245.044 310.648H243.425C243.289 310.648 243.179 310.758 243.179 310.894V311.669C243.179 311.805 243.289 311.915 243.425 311.915Z" fill="#3F3D56"/>
<path d="M239.202 311.915H240.821C240.957 311.915 241.067 311.805 241.067 311.669V310.894C241.067 310.758 240.957 310.648 240.821 310.648H239.202C239.066 310.648 238.956 310.758 238.956 310.894V311.669C238.956 311.805 239.066 311.915 239.202 311.915Z" fill="#3F3D56"/>
<path d="M234.98 311.915H236.599C236.735 311.915 236.845 311.805 236.845 311.669V310.894C236.845 310.758 236.735 310.648 236.599 310.648H234.98C234.844 310.648 234.733 310.758 234.733 310.894V311.669C234.733 311.805 234.844 311.915 234.98 311.915Z" fill="#3F3D56"/>
<path d="M230.757 311.915H232.376C232.512 311.915 232.622 311.805 232.622 311.669V310.894C232.622 310.758 232.512 310.648 232.376 310.648H230.757C230.621 310.648 230.511 310.758 230.511 310.894V311.669C230.511 311.805 230.621 311.915 230.757 311.915Z" fill="#3F3D56"/>
<path d="M226.534 311.915H228.154C228.289 311.915 228.4 311.805 228.4 311.669V310.894C228.4 310.758 228.289 310.648 228.154 310.648H226.534C226.399 310.648 226.288 310.758 226.288 310.894V311.669C226.288 311.805 226.399 311.915 226.534 311.915Z" fill="#3F3D56"/>
<path d="M222.312 311.915H223.931C224.067 311.915 224.177 311.805 224.177 311.669V310.894C224.177 310.758 224.067 310.648 223.931 310.648H222.312C222.176 310.648 222.066 310.758 222.066 310.894V311.669C222.066 311.805 222.176 311.915 222.312 311.915Z" fill="#3F3D56"/>
<path d="M285.7 314.026H287.319C287.455 314.026 287.565 313.916 287.565 313.78V313.006C287.565 312.87 287.455 312.759 287.319 312.759H285.7C285.564 312.759 285.454 312.87 285.454 313.006V313.78C285.454 313.916 285.564 314.026 285.7 314.026Z" fill="#3F3D56"/>
<path d="M281.478 314.026H283.097C283.233 314.026 283.343 313.916 283.343 313.78V313.006C283.343 312.87 283.233 312.759 283.097 312.759H281.478C281.342 312.759 281.231 312.87 281.231 313.006V313.78C281.231 313.916 281.342 314.026 281.478 314.026Z" fill="#3F3D56"/>
<path d="M277.255 314.026H278.874C279.01 314.026 279.12 313.916 279.12 313.78V313.006C279.12 312.87 279.01 312.759 278.874 312.759H277.255C277.119 312.759 277.009 312.87 277.009 313.006V313.78C277.009 313.916 277.119 314.026 277.255 314.026Z" fill="#3F3D56"/>
<path d="M273.032 314.026H274.652C274.788 314.026 274.898 313.916 274.898 313.78V313.006C274.898 312.87 274.788 312.759 274.652 312.759H273.032C272.897 312.759 272.786 312.87 272.786 313.006V313.78C272.786 313.916 272.897 314.026 273.032 314.026Z" fill="#3F3D56"/>
<path d="M268.81 314.026H270.429C270.565 314.026 270.675 313.916 270.675 313.78V313.006C270.675 312.87 270.565 312.759 270.429 312.759H268.81C268.674 312.759 268.564 312.87 268.564 313.006V313.78C268.564 313.916 268.674 314.026 268.81 314.026Z" fill="#3F3D56"/>
<path d="M264.587 314.026H266.206C266.342 314.026 266.452 313.916 266.452 313.78V313.006C266.452 312.87 266.342 312.759 266.206 312.759H264.587C264.451 312.759 264.341 312.87 264.341 313.006V313.78C264.341 313.916 264.451 314.026 264.587 314.026Z" fill="#3F3D56"/>
<path d="M260.365 314.026H261.984C262.12 314.026 262.23 313.916 262.23 313.78V313.006C262.23 312.87 262.12 312.759 261.984 312.759H260.365C260.229 312.759 260.119 312.87 260.119 313.006V313.78C260.119 313.916 260.229 314.026 260.365 314.026Z" fill="#3F3D56"/>
<path d="M256.142 314.026H257.761C257.897 314.026 258.007 313.916 258.007 313.78V313.006C258.007 312.87 257.897 312.759 257.761 312.759H256.142C256.006 312.759 255.896 312.87 255.896 313.006V313.78C255.896 313.916 256.006 314.026 256.142 314.026Z" fill="#3F3D56"/>
<path d="M251.92 314.026H253.539C253.675 314.026 253.785 313.916 253.785 313.78V313.006C253.785 312.87 253.675 312.759 253.539 312.759H251.92C251.784 312.759 251.674 312.87 251.674 313.006V313.78C251.674 313.916 251.784 314.026 251.92 314.026Z" fill="#3F3D56"/>
<path d="M247.697 314.026H249.316C249.452 314.026 249.562 313.916 249.562 313.78V313.006C249.562 312.87 249.452 312.759 249.316 312.759H247.697C247.561 312.759 247.451 312.87 247.451 313.006V313.78C247.451 313.916 247.561 314.026 247.697 314.026Z" fill="#3F3D56"/>
<path d="M243.474 314.026H245.094C245.229 314.026 245.34 313.916 245.34 313.78V313.006C245.34 312.87 245.229 312.759 245.094 312.759H243.474C243.338 312.759 243.228 312.87 243.228 313.006V313.78C243.228 313.916 243.338 314.026 243.474 314.026Z" fill="#3F3D56"/>
<path d="M239.252 314.026H240.871C241.007 314.026 241.117 313.916 241.117 313.78V313.006C241.117 312.87 241.007 312.759 240.871 312.759H239.252C239.116 312.759 239.006 312.87 239.006 313.006V313.78C239.006 313.916 239.116 314.026 239.252 314.026Z" fill="#3F3D56"/>
<path d="M235.029 314.026H236.648C236.784 314.026 236.895 313.916 236.895 313.78V313.006C236.895 312.87 236.784 312.759 236.648 312.759H235.029C234.893 312.759 234.783 312.87 234.783 313.006V313.78C234.783 313.916 234.893 314.026 235.029 314.026Z" fill="#3F3D56"/>
<path d="M230.807 314.026H232.426C232.562 314.026 232.672 313.916 232.672 313.78V313.006C232.672 312.87 232.562 312.759 232.426 312.759H230.807C230.671 312.759 230.561 312.87 230.561 313.006V313.78C230.561 313.916 230.671 314.026 230.807 314.026Z" fill="#3F3D56"/>
<path d="M226.584 314.026H228.203C228.339 314.026 228.449 313.916 228.449 313.78V313.006C228.449 312.87 228.339 312.759 228.203 312.759H226.584C226.448 312.759 226.338 312.87 226.338 313.006V313.78C226.338 313.916 226.448 314.026 226.584 314.026Z" fill="#3F3D56"/>
<path d="M222.362 314.026H223.981C224.117 314.026 224.227 313.916 224.227 313.78V313.006C224.227 312.87 224.117 312.759 223.981 312.759H222.362C222.226 312.759 222.116 312.87 222.116 313.006V313.78C222.116 313.916 222.226 314.026 222.362 314.026Z" fill="#3F3D56"/>
<path d="M250.653 316.56H267.051C267.187 316.56 267.297 316.45 267.297 316.314V315.539C267.297 315.403 267.187 315.293 267.051 315.293H250.653C250.517 315.293 250.407 315.403 250.407 315.539V316.314C250.407 316.45 250.517 316.56 250.653 316.56Z" fill="#3F3D56"/>
</g>
<defs>
<clipPath id="clip0_15_2185">
<rect width="420" height="319.13" fill="white" transform="translate(90.6111 125.99)"/>
</clipPath>
</defs>
</svg>
